<?xml version="1.0" encoding="utf-8"?>
<!-- Generator: Adobe Illustrator 16.1.0, SVG Export Plug-In . SVG Version: 6.00 Build 0)  -->
<!DOCTYPE svg PUBLIC "-//W3C//DTD SVG 1.1//EN" "http://www.w3.org/Graphics/SVG/1.1/DTD/svg11.dtd">
<svg version="1.1" id="Layer_1" xmlns="http://www.w3.org/2000/svg" xmlns:xlink="http://www.w3.org/1999/xlink" x="0px" y="0px"
	 width="150px" height="120px" viewBox="-31.587 0 150 120" enable-background="new -31.587 0 150 120" xml:space="preserve">
<g>
	<g>
		<g>
			<g>
				<path fill="#4D4D4F" d="M41.278,118.535c-0.409,0-0.806-0.188-1.06-0.51l0,0l-3.638-4.574c-2.598-0.324-5.138-0.828-7.609-1.498
					l0,0l-5.097,2.824c-0.357,0.193-0.793,0.221-1.17,0.066l0,0l-3.946-1.637c-0.382-0.154-0.667-0.48-0.784-0.873l0,0l-1.608-5.611
					c-2.251-1.289-4.404-2.73-6.439-4.312l0,0l-5.808,0.66c-0.404,0.051-0.817-0.096-1.109-0.385l0,0l-3.019-3.018
					c-0.293-0.295-0.434-0.699-0.388-1.111l0,0l0.662-5.803c-1.582-2.039-3.02-4.191-4.308-6.443l0,0l-5.608-1.607
					c-0.396-0.113-0.721-0.406-0.877-0.781l0,0l-1.634-3.949c-0.157-0.377-0.134-0.809,0.065-1.172l0,0l2.827-5.092
					c-0.68-2.475-1.183-5.016-1.504-7.611l0,0l-4.574-3.637c-0.316-0.256-0.505-0.646-0.505-1.059l0,0v-4.271
					c0-0.41,0.189-0.801,0.505-1.057l0,0l4.574-3.639c0.322-2.598,0.826-5.141,1.504-7.611l0,0l-2.827-5.094
					c-0.199-0.358-0.222-0.791-0.065-1.171l0,0l1.634-3.945c0.156-0.377,0.481-0.668,0.877-0.781l0,0l5.608-1.609
					c1.286-2.252,2.726-4.403,4.308-6.441l0,0l-0.662-5.808c-0.046-0.404,0.095-0.817,0.388-1.107l0,0l3.019-3.02
					c0.29-0.289,0.705-0.431,1.109-0.386l0,0l5.808,0.662c2.035-1.583,4.189-3.023,6.441-4.31l0,0l1.606-5.611
					c0.116-0.394,0.402-0.718,0.784-0.875l0,0l3.946-1.634c0.375-0.156,0.812-0.132,1.17,0.068l0,0l5.097,2.823
					c2.471-0.676,5.012-1.18,7.609-1.504l0,0l3.638-4.57C40.473,0.189,40.868,0,41.278,0l0,0h4.272c0.405,0,0.798,0.189,1.051,0.511
					l0,0l3.642,4.57c2.594,0.324,5.136,0.829,7.608,1.504l0,0l5.094-2.823c0.357-0.201,0.798-0.225,1.172-0.068l0,0l3.945,1.634
					c0.378,0.156,0.671,0.48,0.78,0.875l0,0l1.613,5.611c2.248,1.287,4.402,2.728,6.438,4.313l0,0l5.809-0.665
					c0.408-0.049,0.818,0.095,1.11,0.386l0,0l3.016,3.02c0.29,0.29,0.432,0.703,0.388,1.107l0,0l-0.665,5.808
					c1.587,2.038,3.028,4.188,4.314,6.441l0,0l5.612,1.609c0.394,0.112,0.716,0.403,0.872,0.781l0,0l1.632,3.945
					c0.158,0.379,0.131,0.813-0.063,1.171l0,0l-2.831,5.096c0.679,2.475,1.186,5.014,1.506,7.613l0,0l4.575,3.635
					c0.319,0.256,0.511,0.646,0.511,1.057l0,0v4.273c0,0.41-0.191,0.797-0.511,1.057l0,0l-4.575,3.637
					c-0.323,2.6-0.827,5.137-1.506,7.611l0,0l2.831,5.092c0.194,0.363,0.222,0.795,0.063,1.172l0,0l-1.632,3.949
					c-0.156,0.375-0.479,0.668-0.872,0.781l0,0l-5.612,1.605c-1.286,2.254-2.728,4.406-4.314,6.441l0,0l0.665,5.805
					c0.044,0.41-0.098,0.818-0.388,1.111l0,0l-3.016,3.02c-0.292,0.287-0.702,0.432-1.11,0.385l0,0l-5.809-0.662
					c-2.036,1.582-4.19,3.023-6.438,4.312l0,0l-1.613,5.611c-0.109,0.395-0.402,0.717-0.78,0.871l0,0l-3.945,1.637
					c-0.374,0.156-0.814,0.131-1.172-0.064l0,0l-5.094-2.824c-2.477,0.672-5.015,1.174-7.608,1.5l0,0l-3.642,4.572
					c-0.253,0.324-0.646,0.51-1.051,0.51l0,0h-4.272V118.535z M29.17,109.199c2.676,0.766,5.444,1.312,8.277,1.633l0,0
					c0.352,0.045,0.683,0.223,0.903,0.506l0,0l3.575,4.494h2.97l3.574-4.494c0.223-0.283,0.546-0.461,0.902-0.506l0,0
					c2.841-0.322,5.604-0.867,8.28-1.633l0,0c0.344-0.092,0.715-0.053,1.026,0.119l0,0l5.011,2.775l2.735-1.135l1.584-5.518
					c0.101-0.338,0.329-0.633,0.643-0.805l0,0c2.471-1.377,4.807-2.945,7.005-4.691l0,0c0.277-0.221,0.64-0.324,0.993-0.283l0,0
					l5.711,0.652l2.1-2.1l-0.646-5.709c-0.049-0.355,0.054-0.717,0.279-0.994l0,0c1.74-2.197,3.315-4.535,4.686-7.008l0,0
					c0.175-0.311,0.467-0.541,0.807-0.637l0,0l5.521-1.588l1.132-2.74l-2.78-5.006c-0.167-0.314-0.212-0.684-0.112-1.027l0,0
					c0.758-2.676,1.313-5.441,1.631-8.275l0,0c0.044-0.354,0.231-0.686,0.499-0.904l0,0l4.5-3.572v-2.973l-4.5-3.576
					c-0.268-0.223-0.458-0.551-0.499-0.902l0,0c-0.318-2.836-0.873-5.604-1.631-8.277l0,0c-0.097-0.34-0.053-0.713,0.112-1.023l0,0
					l2.78-5.012l-1.132-2.739l-5.521-1.583c-0.34-0.098-0.632-0.328-0.807-0.641l0,0c-1.37-2.469-2.945-4.809-4.686-7.007l0,0
					c-0.223-0.282-0.328-0.639-0.279-0.995l0,0l0.646-5.709l-2.095-2.1l-5.713,0.654c-0.355,0.038-0.719-0.064-0.994-0.285l0,0
					c-2.197-1.743-4.535-3.312-7.004-4.69l0,0c-0.314-0.171-0.542-0.462-0.646-0.808l0,0l-1.581-5.515l-2.738-1.135l-5.011,2.777
					c-0.312,0.173-0.681,0.215-1.026,0.12l0,0c-2.674-0.76-5.437-1.314-8.277-1.637l0,0c-0.357-0.042-0.683-0.224-0.905-0.502l0,0
					l-3.571-4.495h-2.971l-3.575,4.495c-0.22,0.275-0.552,0.46-0.903,0.502l0,0c-2.831,0.323-5.603,0.875-8.277,1.637l0,0
					c-0.343,0.095-0.713,0.053-1.023-0.12l0,0l-5.013-2.777l-2.741,1.135l-1.581,5.515c-0.098,0.346-0.331,0.637-0.64,0.808l0,0
					c-2.468,1.376-4.811,2.947-7.007,4.69l0,0c-0.275,0.221-0.64,0.324-0.991,0.285l0,0l-5.712-0.654l-2.099,2.1l0.655,5.709
					c0.038,0.354-0.066,0.714-0.282,0.995l0,0c-1.749,2.197-3.315,4.538-4.691,7.007l0,0c-0.177,0.311-0.466,0.543-0.807,0.641l0,0
					l-5.521,1.582l-1.133,2.74l2.779,5.012c0.172,0.311,0.213,0.682,0.113,1.023l0,0c-0.76,2.674-1.307,5.441-1.634,8.277l0,0
					c-0.039,0.354-0.226,0.682-0.503,0.902l0,0l-4.495,3.574v2.971l4.495,3.574c0.277,0.221,0.464,0.549,0.503,0.904l0,0
					c0.327,2.834,0.871,5.602,1.634,8.277l0,0c0.098,0.34,0.059,0.711-0.113,1.025l0,0l-2.779,5.008l1.136,2.738l5.516,1.586
					c0.341,0.1,0.629,0.326,0.807,0.639l0,0c1.374,2.473,2.944,4.809,4.691,7.008l0,0c0.215,0.277,0.32,0.637,0.282,0.994l0,0
					l-0.655,5.707l2.099,2.104l5.712-0.656c0.351-0.037,0.716,0.066,0.993,0.287l0,0c2.194,1.744,4.537,3.311,7.006,4.691l0,0
					c0.31,0.17,0.541,0.463,0.64,0.805l0,0l1.581,5.514l2.741,1.139l5.012-2.775c0.197-0.113,0.426-0.172,0.656-0.172l0,0
					C28.924,109.146,29.047,109.162,29.17,109.199L29.17,109.199z"/>
				<g>
					<g>
						<path id="SVGID_1_" fill="#FFFFFF" d="M29.17,109.199c2.676,0.766,5.444,1.312,8.277,1.633l0,0
							c0.352,0.045,0.683,0.223,0.903,0.506l0,0l3.575,4.494h2.97l3.574-4.494c0.223-0.283,0.546-0.461,0.902-0.506l0,0
							c2.841-0.322,5.604-0.867,8.28-1.633l0,0c0.344-0.092,0.715-0.053,1.026,0.119l0,0l5.011,2.775l2.735-1.135l1.584-5.518
							c0.101-0.338,0.329-0.633,0.643-0.805l0,0c2.471-1.377,4.807-2.945,7.005-4.691l0,0c0.277-0.221,0.64-0.324,0.993-0.283l0,0
							l5.711,0.652l2.1-2.1l-0.646-5.709c-0.049-0.355,0.054-0.717,0.279-0.994l0,0c1.74-2.197,3.315-4.535,4.686-7.008l0,0
							c0.175-0.311,0.467-0.541,0.807-0.637l0,0l5.521-1.588l1.132-2.74l-2.78-5.006c-0.167-0.314-0.212-0.684-0.112-1.027l0,0
							c0.758-2.676,1.313-5.441,1.631-8.275l0,0c0.044-0.354,0.231-0.686,0.499-0.904l0,0l4.5-3.572v-2.973l-4.5-3.576
							c-0.268-0.223-0.458-0.551-0.499-0.902l0,0c-0.318-2.836-0.873-5.604-1.631-8.277l0,0c-0.097-0.34-0.053-0.713,0.112-1.023
							l0,0l2.78-5.012l-1.132-2.739l-5.521-1.583c-0.34-0.098-0.632-0.328-0.807-0.641l0,0c-1.37-2.469-2.945-4.809-4.686-7.007l0,0
							c-0.223-0.282-0.328-0.639-0.279-0.995l0,0l0.646-5.709l-2.095-2.1l-5.713,0.654c-0.355,0.038-0.719-0.064-0.994-0.285l0,0
							c-2.197-1.743-4.535-3.312-7.004-4.69l0,0c-0.314-0.171-0.542-0.462-0.646-0.808l0,0l-1.581-5.515l-2.738-1.135l-5.011,2.777
							c-0.312,0.173-0.681,0.215-1.026,0.12l0,0c-2.674-0.76-5.437-1.314-8.277-1.637l0,0c-0.357-0.042-0.683-0.224-0.905-0.502l0,0
							l-3.571-4.495h-2.971l-3.575,4.495c-0.22,0.275-0.552,0.46-0.903,0.502l0,0c-2.831,0.323-5.603,0.875-8.277,1.637l0,0
							c-0.343,0.095-0.713,0.053-1.023-0.12l0,0l-5.013-2.777l-2.741,1.135l-1.581,5.515c-0.098,0.346-0.331,0.637-0.64,0.808l0,0
							c-2.468,1.376-4.811,2.947-7.007,4.69l0,0c-0.275,0.221-0.64,0.324-0.991,0.285l0,0l-5.712-0.654l-2.099,2.1l0.655,5.709
							c0.038,0.354-0.066,0.714-0.282,0.995l0,0c-1.749,2.197-3.315,4.538-4.691,7.007l0,0c-0.177,0.311-0.466,0.543-0.807,0.641
							l0,0l-5.521,1.582l-1.133,2.74l2.779,5.012c0.172,0.311,0.213,0.682,0.113,1.023l0,0c-0.76,2.674-1.307,5.441-1.634,8.277l0,0
							c-0.039,0.354-0.226,0.682-0.503,0.902l0,0l-4.495,3.574v2.971l4.495,3.574c0.277,0.221,0.464,0.549,0.503,0.904l0,0
							c0.327,2.834,0.871,5.602,1.634,8.277l0,0c0.098,0.34,0.059,0.711-0.113,1.025l0,0l-2.779,5.008l1.136,2.738l5.516,1.586
							c0.341,0.1,0.629,0.326,0.807,0.639l0,0c1.374,2.473,2.944,4.809,4.691,7.008l0,0c0.215,0.277,0.32,0.637,0.282,0.994l0,0
							l-0.655,5.707l2.099,2.104l5.712-0.656c0.351-0.037,0.716,0.066,0.993,0.287l0,0c2.194,1.744,4.537,3.311,7.006,4.691l0,0
							c0.31,0.17,0.541,0.463,0.64,0.805l0,0l1.581,5.514l2.741,1.139l5.012-2.775c0.197-0.113,0.426-0.172,0.656-0.172l0,0
							C28.924,109.146,29.047,109.162,29.17,109.199L29.17,109.199z"/>
					</g>
					<g>
						<defs>
							<path id="SVGID_2_" d="M29.17,109.199c2.676,0.766,5.444,1.312,8.277,1.633l0,0c0.352,0.045,0.683,0.223,0.903,0.506l0,0
								l3.575,4.494h2.97l3.574-4.494c0.223-0.283,0.546-0.461,0.902-0.506l0,0c2.841-0.322,5.604-0.867,8.28-1.633l0,0
								c0.344-0.092,0.715-0.053,1.026,0.119l0,0l5.011,2.775l2.735-1.135l1.584-5.518c0.101-0.338,0.329-0.633,0.643-0.805l0,0
								c2.471-1.377,4.807-2.945,7.005-4.691l0,0c0.277-0.221,0.64-0.324,0.993-0.283l0,0l5.711,0.652l2.1-2.1l-0.646-5.709
								c-0.049-0.355,0.054-0.717,0.279-0.994l0,0c1.74-2.197,3.315-4.535,4.686-7.008l0,0c0.175-0.311,0.467-0.541,0.807-0.637l0,0
								l5.521-1.588l1.132-2.74l-2.78-5.006c-0.167-0.314-0.212-0.684-0.112-1.027l0,0c0.758-2.676,1.313-5.441,1.631-8.275l0,0
								c0.044-0.354,0.231-0.686,0.499-0.904l0,0l4.5-3.572v-2.973l-4.5-3.576c-0.268-0.223-0.458-0.551-0.499-0.902l0,0
								c-0.318-2.836-0.873-5.604-1.631-8.277l0,0c-0.097-0.34-0.053-0.713,0.112-1.023l0,0l2.78-5.012l-1.132-2.739l-5.521-1.583
								c-0.34-0.098-0.632-0.328-0.807-0.641l0,0c-1.37-2.469-2.945-4.809-4.686-7.007l0,0c-0.223-0.282-0.328-0.639-0.279-0.995
								l0,0l0.646-5.709l-2.095-2.1l-5.713,0.654c-0.355,0.038-0.719-0.064-0.994-0.285l0,0c-2.197-1.743-4.535-3.312-7.004-4.69
								l0,0c-0.314-0.171-0.542-0.462-0.646-0.808l0,0l-1.581-5.515l-2.738-1.135l-5.011,2.777c-0.312,0.173-0.681,0.215-1.026,0.12
								l0,0c-2.674-0.76-5.437-1.314-8.277-1.637l0,0c-0.357-0.042-0.683-0.224-0.905-0.502l0,0l-3.571-4.495h-2.971l-3.575,4.495
								c-0.22,0.275-0.552,0.46-0.903,0.502l0,0c-2.831,0.323-5.603,0.875-8.277,1.637l0,0c-0.343,0.095-0.713,0.053-1.023-0.12l0,0
								l-5.013-2.777l-2.741,1.135l-1.581,5.515c-0.098,0.346-0.331,0.637-0.64,0.808l0,0c-2.468,1.376-4.811,2.947-7.007,4.69l0,0
								c-0.275,0.221-0.64,0.324-0.991,0.285l0,0l-5.712-0.654l-2.099,2.1l0.655,5.709c0.038,0.354-0.066,0.714-0.282,0.995l0,0
								c-1.749,2.197-3.315,4.538-4.691,7.007l0,0c-0.177,0.311-0.466,0.543-0.807,0.641l0,0l-5.521,1.582l-1.133,2.74l2.779,5.012
								c0.172,0.311,0.213,0.682,0.113,1.023l0,0c-0.76,2.674-1.307,5.441-1.634,8.277l0,0c-0.039,0.354-0.226,0.682-0.503,0.902
								l0,0l-4.495,3.574v2.971l4.495,3.574c0.277,0.221,0.464,0.549,0.503,0.904l0,0c0.327,2.834,0.871,5.602,1.634,8.277l0,0
								c0.098,0.34,0.059,0.711-0.113,1.025l0,0l-2.779,5.008l1.136,2.738l5.516,1.586c0.341,0.1,0.629,0.326,0.807,0.639l0,0
								c1.374,2.473,2.944,4.809,4.691,7.008l0,0c0.215,0.277,0.32,0.637,0.282,0.994l0,0l-0.655,5.707l2.099,2.104l5.712-0.656
								c0.351-0.037,0.716,0.066,0.993,0.287l0,0c2.194,1.744,4.537,3.311,7.006,4.691l0,0c0.31,0.17,0.541,0.463,0.64,0.805l0,0
								l1.581,5.514l2.741,1.139l5.012-2.775c0.197-0.113,0.426-0.172,0.656-0.172l0,0C28.924,109.146,29.047,109.162,29.17,109.199
								L29.17,109.199z"/>
						</defs>
						<clipPath id="SVGID_4_">
							<use xlink:href="#SVGID_2_"  overflow="visible"/>
						</clipPath>
						<g clip-path="url(#SVGID_4_)">
							<path fill="#231F20" d="M97.404,65.002l2.271-1.643c0.166-0.121,0.301-0.289,0.382-0.482l0.277-0.672
								c0.188-0.469,0.05-1.006-0.348-1.314L98.4,59.65c-0.2-0.154-0.44-0.238-0.691-0.238h-3.634c-0.614,0-1.112,0.488-1.128,1.102
								c-0.009,0.621-0.039,1.252-0.076,1.871c-0.003,0.025-0.003,0.047-0.003,0.068c0,0.344,0.157,0.672,0.428,0.887l2.07,1.637
								c0.202,0.156,0.447,0.244,0.7,0.244h0.676C96.979,65.219,97.206,65.143,97.404,65.002z"/>
						</g>
					</g>
					<g>
						<defs>
							<path id="SVGID_5_" d="M29.17,109.199c2.676,0.766,5.444,1.312,8.277,1.633l0,0c0.352,0.045,0.683,0.223,0.903,0.506l0,0
								l3.575,4.494h2.97l3.574-4.494c0.223-0.283,0.546-0.461,0.902-0.506l0,0c2.841-0.322,5.604-0.867,8.28-1.633l0,0
								c0.344-0.092,0.715-0.053,1.026,0.119l0,0l5.011,2.775l2.735-1.135l1.584-5.518c0.101-0.338,0.329-0.633,0.643-0.805l0,0
								c2.471-1.377,4.807-2.945,7.005-4.691l0,0c0.277-0.221,0.64-0.324,0.993-0.283l0,0l5.711,0.652l2.1-2.1l-0.646-5.709
								c-0.049-0.355,0.054-0.717,0.279-0.994l0,0c1.74-2.197,3.315-4.535,4.686-7.008l0,0c0.175-0.311,0.467-0.541,0.807-0.637l0,0
								l5.521-1.588l1.132-2.74l-2.78-5.006c-0.167-0.314-0.212-0.684-0.112-1.027l0,0c0.758-2.676,1.313-5.441,1.631-8.275l0,0
								c0.044-0.354,0.231-0.686,0.499-0.904l0,0l4.5-3.572v-2.973l-4.5-3.576c-0.268-0.223-0.458-0.551-0.499-0.902l0,0
								c-0.318-2.836-0.873-5.604-1.631-8.277l0,0c-0.097-0.34-0.053-0.713,0.112-1.023l0,0l2.78-5.012l-1.132-2.739l-5.521-1.583
								c-0.34-0.098-0.632-0.328-0.807-0.641l0,0c-1.37-2.469-2.945-4.809-4.686-7.007l0,0c-0.223-0.282-0.328-0.639-0.279-0.995
								l0,0l0.646-5.709l-2.095-2.1l-5.713,0.654c-0.355,0.038-0.719-0.064-0.994-0.285l0,0c-2.197-1.743-4.535-3.312-7.004-4.69
								l0,0c-0.314-0.171-0.542-0.462-0.646-0.808l0,0l-1.581-5.515l-2.738-1.135l-5.011,2.777c-0.312,0.173-0.681,0.215-1.026,0.12
								l0,0c-2.674-0.76-5.437-1.314-8.277-1.637l0,0c-0.357-0.042-0.683-0.224-0.905-0.502l0,0l-3.571-4.495h-2.971l-3.575,4.495
								c-0.22,0.275-0.552,0.46-0.903,0.502l0,0c-2.831,0.323-5.603,0.875-8.277,1.637l0,0c-0.343,0.095-0.713,0.053-1.023-0.12l0,0
								l-5.013-2.777l-2.741,1.135l-1.581,5.515c-0.098,0.346-0.331,0.637-0.64,0.808l0,0c-2.468,1.376-4.811,2.947-7.007,4.69l0,0
								c-0.275,0.221-0.64,0.324-0.991,0.285l0,0l-5.712-0.654l-2.099,2.1l0.655,5.709c0.038,0.354-0.066,0.714-0.282,0.995l0,0
								c-1.749,2.197-3.315,4.538-4.691,7.007l0,0c-0.177,0.311-0.466,0.543-0.807,0.641l0,0l-5.521,1.582l-1.133,2.74l2.779,5.012
								c0.172,0.311,0.213,0.682,0.113,1.023l0,0c-0.76,2.674-1.307,5.441-1.634,8.277l0,0c-0.039,0.354-0.226,0.682-0.503,0.902
								l0,0l-4.495,3.574v2.971l4.495,3.574c0.277,0.221,0.464,0.549,0.503,0.904l0,0c0.327,2.834,0.871,5.602,1.634,8.277l0,0
								c0.098,0.34,0.059,0.711-0.113,1.025l0,0l-2.779,5.008l1.136,2.738l5.516,1.586c0.341,0.1,0.629,0.326,0.807,0.639l0,0
								c1.374,2.473,2.944,4.809,4.691,7.008l0,0c0.215,0.277,0.32,0.637,0.282,0.994l0,0l-0.655,5.707l2.099,2.104l5.712-0.656
								c0.351-0.037,0.716,0.066,0.993,0.287l0,0c2.194,1.744,4.537,3.311,7.006,4.691l0,0c0.31,0.17,0.541,0.463,0.64,0.805l0,0
								l1.581,5.514l2.741,1.139l5.012-2.775c0.197-0.113,0.426-0.172,0.656-0.172l0,0C28.924,109.146,29.047,109.162,29.17,109.199
								L29.17,109.199z"/>
						</defs>
						<clipPath id="SVGID_6_">
							<use xlink:href="#SVGID_5_"  overflow="visible"/>
						</clipPath>
						<g clip-path="url(#SVGID_6_)">
							<path fill="#A7A9AC" d="M95.482,43.875l1.475-2.391c0.106-0.177,0.168-0.382,0.168-0.589v-0.729
								c0-0.504-0.339-0.949-0.826-1.083l-1.938-0.537c-0.243-0.066-0.495-0.053-0.731,0.044l-3.353,1.392
								c-0.569,0.233-0.841,0.877-0.624,1.446c0.232,0.582,0.442,1.171,0.651,1.761c0,0.021,0.008,0.043,0.021,0.066
								c0.127,0.316,0.403,0.555,0.731,0.648l2.545,0.719c0.247,0.07,0.498,0.055,0.737-0.039l0.621-0.26
								C95.172,44.234,95.363,44.076,95.482,43.875z"/>
						</g>
					</g>
					<g>
						<defs>
							<path id="SVGID_7_" d="M29.17,109.199c2.676,0.766,5.444,1.312,8.277,1.633l0,0c0.352,0.045,0.683,0.223,0.903,0.506l0,0
								l3.575,4.494h2.97l3.574-4.494c0.223-0.283,0.546-0.461,0.902-0.506l0,0c2.841-0.322,5.604-0.867,8.28-1.633l0,0
								c0.344-0.092,0.715-0.053,1.026,0.119l0,0l5.011,2.775l2.735-1.135l1.584-5.518c0.101-0.338,0.329-0.633,0.643-0.805l0,0
								c2.471-1.377,4.807-2.945,7.005-4.691l0,0c0.277-0.221,0.64-0.324,0.993-0.283l0,0l5.711,0.652l2.1-2.1l-0.646-5.709
								c-0.049-0.355,0.054-0.717,0.279-0.994l0,0c1.74-2.197,3.315-4.535,4.686-7.008l0,0c0.175-0.311,0.467-0.541,0.807-0.637l0,0
								l5.521-1.588l1.132-2.74l-2.78-5.006c-0.167-0.314-0.212-0.684-0.112-1.027l0,0c0.758-2.676,1.313-5.441,1.631-8.275l0,0
								c0.044-0.354,0.231-0.686,0.499-0.904l0,0l4.5-3.572v-2.973l-4.5-3.576c-0.268-0.223-0.458-0.551-0.499-0.902l0,0
								c-0.318-2.836-0.873-5.604-1.631-8.277l0,0c-0.097-0.34-0.053-0.713,0.112-1.023l0,0l2.78-5.012l-1.132-2.739l-5.521-1.583
								c-0.34-0.098-0.632-0.328-0.807-0.641l0,0c-1.37-2.469-2.945-4.809-4.686-7.007l0,0c-0.223-0.282-0.328-0.639-0.279-0.995
								l0,0l0.646-5.709l-2.095-2.1l-5.713,0.654c-0.355,0.038-0.719-0.064-0.994-0.285l0,0c-2.197-1.743-4.535-3.312-7.004-4.69
								l0,0c-0.314-0.171-0.542-0.462-0.646-0.808l0,0l-1.581-5.515l-2.738-1.135l-5.011,2.777c-0.312,0.173-0.681,0.215-1.026,0.12
								l0,0c-2.674-0.76-5.437-1.314-8.277-1.637l0,0c-0.357-0.042-0.683-0.224-0.905-0.502l0,0l-3.571-4.495h-2.971l-3.575,4.495
								c-0.22,0.275-0.552,0.46-0.903,0.502l0,0c-2.831,0.323-5.603,0.875-8.277,1.637l0,0c-0.343,0.095-0.713,0.053-1.023-0.12l0,0
								l-5.013-2.777l-2.741,1.135l-1.581,5.515c-0.098,0.346-0.331,0.637-0.64,0.808l0,0c-2.468,1.376-4.811,2.947-7.007,4.69l0,0
								c-0.275,0.221-0.64,0.324-0.991,0.285l0,0l-5.712-0.654l-2.099,2.1l0.655,5.709c0.038,0.354-0.066,0.714-0.282,0.995l0,0
								c-1.749,2.197-3.315,4.538-4.691,7.007l0,0c-0.177,0.311-0.466,0.543-0.807,0.641l0,0l-5.521,1.582l-1.133,2.74l2.779,5.012
								c0.172,0.311,0.213,0.682,0.113,1.023l0,0c-0.76,2.674-1.307,5.441-1.634,8.277l0,0c-0.039,0.354-0.226,0.682-0.503,0.902
								l0,0l-4.495,3.574v2.971l4.495,3.574c0.277,0.221,0.464,0.549,0.503,0.904l0,0c0.327,2.834,0.871,5.602,1.634,8.277l0,0
								c0.098,0.34,0.059,0.711-0.113,1.025l0,0l-2.779,5.008l1.136,2.738l5.516,1.586c0.341,0.1,0.629,0.326,0.807,0.639l0,0
								c1.374,2.473,2.944,4.809,4.691,7.008l0,0c0.215,0.277,0.32,0.637,0.282,0.994l0,0l-0.655,5.707l2.099,2.104l5.712-0.656
								c0.351-0.037,0.716,0.066,0.993,0.287l0,0c2.194,1.744,4.537,3.311,7.006,4.691l0,0c0.31,0.17,0.541,0.463,0.64,0.805l0,0
								l1.581,5.514l2.741,1.139l5.012-2.775c0.197-0.113,0.426-0.172,0.656-0.172l0,0C28.924,109.146,29.047,109.162,29.17,109.199
								L29.17,109.199z"/>
						</defs>
						<clipPath id="SVGID_8_">
							<use xlink:href="#SVGID_7_"  overflow="visible"/>
						</clipPath>
						<g clip-path="url(#SVGID_8_)">
							<path fill="#A7A9AC" d="M85.634,25.09l0.445-2.775c0.036-0.205,0.011-0.417-0.066-0.609l-0.283-0.672
								c-0.196-0.465-0.673-0.748-1.181-0.683l-1.993,0.246c-0.249,0.029-0.479,0.146-0.659,0.322l-2.57,2.571
								c-0.429,0.432-0.439,1.128-0.017,1.573c0.431,0.454,0.86,0.915,1.274,1.379c0.009,0.015,0.025,0.032,0.039,0.05
								c0.242,0.244,0.58,0.36,0.93,0.324l2.625-0.308c0.247-0.03,0.481-0.143,0.665-0.321l0.475-0.474
								C85.484,25.543,85.6,25.321,85.634,25.09z"/>
						</g>
					</g>
					<g>
						<defs>
							<path id="SVGID_9_" d="M29.17,109.199c2.676,0.766,5.444,1.312,8.277,1.633l0,0c0.352,0.045,0.683,0.223,0.903,0.506l0,0
								l3.575,4.494h2.97l3.574-4.494c0.223-0.283,0.546-0.461,0.902-0.506l0,0c2.841-0.322,5.604-0.867,8.28-1.633l0,0
								c0.344-0.092,0.715-0.053,1.026,0.119l0,0l5.011,2.775l2.735-1.135l1.584-5.518c0.101-0.338,0.329-0.633,0.643-0.805l0,0
								c2.471-1.377,4.807-2.945,7.005-4.691l0,0c0.277-0.221,0.64-0.324,0.993-0.283l0,0l5.711,0.652l2.1-2.1l-0.646-5.709
								c-0.049-0.355,0.054-0.717,0.279-0.994l0,0c1.74-2.197,3.315-4.535,4.686-7.008l0,0c0.175-0.311,0.467-0.541,0.807-0.637l0,0
								l5.521-1.588l1.132-2.74l-2.78-5.006c-0.167-0.314-0.212-0.684-0.112-1.027l0,0c0.758-2.676,1.313-5.441,1.631-8.275l0,0
								c0.044-0.354,0.231-0.686,0.499-0.904l0,0l4.5-3.572v-2.973l-4.5-3.576c-0.268-0.223-0.458-0.551-0.499-0.902l0,0
								c-0.318-2.836-0.873-5.604-1.631-8.277l0,0c-0.097-0.34-0.053-0.713,0.112-1.023l0,0l2.78-5.012l-1.132-2.739l-5.521-1.583
								c-0.34-0.098-0.632-0.328-0.807-0.641l0,0c-1.37-2.469-2.945-4.809-4.686-7.007l0,0c-0.223-0.282-0.328-0.639-0.279-0.995
								l0,0l0.646-5.709l-2.095-2.1l-5.713,0.654c-0.355,0.038-0.719-0.064-0.994-0.285l0,0c-2.197-1.743-4.535-3.312-7.004-4.69
								l0,0c-0.314-0.171-0.542-0.462-0.646-0.808l0,0l-1.581-5.515l-2.738-1.135l-5.011,2.777c-0.312,0.173-0.681,0.215-1.026,0.12
								l0,0c-2.674-0.76-5.437-1.314-8.277-1.637l0,0c-0.357-0.042-0.683-0.224-0.905-0.502l0,0l-3.571-4.495h-2.971l-3.575,4.495
								c-0.22,0.275-0.552,0.46-0.903,0.502l0,0c-2.831,0.323-5.603,0.875-8.277,1.637l0,0c-0.343,0.095-0.713,0.053-1.023-0.12l0,0
								l-5.013-2.777l-2.741,1.135l-1.581,5.515c-0.098,0.346-0.331,0.637-0.64,0.808l0,0c-2.468,1.376-4.811,2.947-7.007,4.69l0,0
								c-0.275,0.221-0.64,0.324-0.991,0.285l0,0l-5.712-0.654l-2.099,2.1l0.655,5.709c0.038,0.354-0.066,0.714-0.282,0.995l0,0
								c-1.749,2.197-3.315,4.538-4.691,7.007l0,0c-0.177,0.311-0.466,0.543-0.807,0.641l0,0l-5.521,1.582l-1.133,2.74l2.779,5.012
								c0.172,0.311,0.213,0.682,0.113,1.023l0,0c-0.76,2.674-1.307,5.441-1.634,8.277l0,0c-0.039,0.354-0.226,0.682-0.503,0.902
								l0,0l-4.495,3.574v2.971l4.495,3.574c0.277,0.221,0.464,0.549,0.503,0.904l0,0c0.327,2.834,0.871,5.602,1.634,8.277l0,0
								c0.098,0.34,0.059,0.711-0.113,1.025l0,0l-2.779,5.008l1.136,2.738l5.516,1.586c0.341,0.1,0.629,0.326,0.807,0.639l0,0
								c1.374,2.473,2.944,4.809,4.691,7.008l0,0c0.215,0.277,0.32,0.637,0.282,0.994l0,0l-0.655,5.707l2.099,2.104l5.712-0.656
								c0.351-0.037,0.716,0.066,0.993,0.287l0,0c2.194,1.744,4.537,3.311,7.006,4.691l0,0c0.31,0.17,0.541,0.463,0.64,0.805l0,0
								l1.581,5.514l2.741,1.139l5.012-2.775c0.197-0.113,0.426-0.172,0.656-0.172l0,0C28.924,109.146,29.047,109.162,29.17,109.199
								L29.17,109.199z"/>
						</defs>
						<clipPath id="SVGID_10_">
							<use xlink:href="#SVGID_9_"  overflow="visible"/>
						</clipPath>
						<g clip-path="url(#SVGID_10_)">
							<path fill="#A7A9AC" d="M69.351,11.504l-0.657-2.732c-0.043-0.203-0.15-0.389-0.302-0.535l-0.516-0.517
								c-0.355-0.357-0.907-0.432-1.348-0.18l-1.752,0.992c-0.214,0.123-0.392,0.316-0.48,0.55L62.9,12.438
								c-0.234,0.567,0.025,1.215,0.586,1.461c0.571,0.25,1.141,0.516,1.707,0.789c0.018,0.01,0.036,0.02,0.055,0.029
								c0.317,0.13,0.68,0.114,0.985-0.056l2.301-1.289c0.226-0.124,0.397-0.316,0.486-0.551l0.262-0.623
								C69.375,11.978,69.399,11.731,69.351,11.504z"/>
						</g>
					</g>
					<g>
						<defs>
							<path id="SVGID_11_" d="M29.17,109.199c2.676,0.766,5.444,1.312,8.277,1.633l0,0c0.352,0.045,0.683,0.223,0.903,0.506l0,0
								l3.575,4.494h2.97l3.574-4.494c0.223-0.283,0.546-0.461,0.902-0.506l0,0c2.841-0.322,5.604-0.867,8.28-1.633l0,0
								c0.344-0.092,0.715-0.053,1.026,0.119l0,0l5.011,2.775l2.735-1.135l1.584-5.518c0.101-0.338,0.329-0.633,0.643-0.805l0,0
								c2.471-1.377,4.807-2.945,7.005-4.691l0,0c0.277-0.221,0.64-0.324,0.993-0.283l0,0l5.711,0.652l2.1-2.1l-0.646-5.709
								c-0.049-0.355,0.054-0.717,0.279-0.994l0,0c1.74-2.197,3.315-4.535,4.686-7.008l0,0c0.175-0.311,0.467-0.541,0.807-0.637l0,0
								l5.521-1.588l1.132-2.74l-2.78-5.006c-0.167-0.314-0.212-0.684-0.112-1.027l0,0c0.758-2.676,1.313-5.441,1.631-8.275l0,0
								c0.044-0.354,0.231-0.686,0.499-0.904l0,0l4.5-3.572v-2.973l-4.5-3.576c-0.268-0.223-0.458-0.551-0.499-0.902l0,0
								c-0.318-2.836-0.873-5.604-1.631-8.277l0,0c-0.097-0.34-0.053-0.713,0.112-1.023l0,0l2.78-5.012l-1.132-2.739l-5.521-1.583
								c-0.34-0.098-0.632-0.328-0.807-0.641l0,0c-1.37-2.469-2.945-4.809-4.686-7.007l0,0c-0.223-0.282-0.328-0.639-0.279-0.995
								l0,0l0.646-5.709l-2.095-2.1l-5.713,0.654c-0.355,0.038-0.719-0.064-0.994-0.285l0,0c-2.197-1.743-4.535-3.312-7.004-4.69
								l0,0c-0.314-0.171-0.542-0.462-0.646-0.808l0,0l-1.581-5.515l-2.738-1.135l-5.011,2.777c-0.312,0.173-0.681,0.215-1.026,0.12
								l0,0c-2.674-0.76-5.437-1.314-8.277-1.637l0,0c-0.357-0.042-0.683-0.224-0.905-0.502l0,0l-3.571-4.495h-2.971l-3.575,4.495
								c-0.22,0.275-0.552,0.46-0.903,0.502l0,0c-2.831,0.323-5.603,0.875-8.277,1.637l0,0c-0.343,0.095-0.713,0.053-1.023-0.12l0,0
								l-5.013-2.777l-2.741,1.135l-1.581,5.515c-0.098,0.346-0.331,0.637-0.64,0.808l0,0c-2.468,1.376-4.811,2.947-7.007,4.69l0,0
								c-0.275,0.221-0.64,0.324-0.991,0.285l0,0l-5.712-0.654l-2.099,2.1l0.655,5.709c0.038,0.354-0.066,0.714-0.282,0.995l0,0
								c-1.749,2.197-3.315,4.538-4.691,7.007l0,0c-0.177,0.311-0.466,0.543-0.807,0.641l0,0l-5.521,1.582l-1.133,2.74l2.779,5.012
								c0.172,0.311,0.213,0.682,0.113,1.023l0,0c-0.76,2.674-1.307,5.441-1.634,8.277l0,0c-0.039,0.354-0.226,0.682-0.503,0.902
								l0,0l-4.495,3.574v2.971l4.495,3.574c0.277,0.221,0.464,0.549,0.503,0.904l0,0c0.327,2.834,0.871,5.602,1.634,8.277l0,0
								c0.098,0.34,0.059,0.711-0.113,1.025l0,0l-2.779,5.008l1.136,2.738l5.516,1.586c0.341,0.1,0.629,0.326,0.807,0.639l0,0
								c1.374,2.473,2.944,4.809,4.691,7.008l0,0c0.215,0.277,0.32,0.637,0.282,0.994l0,0l-0.655,5.707l2.099,2.104l5.712-0.656
								c0.351-0.037,0.716,0.066,0.993,0.287l0,0c2.194,1.744,4.537,3.311,7.006,4.691l0,0c0.31,0.17,0.541,0.463,0.64,0.805l0,0
								l1.581,5.514l2.741,1.139l5.012-2.775c0.197-0.113,0.426-0.172,0.656-0.172l0,0C28.924,109.146,29.047,109.162,29.17,109.199
								L29.17,109.199z"/>
						</defs>
						<clipPath id="SVGID_12_">
							<use xlink:href="#SVGID_11_"  overflow="visible"/>
						</clipPath>
						<g clip-path="url(#SVGID_12_)">
							<path fill="#A7A9AC" d="M49.096,5.184L47.45,2.908c-0.125-0.168-0.295-0.298-0.48-0.379L46.293,2.25
								c-0.464-0.191-1.007-0.052-1.318,0.348l-1.235,1.587c-0.15,0.196-0.24,0.44-0.24,0.692v3.635c0,0.612,0.49,1.112,1.099,1.125
								c0.628,0.014,1.252,0.041,1.877,0.076c0.023,0.002,0.045,0.002,0.067,0.002c0.344,0,0.671-0.153,0.88-0.425l1.642-2.076
								c0.16-0.198,0.242-0.441,0.242-0.696V5.847C49.306,5.609,49.229,5.377,49.096,5.184z"/>
						</g>
					</g>
					<g>
						<defs>
							<path id="SVGID_13_" d="M29.17,109.199c2.676,0.766,5.444,1.312,8.277,1.633l0,0c0.352,0.045,0.683,0.223,0.903,0.506l0,0
								l3.575,4.494h2.97l3.574-4.494c0.223-0.283,0.546-0.461,0.902-0.506l0,0c2.841-0.322,5.604-0.867,8.28-1.633l0,0
								c0.344-0.092,0.715-0.053,1.026,0.119l0,0l5.011,2.775l2.735-1.135l1.584-5.518c0.101-0.338,0.329-0.633,0.643-0.805l0,0
								c2.471-1.377,4.807-2.945,7.005-4.691l0,0c0.277-0.221,0.64-0.324,0.993-0.283l0,0l5.711,0.652l2.1-2.1l-0.646-5.709
								c-0.049-0.355,0.054-0.717,0.279-0.994l0,0c1.74-2.197,3.315-4.535,4.686-7.008l0,0c0.175-0.311,0.467-0.541,0.807-0.637l0,0
								l5.521-1.588l1.132-2.74l-2.78-5.006c-0.167-0.314-0.212-0.684-0.112-1.027l0,0c0.758-2.676,1.313-5.441,1.631-8.275l0,0
								c0.044-0.354,0.231-0.686,0.499-0.904l0,0l4.5-3.572v-2.973l-4.5-3.576c-0.268-0.223-0.458-0.551-0.499-0.902l0,0
								c-0.318-2.836-0.873-5.604-1.631-8.277l0,0c-0.097-0.34-0.053-0.713,0.112-1.023l0,0l2.78-5.012l-1.132-2.739l-5.521-1.583
								c-0.34-0.098-0.632-0.328-0.807-0.641l0,0c-1.37-2.469-2.945-4.809-4.686-7.007l0,0c-0.223-0.282-0.328-0.639-0.279-0.995
								l0,0l0.646-5.709l-2.095-2.1l-5.713,0.654c-0.355,0.038-0.719-0.064-0.994-0.285l0,0c-2.197-1.743-4.535-3.312-7.004-4.69
								l0,0c-0.314-0.171-0.542-0.462-0.646-0.808l0,0l-1.581-5.515l-2.738-1.135l-5.011,2.777c-0.312,0.173-0.681,0.215-1.026,0.12
								l0,0c-2.674-0.76-5.437-1.314-8.277-1.637l0,0c-0.357-0.042-0.683-0.224-0.905-0.502l0,0l-3.571-4.495h-2.971l-3.575,4.495
								c-0.22,0.275-0.552,0.46-0.903,0.502l0,0c-2.831,0.323-5.603,0.875-8.277,1.637l0,0c-0.343,0.095-0.713,0.053-1.023-0.12l0,0
								l-5.013-2.777l-2.741,1.135l-1.581,5.515c-0.098,0.346-0.331,0.637-0.64,0.808l0,0c-2.468,1.376-4.811,2.947-7.007,4.69l0,0
								c-0.275,0.221-0.64,0.324-0.991,0.285l0,0l-5.712-0.654l-2.099,2.1l0.655,5.709c0.038,0.354-0.066,0.714-0.282,0.995l0,0
								c-1.749,2.197-3.315,4.538-4.691,7.007l0,0c-0.177,0.311-0.466,0.543-0.807,0.641l0,0l-5.521,1.582l-1.133,2.74l2.779,5.012
								c0.172,0.311,0.213,0.682,0.113,1.023l0,0c-0.76,2.674-1.307,5.441-1.634,8.277l0,0c-0.039,0.354-0.226,0.682-0.503,0.902
								l0,0l-4.495,3.574v2.971l4.495,3.574c0.277,0.221,0.464,0.549,0.503,0.904l0,0c0.327,2.834,0.871,5.602,1.634,8.277l0,0
								c0.098,0.34,0.059,0.711-0.113,1.025l0,0l-2.779,5.008l1.136,2.738l5.516,1.586c0.341,0.1,0.629,0.326,0.807,0.639l0,0
								c1.374,2.473,2.944,4.809,4.691,7.008l0,0c0.215,0.277,0.32,0.637,0.282,0.994l0,0l-0.655,5.707l2.099,2.104l5.712-0.656
								c0.351-0.037,0.716,0.066,0.993,0.287l0,0c2.194,1.744,4.537,3.311,7.006,4.691l0,0c0.31,0.17,0.541,0.463,0.64,0.805l0,0
								l1.581,5.514l2.741,1.139l5.012-2.775c0.197-0.113,0.426-0.172,0.656-0.172l0,0C28.924,109.146,29.047,109.162,29.17,109.199
								L29.17,109.199z"/>
						</defs>
						<clipPath id="SVGID_14_">
							<use xlink:href="#SVGID_13_"  overflow="visible"/>
						</clipPath>
						<g clip-path="url(#SVGID_14_)">
							<path fill="#A7A9AC" d="M27.969,7.098l-2.394-1.471c-0.178-0.109-0.378-0.168-0.59-0.168h-0.728
								c-0.504,0.001-0.949,0.339-1.084,0.825l-0.537,1.94c-0.062,0.246-0.049,0.5,0.046,0.733l1.392,3.361
								c0.235,0.563,0.876,0.835,1.444,0.616c0.588-0.228,1.175-0.443,1.762-0.646c0.023-0.009,0.043-0.017,0.062-0.024
								c0.32-0.134,0.562-0.399,0.657-0.734l0.719-2.543c0.068-0.245,0.055-0.501-0.044-0.734l-0.256-0.626
								C28.327,7.408,28.165,7.222,27.969,7.098z"/>
						</g>
					</g>
					<g>
						<defs>
							<path id="SVGID_15_" d="M29.17,109.199c2.676,0.766,5.444,1.312,8.277,1.633l0,0c0.352,0.045,0.683,0.223,0.903,0.506l0,0
								l3.575,4.494h2.97l3.574-4.494c0.223-0.283,0.546-0.461,0.902-0.506l0,0c2.841-0.322,5.604-0.867,8.28-1.633l0,0
								c0.344-0.092,0.715-0.053,1.026,0.119l0,0l5.011,2.775l2.735-1.135l1.584-5.518c0.101-0.338,0.329-0.633,0.643-0.805l0,0
								c2.471-1.377,4.807-2.945,7.005-4.691l0,0c0.277-0.221,0.64-0.324,0.993-0.283l0,0l5.711,0.652l2.1-2.1l-0.646-5.709
								c-0.049-0.355,0.054-0.717,0.279-0.994l0,0c1.74-2.197,3.315-4.535,4.686-7.008l0,0c0.175-0.311,0.467-0.541,0.807-0.637l0,0
								l5.521-1.588l1.132-2.74l-2.78-5.006c-0.167-0.314-0.212-0.684-0.112-1.027l0,0c0.758-2.676,1.313-5.441,1.631-8.275l0,0
								c0.044-0.354,0.231-0.686,0.499-0.904l0,0l4.5-3.572v-2.973l-4.5-3.576c-0.268-0.223-0.458-0.551-0.499-0.902l0,0
								c-0.318-2.836-0.873-5.604-1.631-8.277l0,0c-0.097-0.34-0.053-0.713,0.112-1.023l0,0l2.78-5.012l-1.132-2.739l-5.521-1.583
								c-0.34-0.098-0.632-0.328-0.807-0.641l0,0c-1.37-2.469-2.945-4.809-4.686-7.007l0,0c-0.223-0.282-0.328-0.639-0.279-0.995
								l0,0l0.646-5.709l-2.095-2.1l-5.713,0.654c-0.355,0.038-0.719-0.064-0.994-0.285l0,0c-2.197-1.743-4.535-3.312-7.004-4.69
								l0,0c-0.314-0.171-0.542-0.462-0.646-0.808l0,0l-1.581-5.515l-2.738-1.135l-5.011,2.777c-0.312,0.173-0.681,0.215-1.026,0.12
								l0,0c-2.674-0.76-5.437-1.314-8.277-1.637l0,0c-0.357-0.042-0.683-0.224-0.905-0.502l0,0l-3.571-4.495h-2.971l-3.575,4.495
								c-0.22,0.275-0.552,0.46-0.903,0.502l0,0c-2.831,0.323-5.603,0.875-8.277,1.637l0,0c-0.343,0.095-0.713,0.053-1.023-0.12l0,0
								l-5.013-2.777l-2.741,1.135l-1.581,5.515c-0.098,0.346-0.331,0.637-0.64,0.808l0,0c-2.468,1.376-4.811,2.947-7.007,4.69l0,0
								c-0.275,0.221-0.64,0.324-0.991,0.285l0,0l-5.712-0.654l-2.099,2.1l0.655,5.709c0.038,0.354-0.066,0.714-0.282,0.995l0,0
								c-1.749,2.197-3.315,4.538-4.691,7.007l0,0c-0.177,0.311-0.466,0.543-0.807,0.641l0,0l-5.521,1.582l-1.133,2.74l2.779,5.012
								c0.172,0.311,0.213,0.682,0.113,1.023l0,0c-0.76,2.674-1.307,5.441-1.634,8.277l0,0c-0.039,0.354-0.226,0.682-0.503,0.902
								l0,0l-4.495,3.574v2.971l4.495,3.574c0.277,0.221,0.464,0.549,0.503,0.904l0,0c0.327,2.834,0.871,5.602,1.634,8.277l0,0
								c0.098,0.34,0.059,0.711-0.113,1.025l0,0l-2.779,5.008l1.136,2.738l5.516,1.586c0.341,0.1,0.629,0.326,0.807,0.639l0,0
								c1.374,2.473,2.944,4.809,4.691,7.008l0,0c0.215,0.277,0.32,0.637,0.282,0.994l0,0l-0.655,5.707l2.099,2.104l5.712-0.656
								c0.351-0.037,0.716,0.066,0.993,0.287l0,0c2.194,1.744,4.537,3.311,7.006,4.691l0,0c0.31,0.17,0.541,0.463,0.64,0.805l0,0
								l1.581,5.514l2.741,1.139l5.012-2.775c0.197-0.113,0.426-0.172,0.656-0.172l0,0C28.924,109.146,29.047,109.162,29.17,109.199
								L29.17,109.199z"/>
						</defs>
						<clipPath id="SVGID_16_">
							<use xlink:href="#SVGID_15_"  overflow="visible"/>
						</clipPath>
						<g clip-path="url(#SVGID_16_)">
							<path fill="#A7A9AC" d="M9.18,16.949l-2.775-0.441c-0.205-0.035-0.418-0.008-0.606,0.07l-0.675,0.28
								c-0.468,0.194-0.751,0.675-0.685,1.176l0.247,2c0.033,0.249,0.146,0.482,0.324,0.657l2.571,2.574
								c0.431,0.432,1.129,0.436,1.571,0.017c0.45-0.432,0.913-0.857,1.381-1.271c0.014-0.015,0.032-0.031,0.052-0.045
								c0.243-0.245,0.357-0.582,0.318-0.928l-0.308-2.626c-0.03-0.249-0.143-0.479-0.318-0.662l-0.479-0.476
								C9.629,17.101,9.412,16.987,9.18,16.949z"/>
						</g>
					</g>
					<g>
						<defs>
							<path id="SVGID_17_" d="M29.17,109.199c2.676,0.766,5.444,1.312,8.277,1.633l0,0c0.352,0.045,0.683,0.223,0.903,0.506l0,0
								l3.575,4.494h2.97l3.574-4.494c0.223-0.283,0.546-0.461,0.902-0.506l0,0c2.841-0.322,5.604-0.867,8.28-1.633l0,0
								c0.344-0.092,0.715-0.053,1.026,0.119l0,0l5.011,2.775l2.735-1.135l1.584-5.518c0.101-0.338,0.329-0.633,0.643-0.805l0,0
								c2.471-1.377,4.807-2.945,7.005-4.691l0,0c0.277-0.221,0.64-0.324,0.993-0.283l0,0l5.711,0.652l2.1-2.1l-0.646-5.709
								c-0.049-0.355,0.054-0.717,0.279-0.994l0,0c1.74-2.197,3.315-4.535,4.686-7.008l0,0c0.175-0.311,0.467-0.541,0.807-0.637l0,0
								l5.521-1.588l1.132-2.74l-2.78-5.006c-0.167-0.314-0.212-0.684-0.112-1.027l0,0c0.758-2.676,1.313-5.441,1.631-8.275l0,0
								c0.044-0.354,0.231-0.686,0.499-0.904l0,0l4.5-3.572v-2.973l-4.5-3.576c-0.268-0.223-0.458-0.551-0.499-0.902l0,0
								c-0.318-2.836-0.873-5.604-1.631-8.277l0,0c-0.097-0.34-0.053-0.713,0.112-1.023l0,0l2.78-5.012l-1.132-2.739l-5.521-1.583
								c-0.34-0.098-0.632-0.328-0.807-0.641l0,0c-1.37-2.469-2.945-4.809-4.686-7.007l0,0c-0.223-0.282-0.328-0.639-0.279-0.995
								l0,0l0.646-5.709l-2.095-2.1l-5.713,0.654c-0.355,0.038-0.719-0.064-0.994-0.285l0,0c-2.197-1.743-4.535-3.312-7.004-4.69
								l0,0c-0.314-0.171-0.542-0.462-0.646-0.808l0,0l-1.581-5.515l-2.738-1.135l-5.011,2.777c-0.312,0.173-0.681,0.215-1.026,0.12
								l0,0c-2.674-0.76-5.437-1.314-8.277-1.637l0,0c-0.357-0.042-0.683-0.224-0.905-0.502l0,0l-3.571-4.495h-2.971l-3.575,4.495
								c-0.22,0.275-0.552,0.46-0.903,0.502l0,0c-2.831,0.323-5.603,0.875-8.277,1.637l0,0c-0.343,0.095-0.713,0.053-1.023-0.12l0,0
								l-5.013-2.777l-2.741,1.135l-1.581,5.515c-0.098,0.346-0.331,0.637-0.64,0.808l0,0c-2.468,1.376-4.811,2.947-7.007,4.69l0,0
								c-0.275,0.221-0.64,0.324-0.991,0.285l0,0l-5.712-0.654l-2.099,2.1l0.655,5.709c0.038,0.354-0.066,0.714-0.282,0.995l0,0
								c-1.749,2.197-3.315,4.538-4.691,7.007l0,0c-0.177,0.311-0.466,0.543-0.807,0.641l0,0l-5.521,1.582l-1.133,2.74l2.779,5.012
								c0.172,0.311,0.213,0.682,0.113,1.023l0,0c-0.76,2.674-1.307,5.441-1.634,8.277l0,0c-0.039,0.354-0.226,0.682-0.503,0.902
								l0,0l-4.495,3.574v2.971l4.495,3.574c0.277,0.221,0.464,0.549,0.503,0.904l0,0c0.327,2.834,0.871,5.602,1.634,8.277l0,0
								c0.098,0.34,0.059,0.711-0.113,1.025l0,0l-2.779,5.008l1.136,2.738l5.516,1.586c0.341,0.1,0.629,0.326,0.807,0.639l0,0
								c1.374,2.473,2.944,4.809,4.691,7.008l0,0c0.215,0.277,0.32,0.637,0.282,0.994l0,0l-0.655,5.707l2.099,2.104l5.712-0.656
								c0.351-0.037,0.716,0.066,0.993,0.287l0,0c2.194,1.744,4.537,3.311,7.006,4.691l0,0c0.31,0.17,0.541,0.463,0.64,0.805l0,0
								l1.581,5.514l2.741,1.139l5.012-2.775c0.197-0.113,0.426-0.172,0.656-0.172l0,0C28.924,109.146,29.047,109.162,29.17,109.199
								L29.17,109.199z"/>
						</defs>
						<clipPath id="SVGID_18_">
							<use xlink:href="#SVGID_17_"  overflow="visible"/>
						</clipPath>
						<g clip-path="url(#SVGID_18_)">
							<path fill="#A7A9AC" d="M-4.405,33.241l-2.731,0.65c-0.205,0.045-0.389,0.148-0.54,0.299l-0.514,0.512
								c-0.357,0.36-0.433,0.91-0.18,1.352l0.988,1.75c0.126,0.218,0.316,0.388,0.553,0.483l3.358,1.392
								c0.563,0.234,1.215-0.024,1.456-0.584c0.256-0.572,0.517-1.144,0.791-1.702c0.012-0.019,0.021-0.039,0.028-0.062
								c0.131-0.317,0.111-0.676-0.057-0.978l-1.291-2.308c-0.121-0.219-0.315-0.391-0.55-0.492l-0.619-0.257
								C-3.934,33.207-4.177,33.189-4.405,33.241z"/>
						</g>
					</g>
					<g>
						<defs>
							<path id="SVGID_19_" d="M29.17,109.199c2.676,0.766,5.444,1.312,8.277,1.633l0,0c0.352,0.045,0.683,0.223,0.903,0.506l0,0
								l3.575,4.494h2.97l3.574-4.494c0.223-0.283,0.546-0.461,0.902-0.506l0,0c2.841-0.322,5.604-0.867,8.28-1.633l0,0
								c0.344-0.092,0.715-0.053,1.026,0.119l0,0l5.011,2.775l2.735-1.135l1.584-5.518c0.101-0.338,0.329-0.633,0.643-0.805l0,0
								c2.471-1.377,4.807-2.945,7.005-4.691l0,0c0.277-0.221,0.64-0.324,0.993-0.283l0,0l5.711,0.652l2.1-2.1l-0.646-5.709
								c-0.049-0.355,0.054-0.717,0.279-0.994l0,0c1.74-2.197,3.315-4.535,4.686-7.008l0,0c0.175-0.311,0.467-0.541,0.807-0.637l0,0
								l5.521-1.588l1.132-2.74l-2.78-5.006c-0.167-0.314-0.212-0.684-0.112-1.027l0,0c0.758-2.676,1.313-5.441,1.631-8.275l0,0
								c0.044-0.354,0.231-0.686,0.499-0.904l0,0l4.5-3.572v-2.973l-4.5-3.576c-0.268-0.223-0.458-0.551-0.499-0.902l0,0
								c-0.318-2.836-0.873-5.604-1.631-8.277l0,0c-0.097-0.34-0.053-0.713,0.112-1.023l0,0l2.78-5.012l-1.132-2.739l-5.521-1.583
								c-0.34-0.098-0.632-0.328-0.807-0.641l0,0c-1.37-2.469-2.945-4.809-4.686-7.007l0,0c-0.223-0.282-0.328-0.639-0.279-0.995
								l0,0l0.646-5.709l-2.095-2.1l-5.713,0.654c-0.355,0.038-0.719-0.064-0.994-0.285l0,0c-2.197-1.743-4.535-3.312-7.004-4.69
								l0,0c-0.314-0.171-0.542-0.462-0.646-0.808l0,0l-1.581-5.515l-2.738-1.135l-5.011,2.777c-0.312,0.173-0.681,0.215-1.026,0.12
								l0,0c-2.674-0.76-5.437-1.314-8.277-1.637l0,0c-0.357-0.042-0.683-0.224-0.905-0.502l0,0l-3.571-4.495h-2.971l-3.575,4.495
								c-0.22,0.275-0.552,0.46-0.903,0.502l0,0c-2.831,0.323-5.603,0.875-8.277,1.637l0,0c-0.343,0.095-0.713,0.053-1.023-0.12l0,0
								l-5.013-2.777l-2.741,1.135l-1.581,5.515c-0.098,0.346-0.331,0.637-0.64,0.808l0,0c-2.468,1.376-4.811,2.947-7.007,4.69l0,0
								c-0.275,0.221-0.64,0.324-0.991,0.285l0,0l-5.712-0.654l-2.099,2.1l0.655,5.709c0.038,0.354-0.066,0.714-0.282,0.995l0,0
								c-1.749,2.197-3.315,4.538-4.691,7.007l0,0c-0.177,0.311-0.466,0.543-0.807,0.641l0,0l-5.521,1.582l-1.133,2.74l2.779,5.012
								c0.172,0.311,0.213,0.682,0.113,1.023l0,0c-0.76,2.674-1.307,5.441-1.634,8.277l0,0c-0.039,0.354-0.226,0.682-0.503,0.902
								l0,0l-4.495,3.574v2.971l4.495,3.574c0.277,0.221,0.464,0.549,0.503,0.904l0,0c0.327,2.834,0.871,5.602,1.634,8.277l0,0
								c0.098,0.34,0.059,0.711-0.113,1.025l0,0l-2.779,5.008l1.136,2.738l5.516,1.586c0.341,0.1,0.629,0.326,0.807,0.639l0,0
								c1.374,2.473,2.944,4.809,4.691,7.008l0,0c0.215,0.277,0.32,0.637,0.282,0.994l0,0l-0.655,5.707l2.099,2.104l5.712-0.656
								c0.351-0.037,0.716,0.066,0.993,0.287l0,0c2.194,1.744,4.537,3.311,7.006,4.691l0,0c0.31,0.17,0.541,0.463,0.64,0.805l0,0
								l1.581,5.514l2.741,1.139l5.012-2.775c0.197-0.113,0.426-0.172,0.656-0.172l0,0C28.924,109.146,29.047,109.162,29.17,109.199
								L29.17,109.199z"/>
						</defs>
						<clipPath id="SVGID_20_">
							<use xlink:href="#SVGID_19_"  overflow="visible"/>
						</clipPath>
						<g clip-path="url(#SVGID_20_)">
							<path fill="#231F20" d="M-10.725,53.492l-2.272,1.643c-0.171,0.125-0.3,0.289-0.38,0.482l-0.28,0.674
								c-0.195,0.467-0.054,1.004,0.349,1.314l1.583,1.24c0.198,0.152,0.441,0.236,0.692,0.236h3.637
								c0.609,0,1.109-0.488,1.124-1.098c0.014-0.625,0.042-1.252,0.081-1.875c0-0.023,0-0.045,0-0.068
								c0-0.344-0.157-0.668-0.43-0.885l-2.073-1.641c-0.204-0.156-0.445-0.24-0.696-0.24h-0.676
								C-10.298,53.279-10.533,53.355-10.725,53.492z"/>
						</g>
					</g>
					<g>
						<defs>
							<path id="SVGID_21_" d="M29.17,109.199c2.676,0.766,5.444,1.312,8.277,1.633l0,0c0.352,0.045,0.683,0.223,0.903,0.506l0,0
								l3.575,4.494h2.97l3.574-4.494c0.223-0.283,0.546-0.461,0.902-0.506l0,0c2.841-0.322,5.604-0.867,8.28-1.633l0,0
								c0.344-0.092,0.715-0.053,1.026,0.119l0,0l5.011,2.775l2.735-1.135l1.584-5.518c0.101-0.338,0.329-0.633,0.643-0.805l0,0
								c2.471-1.377,4.807-2.945,7.005-4.691l0,0c0.277-0.221,0.64-0.324,0.993-0.283l0,0l5.711,0.652l2.1-2.1l-0.646-5.709
								c-0.049-0.355,0.054-0.717,0.279-0.994l0,0c1.74-2.197,3.315-4.535,4.686-7.008l0,0c0.175-0.311,0.467-0.541,0.807-0.637l0,0
								l5.521-1.588l1.132-2.74l-2.78-5.006c-0.167-0.314-0.212-0.684-0.112-1.027l0,0c0.758-2.676,1.313-5.441,1.631-8.275l0,0
								c0.044-0.354,0.231-0.686,0.499-0.904l0,0l4.5-3.572v-2.973l-4.5-3.576c-0.268-0.223-0.458-0.551-0.499-0.902l0,0
								c-0.318-2.836-0.873-5.604-1.631-8.277l0,0c-0.097-0.34-0.053-0.713,0.112-1.023l0,0l2.78-5.012l-1.132-2.739l-5.521-1.583
								c-0.34-0.098-0.632-0.328-0.807-0.641l0,0c-1.37-2.469-2.945-4.809-4.686-7.007l0,0c-0.223-0.282-0.328-0.639-0.279-0.995
								l0,0l0.646-5.709l-2.095-2.1l-5.713,0.654c-0.355,0.038-0.719-0.064-0.994-0.285l0,0c-2.197-1.743-4.535-3.312-7.004-4.69
								l0,0c-0.314-0.171-0.542-0.462-0.646-0.808l0,0l-1.581-5.515l-2.738-1.135l-5.011,2.777c-0.312,0.173-0.681,0.215-1.026,0.12
								l0,0c-2.674-0.76-5.437-1.314-8.277-1.637l0,0c-0.357-0.042-0.683-0.224-0.905-0.502l0,0l-3.571-4.495h-2.971l-3.575,4.495
								c-0.22,0.275-0.552,0.46-0.903,0.502l0,0c-2.831,0.323-5.603,0.875-8.277,1.637l0,0c-0.343,0.095-0.713,0.053-1.023-0.12l0,0
								l-5.013-2.777l-2.741,1.135l-1.581,5.515c-0.098,0.346-0.331,0.637-0.64,0.808l0,0c-2.468,1.376-4.811,2.947-7.007,4.69l0,0
								c-0.275,0.221-0.64,0.324-0.991,0.285l0,0l-5.712-0.654l-2.099,2.1l0.655,5.709c0.038,0.354-0.066,0.714-0.282,0.995l0,0
								c-1.749,2.197-3.315,4.538-4.691,7.007l0,0c-0.177,0.311-0.466,0.543-0.807,0.641l0,0l-5.521,1.582l-1.133,2.74l2.779,5.012
								c0.172,0.311,0.213,0.682,0.113,1.023l0,0c-0.76,2.674-1.307,5.441-1.634,8.277l0,0c-0.039,0.354-0.226,0.682-0.503,0.902
								l0,0l-4.495,3.574v2.971l4.495,3.574c0.277,0.221,0.464,0.549,0.503,0.904l0,0c0.327,2.834,0.871,5.602,1.634,8.277l0,0
								c0.098,0.34,0.059,0.711-0.113,1.025l0,0l-2.779,5.008l1.136,2.738l5.516,1.586c0.341,0.1,0.629,0.326,0.807,0.639l0,0
								c1.374,2.473,2.944,4.809,4.691,7.008l0,0c0.215,0.277,0.32,0.637,0.282,0.994l0,0l-0.655,5.707l2.099,2.104l5.712-0.656
								c0.351-0.037,0.716,0.066,0.993,0.287l0,0c2.194,1.744,4.537,3.311,7.006,4.691l0,0c0.31,0.17,0.541,0.463,0.64,0.805l0,0
								l1.581,5.514l2.741,1.139l5.012-2.775c0.197-0.113,0.426-0.172,0.656-0.172l0,0C28.924,109.146,29.047,109.162,29.17,109.199
								L29.17,109.199z"/>
						</defs>
						<clipPath id="SVGID_22_">
							<use xlink:href="#SVGID_21_"  overflow="visible"/>
						</clipPath>
						<g clip-path="url(#SVGID_22_)">
							<path fill="#A7A9AC" d="M95.482,74.617l1.475,2.391c0.106,0.18,0.168,0.383,0.168,0.592v0.732
								c0,0.502-0.339,0.943-0.826,1.08l-1.938,0.537c-0.243,0.066-0.495,0.049-0.731-0.045l-3.353-1.389
								c-0.569-0.236-0.841-0.879-0.624-1.451c0.232-0.578,0.442-1.17,0.651-1.758c0-0.018,0.008-0.045,0.021-0.068
								c0.127-0.314,0.403-0.555,0.731-0.65l2.545-0.719c0.247-0.068,0.498-0.053,0.737,0.045l0.621,0.254
								C95.172,74.26,95.363,74.422,95.482,74.617z"/>
						</g>
					</g>
					<g>
						<defs>
							<path id="SVGID_23_" d="M29.17,109.199c2.676,0.766,5.444,1.312,8.277,1.633l0,0c0.352,0.045,0.683,0.223,0.903,0.506l0,0
								l3.575,4.494h2.97l3.574-4.494c0.223-0.283,0.546-0.461,0.902-0.506l0,0c2.841-0.322,5.604-0.867,8.28-1.633l0,0
								c0.344-0.092,0.715-0.053,1.026,0.119l0,0l5.011,2.775l2.735-1.135l1.584-5.518c0.101-0.338,0.329-0.633,0.643-0.805l0,0
								c2.471-1.377,4.807-2.945,7.005-4.691l0,0c0.277-0.221,0.64-0.324,0.993-0.283l0,0l5.711,0.652l2.1-2.1l-0.646-5.709
								c-0.049-0.355,0.054-0.717,0.279-0.994l0,0c1.74-2.197,3.315-4.535,4.686-7.008l0,0c0.175-0.311,0.467-0.541,0.807-0.637l0,0
								l5.521-1.588l1.132-2.74l-2.78-5.006c-0.167-0.314-0.212-0.684-0.112-1.027l0,0c0.758-2.676,1.313-5.441,1.631-8.275l0,0
								c0.044-0.354,0.231-0.686,0.499-0.904l0,0l4.5-3.572v-2.973l-4.5-3.576c-0.268-0.223-0.458-0.551-0.499-0.902l0,0
								c-0.318-2.836-0.873-5.604-1.631-8.277l0,0c-0.097-0.34-0.053-0.713,0.112-1.023l0,0l2.78-5.012l-1.132-2.739l-5.521-1.583
								c-0.34-0.098-0.632-0.328-0.807-0.641l0,0c-1.37-2.469-2.945-4.809-4.686-7.007l0,0c-0.223-0.282-0.328-0.639-0.279-0.995
								l0,0l0.646-5.709l-2.095-2.1l-5.713,0.654c-0.355,0.038-0.719-0.064-0.994-0.285l0,0c-2.197-1.743-4.535-3.312-7.004-4.69
								l0,0c-0.314-0.171-0.542-0.462-0.646-0.808l0,0l-1.581-5.515l-2.738-1.135l-5.011,2.777c-0.312,0.173-0.681,0.215-1.026,0.12
								l0,0c-2.674-0.76-5.437-1.314-8.277-1.637l0,0c-0.357-0.042-0.683-0.224-0.905-0.502l0,0l-3.571-4.495h-2.971l-3.575,4.495
								c-0.22,0.275-0.552,0.46-0.903,0.502l0,0c-2.831,0.323-5.603,0.875-8.277,1.637l0,0c-0.343,0.095-0.713,0.053-1.023-0.12l0,0
								l-5.013-2.777l-2.741,1.135l-1.581,5.515c-0.098,0.346-0.331,0.637-0.64,0.808l0,0c-2.468,1.376-4.811,2.947-7.007,4.69l0,0
								c-0.275,0.221-0.64,0.324-0.991,0.285l0,0l-5.712-0.654l-2.099,2.1l0.655,5.709c0.038,0.354-0.066,0.714-0.282,0.995l0,0
								c-1.749,2.197-3.315,4.538-4.691,7.007l0,0c-0.177,0.311-0.466,0.543-0.807,0.641l0,0l-5.521,1.582l-1.133,2.74l2.779,5.012
								c0.172,0.311,0.213,0.682,0.113,1.023l0,0c-0.76,2.674-1.307,5.441-1.634,8.277l0,0c-0.039,0.354-0.226,0.682-0.503,0.902
								l0,0l-4.495,3.574v2.971l4.495,3.574c0.277,0.221,0.464,0.549,0.503,0.904l0,0c0.327,2.834,0.871,5.602,1.634,8.277l0,0
								c0.098,0.34,0.059,0.711-0.113,1.025l0,0l-2.779,5.008l1.136,2.738l5.516,1.586c0.341,0.1,0.629,0.326,0.807,0.639l0,0
								c1.374,2.473,2.944,4.809,4.691,7.008l0,0c0.215,0.277,0.32,0.637,0.282,0.994l0,0l-0.655,5.707l2.099,2.104l5.712-0.656
								c0.351-0.037,0.716,0.066,0.993,0.287l0,0c2.194,1.744,4.537,3.311,7.006,4.691l0,0c0.31,0.17,0.541,0.463,0.64,0.805l0,0
								l1.581,5.514l2.741,1.139l5.012-2.775c0.197-0.113,0.426-0.172,0.656-0.172l0,0C28.924,109.146,29.047,109.162,29.17,109.199
								L29.17,109.199z"/>
						</defs>
						<clipPath id="SVGID_24_">
							<use xlink:href="#SVGID_23_"  overflow="visible"/>
						</clipPath>
						<g clip-path="url(#SVGID_24_)">
							<path fill="#A7A9AC" d="M85.634,93.402l0.445,2.773c0.036,0.207,0.011,0.418-0.066,0.609l-0.283,0.674
								c-0.196,0.471-0.673,0.752-1.181,0.686l-1.993-0.246c-0.249-0.035-0.479-0.148-0.659-0.322l-2.57-2.572
								c-0.429-0.432-0.439-1.129-0.017-1.574c0.431-0.445,0.86-0.912,1.274-1.379c0.009-0.014,0.025-0.037,0.039-0.051
								c0.242-0.24,0.58-0.361,0.93-0.32l2.625,0.307c0.247,0.029,0.481,0.143,0.665,0.322l0.475,0.477
								C85.484,92.959,85.6,93.17,85.634,93.402z"/>
						</g>
					</g>
					<g>
						<defs>
							<path id="SVGID_25_" d="M29.17,109.199c2.676,0.766,5.444,1.312,8.277,1.633l0,0c0.352,0.045,0.683,0.223,0.903,0.506l0,0
								l3.575,4.494h2.97l3.574-4.494c0.223-0.283,0.546-0.461,0.902-0.506l0,0c2.841-0.322,5.604-0.867,8.28-1.633l0,0
								c0.344-0.092,0.715-0.053,1.026,0.119l0,0l5.011,2.775l2.735-1.135l1.584-5.518c0.101-0.338,0.329-0.633,0.643-0.805l0,0
								c2.471-1.377,4.807-2.945,7.005-4.691l0,0c0.277-0.221,0.64-0.324,0.993-0.283l0,0l5.711,0.652l2.1-2.1l-0.646-5.709
								c-0.049-0.355,0.054-0.717,0.279-0.994l0,0c1.74-2.197,3.315-4.535,4.686-7.008l0,0c0.175-0.311,0.467-0.541,0.807-0.637l0,0
								l5.521-1.588l1.132-2.74l-2.78-5.006c-0.167-0.314-0.212-0.684-0.112-1.027l0,0c0.758-2.676,1.313-5.441,1.631-8.275l0,0
								c0.044-0.354,0.231-0.686,0.499-0.904l0,0l4.5-3.572v-2.973l-4.5-3.576c-0.268-0.223-0.458-0.551-0.499-0.902l0,0
								c-0.318-2.836-0.873-5.604-1.631-8.277l0,0c-0.097-0.34-0.053-0.713,0.112-1.023l0,0l2.78-5.012l-1.132-2.739l-5.521-1.583
								c-0.34-0.098-0.632-0.328-0.807-0.641l0,0c-1.37-2.469-2.945-4.809-4.686-7.007l0,0c-0.223-0.282-0.328-0.639-0.279-0.995
								l0,0l0.646-5.709l-2.095-2.1l-5.713,0.654c-0.355,0.038-0.719-0.064-0.994-0.285l0,0c-2.197-1.743-4.535-3.312-7.004-4.69
								l0,0c-0.314-0.171-0.542-0.462-0.646-0.808l0,0l-1.581-5.515l-2.738-1.135l-5.011,2.777c-0.312,0.173-0.681,0.215-1.026,0.12
								l0,0c-2.674-0.76-5.437-1.314-8.277-1.637l0,0c-0.357-0.042-0.683-0.224-0.905-0.502l0,0l-3.571-4.495h-2.971l-3.575,4.495
								c-0.22,0.275-0.552,0.46-0.903,0.502l0,0c-2.831,0.323-5.603,0.875-8.277,1.637l0,0c-0.343,0.095-0.713,0.053-1.023-0.12l0,0
								l-5.013-2.777l-2.741,1.135l-1.581,5.515c-0.098,0.346-0.331,0.637-0.64,0.808l0,0c-2.468,1.376-4.811,2.947-7.007,4.69l0,0
								c-0.275,0.221-0.64,0.324-0.991,0.285l0,0l-5.712-0.654l-2.099,2.1l0.655,5.709c0.038,0.354-0.066,0.714-0.282,0.995l0,0
								c-1.749,2.197-3.315,4.538-4.691,7.007l0,0c-0.177,0.311-0.466,0.543-0.807,0.641l0,0l-5.521,1.582l-1.133,2.74l2.779,5.012
								c0.172,0.311,0.213,0.682,0.113,1.023l0,0c-0.76,2.674-1.307,5.441-1.634,8.277l0,0c-0.039,0.354-0.226,0.682-0.503,0.902
								l0,0l-4.495,3.574v2.971l4.495,3.574c0.277,0.221,0.464,0.549,0.503,0.904l0,0c0.327,2.834,0.871,5.602,1.634,8.277l0,0
								c0.098,0.34,0.059,0.711-0.113,1.025l0,0l-2.779,5.008l1.136,2.738l5.516,1.586c0.341,0.1,0.629,0.326,0.807,0.639l0,0
								c1.374,2.473,2.944,4.809,4.691,7.008l0,0c0.215,0.277,0.32,0.637,0.282,0.994l0,0l-0.655,5.707l2.099,2.104l5.712-0.656
								c0.351-0.037,0.716,0.066,0.993,0.287l0,0c2.194,1.744,4.537,3.311,7.006,4.691l0,0c0.31,0.17,0.541,0.463,0.64,0.805l0,0
								l1.581,5.514l2.741,1.139l5.012-2.775c0.197-0.113,0.426-0.172,0.656-0.172l0,0C28.924,109.146,29.047,109.162,29.17,109.199
								L29.17,109.199z"/>
						</defs>
						<clipPath id="SVGID_26_">
							<use xlink:href="#SVGID_25_"  overflow="visible"/>
						</clipPath>
						<g clip-path="url(#SVGID_26_)">
							<path fill="#A7A9AC" d="M69.351,106.988l-0.657,2.734c-0.043,0.205-0.15,0.393-0.302,0.533l-0.516,0.521
								c-0.355,0.354-0.907,0.426-1.348,0.178l-1.752-0.988c-0.214-0.127-0.392-0.318-0.48-0.549l-1.396-3.359
								c-0.234-0.562,0.025-1.215,0.586-1.463c0.571-0.252,1.141-0.512,1.707-0.787c0.018-0.008,0.036-0.018,0.055-0.025
								c0.317-0.133,0.68-0.115,0.985,0.057l2.301,1.287c0.226,0.125,0.397,0.316,0.486,0.555l0.262,0.619
								C69.375,106.518,69.399,106.762,69.351,106.988z"/>
						</g>
					</g>
					<g>
						<defs>
							<path id="SVGID_27_" d="M29.17,109.199c2.676,0.766,5.444,1.312,8.277,1.633l0,0c0.352,0.045,0.683,0.223,0.903,0.506l0,0
								l3.575,4.494h2.97l3.574-4.494c0.223-0.283,0.546-0.461,0.902-0.506l0,0c2.841-0.322,5.604-0.867,8.28-1.633l0,0
								c0.344-0.092,0.715-0.053,1.026,0.119l0,0l5.011,2.775l2.735-1.135l1.584-5.518c0.101-0.338,0.329-0.633,0.643-0.805l0,0
								c2.471-1.377,4.807-2.945,7.005-4.691l0,0c0.277-0.221,0.64-0.324,0.993-0.283l0,0l5.711,0.652l2.1-2.1l-0.646-5.709
								c-0.049-0.355,0.054-0.717,0.279-0.994l0,0c1.74-2.197,3.315-4.535,4.686-7.008l0,0c0.175-0.311,0.467-0.541,0.807-0.637l0,0
								l5.521-1.588l1.132-2.74l-2.78-5.006c-0.167-0.314-0.212-0.684-0.112-1.027l0,0c0.758-2.676,1.313-5.441,1.631-8.275l0,0
								c0.044-0.354,0.231-0.686,0.499-0.904l0,0l4.5-3.572v-2.973l-4.5-3.576c-0.268-0.223-0.458-0.551-0.499-0.902l0,0
								c-0.318-2.836-0.873-5.604-1.631-8.277l0,0c-0.097-0.34-0.053-0.713,0.112-1.023l0,0l2.78-5.012l-1.132-2.739l-5.521-1.583
								c-0.34-0.098-0.632-0.328-0.807-0.641l0,0c-1.37-2.469-2.945-4.809-4.686-7.007l0,0c-0.223-0.282-0.328-0.639-0.279-0.995
								l0,0l0.646-5.709l-2.095-2.1l-5.713,0.654c-0.355,0.038-0.719-0.064-0.994-0.285l0,0c-2.197-1.743-4.535-3.312-7.004-4.69
								l0,0c-0.314-0.171-0.542-0.462-0.646-0.808l0,0l-1.581-5.515l-2.738-1.135l-5.011,2.777c-0.312,0.173-0.681,0.215-1.026,0.12
								l0,0c-2.674-0.76-5.437-1.314-8.277-1.637l0,0c-0.357-0.042-0.683-0.224-0.905-0.502l0,0l-3.571-4.495h-2.971l-3.575,4.495
								c-0.22,0.275-0.552,0.46-0.903,0.502l0,0c-2.831,0.323-5.603,0.875-8.277,1.637l0,0c-0.343,0.095-0.713,0.053-1.023-0.12l0,0
								l-5.013-2.777l-2.741,1.135l-1.581,5.515c-0.098,0.346-0.331,0.637-0.64,0.808l0,0c-2.468,1.376-4.811,2.947-7.007,4.69l0,0
								c-0.275,0.221-0.64,0.324-0.991,0.285l0,0l-5.712-0.654l-2.099,2.1l0.655,5.709c0.038,0.354-0.066,0.714-0.282,0.995l0,0
								c-1.749,2.197-3.315,4.538-4.691,7.007l0,0c-0.177,0.311-0.466,0.543-0.807,0.641l0,0l-5.521,1.582l-1.133,2.74l2.779,5.012
								c0.172,0.311,0.213,0.682,0.113,1.023l0,0c-0.76,2.674-1.307,5.441-1.634,8.277l0,0c-0.039,0.354-0.226,0.682-0.503,0.902
								l0,0l-4.495,3.574v2.971l4.495,3.574c0.277,0.221,0.464,0.549,0.503,0.904l0,0c0.327,2.834,0.871,5.602,1.634,8.277l0,0
								c0.098,0.34,0.059,0.711-0.113,1.025l0,0l-2.779,5.008l1.136,2.738l5.516,1.586c0.341,0.1,0.629,0.326,0.807,0.639l0,0
								c1.374,2.473,2.944,4.809,4.691,7.008l0,0c0.215,0.277,0.32,0.637,0.282,0.994l0,0l-0.655,5.707l2.099,2.104l5.712-0.656
								c0.351-0.037,0.716,0.066,0.993,0.287l0,0c2.194,1.744,4.537,3.311,7.006,4.691l0,0c0.31,0.17,0.541,0.463,0.64,0.805l0,0
								l1.581,5.514l2.741,1.139l5.012-2.775c0.197-0.113,0.426-0.172,0.656-0.172l0,0C28.924,109.146,29.047,109.162,29.17,109.199
								L29.17,109.199z"/>
						</defs>
						<clipPath id="SVGID_28_">
							<use xlink:href="#SVGID_27_"  overflow="visible"/>
						</clipPath>
						<g clip-path="url(#SVGID_28_)">
							<path fill="#A7A9AC" d="M49.096,113.307l-1.646,2.279c-0.125,0.166-0.295,0.301-0.48,0.373l-0.677,0.283
								c-0.464,0.191-1.007,0.053-1.318-0.35l-1.235-1.584c-0.15-0.199-0.24-0.439-0.24-0.693v-3.639
								c0-0.609,0.49-1.107,1.099-1.121c0.628-0.012,1.252-0.041,1.877-0.078c0.023,0,0.045,0,0.067,0
								c0.344,0,0.671,0.158,0.88,0.424l1.642,2.08c0.16,0.199,0.242,0.439,0.242,0.693v0.676
								C49.306,112.885,49.229,113.115,49.096,113.307z"/>
						</g>
					</g>
					<g>
						<defs>
							<path id="SVGID_29_" d="M29.17,109.199c2.676,0.766,5.444,1.312,8.277,1.633l0,0c0.352,0.045,0.683,0.223,0.903,0.506l0,0
								l3.575,4.494h2.97l3.574-4.494c0.223-0.283,0.546-0.461,0.902-0.506l0,0c2.841-0.322,5.604-0.867,8.28-1.633l0,0
								c0.344-0.092,0.715-0.053,1.026,0.119l0,0l5.011,2.775l2.735-1.135l1.584-5.518c0.101-0.338,0.329-0.633,0.643-0.805l0,0
								c2.471-1.377,4.807-2.945,7.005-4.691l0,0c0.277-0.221,0.64-0.324,0.993-0.283l0,0l5.711,0.652l2.1-2.1l-0.646-5.709
								c-0.049-0.355,0.054-0.717,0.279-0.994l0,0c1.74-2.197,3.315-4.535,4.686-7.008l0,0c0.175-0.311,0.467-0.541,0.807-0.637l0,0
								l5.521-1.588l1.132-2.74l-2.78-5.006c-0.167-0.314-0.212-0.684-0.112-1.027l0,0c0.758-2.676,1.313-5.441,1.631-8.275l0,0
								c0.044-0.354,0.231-0.686,0.499-0.904l0,0l4.5-3.572v-2.973l-4.5-3.576c-0.268-0.223-0.458-0.551-0.499-0.902l0,0
								c-0.318-2.836-0.873-5.604-1.631-8.277l0,0c-0.097-0.34-0.053-0.713,0.112-1.023l0,0l2.78-5.012l-1.132-2.739l-5.521-1.583
								c-0.34-0.098-0.632-0.328-0.807-0.641l0,0c-1.37-2.469-2.945-4.809-4.686-7.007l0,0c-0.223-0.282-0.328-0.639-0.279-0.995
								l0,0l0.646-5.709l-2.095-2.1l-5.713,0.654c-0.355,0.038-0.719-0.064-0.994-0.285l0,0c-2.197-1.743-4.535-3.312-7.004-4.69
								l0,0c-0.314-0.171-0.542-0.462-0.646-0.808l0,0l-1.581-5.515l-2.738-1.135l-5.011,2.777c-0.312,0.173-0.681,0.215-1.026,0.12
								l0,0c-2.674-0.76-5.437-1.314-8.277-1.637l0,0c-0.357-0.042-0.683-0.224-0.905-0.502l0,0l-3.571-4.495h-2.971l-3.575,4.495
								c-0.22,0.275-0.552,0.46-0.903,0.502l0,0c-2.831,0.323-5.603,0.875-8.277,1.637l0,0c-0.343,0.095-0.713,0.053-1.023-0.12l0,0
								l-5.013-2.777l-2.741,1.135l-1.581,5.515c-0.098,0.346-0.331,0.637-0.64,0.808l0,0c-2.468,1.376-4.811,2.947-7.007,4.69l0,0
								c-0.275,0.221-0.64,0.324-0.991,0.285l0,0l-5.712-0.654l-2.099,2.1l0.655,5.709c0.038,0.354-0.066,0.714-0.282,0.995l0,0
								c-1.749,2.197-3.315,4.538-4.691,7.007l0,0c-0.177,0.311-0.466,0.543-0.807,0.641l0,0l-5.521,1.582l-1.133,2.74l2.779,5.012
								c0.172,0.311,0.213,0.682,0.113,1.023l0,0c-0.76,2.674-1.307,5.441-1.634,8.277l0,0c-0.039,0.354-0.226,0.682-0.503,0.902
								l0,0l-4.495,3.574v2.971l4.495,3.574c0.277,0.221,0.464,0.549,0.503,0.904l0,0c0.327,2.834,0.871,5.602,1.634,8.277l0,0
								c0.098,0.34,0.059,0.711-0.113,1.025l0,0l-2.779,5.008l1.136,2.738l5.516,1.586c0.341,0.1,0.629,0.326,0.807,0.639l0,0
								c1.374,2.473,2.944,4.809,4.691,7.008l0,0c0.215,0.277,0.32,0.637,0.282,0.994l0,0l-0.655,5.707l2.099,2.104l5.712-0.656
								c0.351-0.037,0.716,0.066,0.993,0.287l0,0c2.194,1.744,4.537,3.311,7.006,4.691l0,0c0.31,0.17,0.541,0.463,0.64,0.805l0,0
								l1.581,5.514l2.741,1.139l5.012-2.775c0.197-0.113,0.426-0.172,0.656-0.172l0,0C28.924,109.146,29.047,109.162,29.17,109.199
								L29.17,109.199z"/>
						</defs>
						<clipPath id="SVGID_30_">
							<use xlink:href="#SVGID_29_"  overflow="visible"/>
						</clipPath>
						<g clip-path="url(#SVGID_30_)">
							<path fill="#A7A9AC" d="M27.969,111.398l-2.394,1.473c-0.178,0.107-0.378,0.166-0.59,0.166h-0.728
								c-0.504,0-0.949-0.338-1.084-0.828l-0.537-1.939c-0.062-0.24-0.049-0.494,0.046-0.73l1.392-3.359
								c0.235-0.561,0.876-0.838,1.444-0.617c0.588,0.229,1.175,0.447,1.762,0.65c0.023,0.004,0.043,0.012,0.062,0.021
								c0.32,0.133,0.562,0.398,0.657,0.734l0.719,2.541c0.068,0.248,0.055,0.5-0.044,0.738l-0.256,0.621
								C28.327,111.088,28.165,111.271,27.969,111.398z"/>
						</g>
					</g>
					<g>
						<defs>
							<path id="SVGID_31_" d="M29.17,109.199c2.676,0.766,5.444,1.312,8.277,1.633l0,0c0.352,0.045,0.683,0.223,0.903,0.506l0,0
								l3.575,4.494h2.97l3.574-4.494c0.223-0.283,0.546-0.461,0.902-0.506l0,0c2.841-0.322,5.604-0.867,8.28-1.633l0,0
								c0.344-0.092,0.715-0.053,1.026,0.119l0,0l5.011,2.775l2.735-1.135l1.584-5.518c0.101-0.338,0.329-0.633,0.643-0.805l0,0
								c2.471-1.377,4.807-2.945,7.005-4.691l0,0c0.277-0.221,0.64-0.324,0.993-0.283l0,0l5.711,0.652l2.1-2.1l-0.646-5.709
								c-0.049-0.355,0.054-0.717,0.279-0.994l0,0c1.74-2.197,3.315-4.535,4.686-7.008l0,0c0.175-0.311,0.467-0.541,0.807-0.637l0,0
								l5.521-1.588l1.132-2.74l-2.78-5.006c-0.167-0.314-0.212-0.684-0.112-1.027l0,0c0.758-2.676,1.313-5.441,1.631-8.275l0,0
								c0.044-0.354,0.231-0.686,0.499-0.904l0,0l4.5-3.572v-2.973l-4.5-3.576c-0.268-0.223-0.458-0.551-0.499-0.902l0,0
								c-0.318-2.836-0.873-5.604-1.631-8.277l0,0c-0.097-0.34-0.053-0.713,0.112-1.023l0,0l2.78-5.012l-1.132-2.739l-5.521-1.583
								c-0.34-0.098-0.632-0.328-0.807-0.641l0,0c-1.37-2.469-2.945-4.809-4.686-7.007l0,0c-0.223-0.282-0.328-0.639-0.279-0.995
								l0,0l0.646-5.709l-2.095-2.1l-5.713,0.654c-0.355,0.038-0.719-0.064-0.994-0.285l0,0c-2.197-1.743-4.535-3.312-7.004-4.69
								l0,0c-0.314-0.171-0.542-0.462-0.646-0.808l0,0l-1.581-5.515l-2.738-1.135l-5.011,2.777c-0.312,0.173-0.681,0.215-1.026,0.12
								l0,0c-2.674-0.76-5.437-1.314-8.277-1.637l0,0c-0.357-0.042-0.683-0.224-0.905-0.502l0,0l-3.571-4.495h-2.971l-3.575,4.495
								c-0.22,0.275-0.552,0.46-0.903,0.502l0,0c-2.831,0.323-5.603,0.875-8.277,1.637l0,0c-0.343,0.095-0.713,0.053-1.023-0.12l0,0
								l-5.013-2.777l-2.741,1.135l-1.581,5.515c-0.098,0.346-0.331,0.637-0.64,0.808l0,0c-2.468,1.376-4.811,2.947-7.007,4.69l0,0
								c-0.275,0.221-0.64,0.324-0.991,0.285l0,0l-5.712-0.654l-2.099,2.1l0.655,5.709c0.038,0.354-0.066,0.714-0.282,0.995l0,0
								c-1.749,2.197-3.315,4.538-4.691,7.007l0,0c-0.177,0.311-0.466,0.543-0.807,0.641l0,0l-5.521,1.582l-1.133,2.74l2.779,5.012
								c0.172,0.311,0.213,0.682,0.113,1.023l0,0c-0.76,2.674-1.307,5.441-1.634,8.277l0,0c-0.039,0.354-0.226,0.682-0.503,0.902
								l0,0l-4.495,3.574v2.971l4.495,3.574c0.277,0.221,0.464,0.549,0.503,0.904l0,0c0.327,2.834,0.871,5.602,1.634,8.277l0,0
								c0.098,0.34,0.059,0.711-0.113,1.025l0,0l-2.779,5.008l1.136,2.738l5.516,1.586c0.341,0.1,0.629,0.326,0.807,0.639l0,0
								c1.374,2.473,2.944,4.809,4.691,7.008l0,0c0.215,0.277,0.32,0.637,0.282,0.994l0,0l-0.655,5.707l2.099,2.104l5.712-0.656
								c0.351-0.037,0.716,0.066,0.993,0.287l0,0c2.194,1.744,4.537,3.311,7.006,4.691l0,0c0.31,0.17,0.541,0.463,0.64,0.805l0,0
								l1.581,5.514l2.741,1.139l5.012-2.775c0.197-0.113,0.426-0.172,0.656-0.172l0,0C28.924,109.146,29.047,109.162,29.17,109.199
								L29.17,109.199z"/>
						</defs>
						<clipPath id="SVGID_32_">
							<use xlink:href="#SVGID_31_"  overflow="visible"/>
						</clipPath>
						<g clip-path="url(#SVGID_32_)">
							<path fill="#A7A9AC" d="M9.18,101.543l-2.775,0.447c-0.205,0.033-0.418,0.012-0.606-0.068l-0.675-0.279
								c-0.468-0.193-0.751-0.68-0.685-1.182l0.247-1.994c0.033-0.252,0.146-0.48,0.324-0.658l2.571-2.57
								c0.431-0.432,1.129-0.438,1.571-0.02c0.45,0.436,0.913,0.855,1.381,1.271c0.014,0.016,0.032,0.027,0.052,0.041
								c0.243,0.244,0.357,0.586,0.318,0.932l-0.31,2.627c-0.03,0.25-0.143,0.48-0.318,0.662l-0.479,0.475
								C9.629,101.393,9.412,101.51,9.18,101.543z"/>
						</g>
					</g>
					<g>
						<defs>
							<path id="SVGID_33_" d="M29.17,109.199c2.676,0.766,5.444,1.312,8.277,1.633l0,0c0.352,0.045,0.683,0.223,0.903,0.506l0,0
								l3.575,4.494h2.97l3.574-4.494c0.223-0.283,0.546-0.461,0.902-0.506l0,0c2.841-0.322,5.604-0.867,8.28-1.633l0,0
								c0.344-0.092,0.715-0.053,1.026,0.119l0,0l5.011,2.775l2.735-1.135l1.584-5.518c0.101-0.338,0.329-0.633,0.643-0.805l0,0
								c2.471-1.377,4.807-2.945,7.005-4.691l0,0c0.277-0.221,0.64-0.324,0.993-0.283l0,0l5.711,0.652l2.1-2.1l-0.646-5.709
								c-0.049-0.355,0.054-0.717,0.279-0.994l0,0c1.74-2.197,3.315-4.535,4.686-7.008l0,0c0.175-0.311,0.467-0.541,0.807-0.637l0,0
								l5.521-1.588l1.132-2.74l-2.78-5.006c-0.167-0.314-0.212-0.684-0.112-1.027l0,0c0.758-2.676,1.313-5.441,1.631-8.275l0,0
								c0.044-0.354,0.231-0.686,0.499-0.904l0,0l4.5-3.572v-2.973l-4.5-3.576c-0.268-0.223-0.458-0.551-0.499-0.902l0,0
								c-0.318-2.836-0.873-5.604-1.631-8.277l0,0c-0.097-0.34-0.053-0.713,0.112-1.023l0,0l2.78-5.012l-1.132-2.739l-5.521-1.583
								c-0.34-0.098-0.632-0.328-0.807-0.641l0,0c-1.37-2.469-2.945-4.809-4.686-7.007l0,0c-0.223-0.282-0.328-0.639-0.279-0.995
								l0,0l0.646-5.709l-2.095-2.1l-5.713,0.654c-0.355,0.038-0.719-0.064-0.994-0.285l0,0c-2.197-1.743-4.535-3.312-7.004-4.69
								l0,0c-0.314-0.171-0.542-0.462-0.646-0.808l0,0l-1.581-5.515l-2.738-1.135l-5.011,2.777c-0.312,0.173-0.681,0.215-1.026,0.12
								l0,0c-2.674-0.76-5.437-1.314-8.277-1.637l0,0c-0.357-0.042-0.683-0.224-0.905-0.502l0,0l-3.571-4.495h-2.971l-3.575,4.495
								c-0.22,0.275-0.552,0.46-0.903,0.502l0,0c-2.831,0.323-5.603,0.875-8.277,1.637l0,0c-0.343,0.095-0.713,0.053-1.023-0.12l0,0
								l-5.013-2.777l-2.741,1.135l-1.581,5.515c-0.098,0.346-0.331,0.637-0.64,0.808l0,0c-2.468,1.376-4.811,2.947-7.007,4.69l0,0
								c-0.275,0.221-0.64,0.324-0.991,0.285l0,0l-5.712-0.654l-2.099,2.1l0.655,5.709c0.038,0.354-0.066,0.714-0.282,0.995l0,0
								c-1.749,2.197-3.315,4.538-4.691,7.007l0,0c-0.177,0.311-0.466,0.543-0.807,0.641l0,0l-5.521,1.582l-1.133,2.74l2.779,5.012
								c0.172,0.311,0.213,0.682,0.113,1.023l0,0c-0.76,2.674-1.307,5.441-1.634,8.277l0,0c-0.039,0.354-0.226,0.682-0.503,0.902
								l0,0l-4.495,3.574v2.971l4.495,3.574c0.277,0.221,0.464,0.549,0.503,0.904l0,0c0.327,2.834,0.871,5.602,1.634,8.277l0,0
								c0.098,0.34,0.059,0.711-0.113,1.025l0,0l-2.779,5.008l1.136,2.738l5.516,1.586c0.341,0.1,0.629,0.326,0.807,0.639l0,0
								c1.374,2.473,2.944,4.809,4.691,7.008l0,0c0.215,0.277,0.32,0.637,0.282,0.994l0,0l-0.655,5.707l2.099,2.104l5.712-0.656
								c0.351-0.037,0.716,0.066,0.993,0.287l0,0c2.194,1.744,4.537,3.311,7.006,4.691l0,0c0.31,0.17,0.541,0.463,0.64,0.805l0,0
								l1.581,5.514l2.741,1.139l5.012-2.775c0.197-0.113,0.426-0.172,0.656-0.172l0,0C28.924,109.146,29.047,109.162,29.17,109.199
								L29.17,109.199z"/>
						</defs>
						<clipPath id="SVGID_34_">
							<use xlink:href="#SVGID_33_"  overflow="visible"/>
						</clipPath>
						<g clip-path="url(#SVGID_34_)">
							<path fill="#A7A9AC" d="M-4.405,85.254l-2.731-0.65c-0.205-0.047-0.389-0.154-0.54-0.301l-0.514-0.51
								c-0.357-0.363-0.433-0.916-0.18-1.354l0.988-1.746c0.126-0.223,0.316-0.396,0.553-0.492l3.358-1.389
								c0.563-0.232,1.215,0.025,1.456,0.586c0.256,0.572,0.517,1.143,0.791,1.701c0.012,0.021,0.021,0.039,0.028,0.066
								c0.131,0.318,0.111,0.668-0.057,0.971l-1.291,2.309c-0.121,0.223-0.315,0.398-0.55,0.494l-0.619,0.254
								C-3.934,85.287-4.177,85.312-4.405,85.254z"/>
						</g>
					</g>
				</g>
				<path fill="#4D4D4F" d="M43.411,106.658c-12.658,0-24.559-4.926-33.513-13.877c-8.95-8.953-13.88-20.85-13.88-33.514
					c0-12.658,4.929-24.559,13.88-33.512c8.954-8.951,20.855-13.882,33.513-13.882c12.657,0,24.562,4.931,33.515,13.882
					c8.95,8.953,13.879,20.854,13.879,33.512c0,12.664-4.928,24.557-13.879,33.514C67.974,101.732,56.073,106.658,43.411,106.658
					L43.411,106.658z"/>
				<g>
					<path fill="#FFFFFF" d="M10.253,86.352l-0.8-1.004l3.013-2.396l-0.66-0.83l0.852-0.672l2.115,2.658l-0.846,0.684l-0.665-0.832
						L10.253,86.352z"/>
					<path fill="#FFFFFF" d="M14.062,89.254l-0.833,0.391l-0.992-0.93l4.762-2.291l1.018,0.955l-2.022,4.867l-1-0.939l0.354-0.838
						L14.062,89.254z M16.465,88.008L16.455,88l-1.46,0.777l0.774,0.73L16.465,88.008z"/>
					<path fill="#FFFFFF" d="M20.994,89.857l1.634,1.088c0.88,0.588,1.22,1.406,0.586,2.348c-0.642,0.973-1.448,1.043-2.381,0.422
						l-0.603-0.402l-0.904,1.359l-1.07-0.713L20.994,89.857z M20.807,92.455l0.178,0.115c0.39,0.258,0.765,0.514,1.102,0.014
						c0.349-0.518-0.003-0.76-0.417-1.033l-0.18-0.117L20.807,92.455z"/>
					<path fill="#FFFFFF" d="M29.199,94.484l1.461,0.48l0.46,1.562l1.294-0.98l1.459,0.477l-2.529,1.863l-0.741,2.256l-1.217-0.404
						l0.74-2.246L29.199,94.484z"/>
					<path fill="#FFFFFF" d="M39.895,99.457c-0.243,1.582-1.546,2.516-3.116,2.275c-1.565-0.244-2.525-1.525-2.282-3.107
						c0.228-1.471,1.681-2.309,3.088-2.094C38.988,96.752,40.121,97.986,39.895,99.457z M35.816,98.838
						c-0.127,0.838,0.399,1.551,1.157,1.67c0.756,0.113,1.472-0.402,1.601-1.244c0.103-0.676-0.424-1.381-1.181-1.502
						C36.637,97.645,35.922,98.162,35.816,98.838z"/>
					<path fill="#FFFFFF" d="M46.464,97.084l0.062,2.773c0.012,0.633,0,1.264-0.477,1.75c-0.401,0.412-1.05,0.576-1.624,0.586
						c-0.578,0.016-1.227-0.109-1.647-0.51c-0.499-0.467-0.541-1.096-0.558-1.73l-0.062-2.771l1.28-0.027l0.062,2.596
						c0.014,0.639,0.072,1.336,0.896,1.32c0.827-0.02,0.854-0.721,0.843-1.363l-0.061-2.594L46.464,97.084z"/>
					<path fill="#FFFFFF" d="M53.833,100.867l-1.571,0.307l-1.545-1.639h-0.009l0.351,1.863l-1.256,0.248l-0.925-4.85l1.879-0.359
						c0.957-0.188,1.771,0.135,1.973,1.164c0.124,0.672-0.137,1.322-0.799,1.576L53.833,100.867z M50.551,98.729l0.121-0.023
						c0.414-0.08,0.857-0.246,0.755-0.77c-0.098-0.529-0.58-0.518-0.989-0.439l-0.124,0.025L50.551,98.729z"/>
					<path fill="#FFFFFF" d="M61.858,97.93l-1.171,0.535l-2.055-4.484l1.163-0.535L61.858,97.93z"/>
					<path fill="#FFFFFF" d="M62.07,92.314l1.526-0.982c1.158-0.74,2.695-0.441,3.442,0.729c0.749,1.164,0.371,2.689-0.782,3.428
						l-1.525,0.979L62.07,92.314z M65.224,94.859l0.245-0.152c0.641-0.414,0.965-1.123,0.451-1.93
						c-0.484-0.744-1.236-0.852-1.934-0.404l-0.255,0.166L65.224,94.859z"/>
					<path fill="#FFFFFF" d="M69.139,88.535l0.543,0.609l1.081-0.955l0.726,0.814l-1.089,0.959l0.567,0.635l1.144-1.01l0.717,0.814
						l-2.098,1.861l-3.274-3.699l2.104-1.855l0.72,0.812L69.139,88.535z"/>
					<path fill="#FFFFFF" d="M75.232,86.623l0.443,0.805l-0.866,1.049l-2.59-4.604l0.894-1.08l4.984,1.711l-0.872,1.055
						l-0.864-0.299L75.232,86.623z M73.842,84.303l-0.012,0.01l0.873,1.414l0.68-0.83L73.842,84.303z"/>
				</g>
				<path fill="#FFFFFF" d="M43.411,93.156c-9.049,0-17.562-3.527-23.963-9.926c-6.397-6.398-9.923-14.91-9.923-23.963
					c0-9.051,3.526-17.562,9.924-23.964c6.399-6.398,14.912-9.927,23.961-9.927c9.051,0,17.568,3.527,23.962,9.927
					c6.4,6.402,9.93,14.912,9.93,23.964s-3.529,17.564-9.93,23.963C60.979,89.635,52.462,93.156,43.411,93.156L43.411,93.156z"/>
				<g>
					<g>
						<path id="SVGID_3_" fill="#A7A9AC" d="M43.411,88.656c-7.848,0-15.229-3.057-20.783-8.605
							c-5.547-5.559-8.603-12.936-8.603-20.783c0-7.85,3.055-15.229,8.607-20.781c5.554-5.55,12.931-8.607,20.779-8.607
							c7.848,0,15.231,3.056,20.78,8.607c5.547,5.551,8.608,12.932,8.608,20.779s-3.062,15.227-8.608,20.783
							C58.643,85.6,51.262,88.656,43.411,88.656L43.411,88.656z"/>
					</g>
					<g>
						<defs>
							<path id="SVGID_35_" d="M43.411,88.656c-7.848,0-15.229-3.057-20.783-8.605c-5.547-5.559-8.603-12.936-8.603-20.783
								c0-7.85,3.055-15.229,8.607-20.781c5.554-5.55,12.931-8.607,20.779-8.607c7.848,0,15.231,3.056,20.78,8.607
								c5.547,5.551,8.608,12.932,8.608,20.779s-3.062,15.227-8.608,20.783C58.643,85.6,51.262,88.656,43.411,88.656L43.411,88.656z
								"/>
						</defs>
						<clipPath id="SVGID_36_">
							<use xlink:href="#SVGID_35_"  overflow="visible"/>
						</clipPath>
						<g clip-path="url(#SVGID_36_)">
							<rect x="42.232" y="70.686" fill="#FFFFFF" width="2.475" height="20.258"/>
						</g>
					</g>
					<g>
						<defs>
							<path id="SVGID_37_" d="M43.411,88.656c-7.848,0-15.229-3.057-20.783-8.605c-5.547-5.559-8.603-12.936-8.603-20.783
								c0-7.85,3.055-15.229,8.607-20.781c5.554-5.55,12.931-8.607,20.779-8.607c7.848,0,15.231,3.056,20.78,8.607
								c5.547,5.551,8.608,12.932,8.608,20.779s-3.062,15.227-8.608,20.783C58.643,85.6,51.262,88.656,43.411,88.656L43.411,88.656z
								"/>
						</defs>
						<clipPath id="SVGID_38_">
							<use xlink:href="#SVGID_37_"  overflow="visible"/>
						</clipPath>
						<g clip-path="url(#SVGID_38_)">
							<rect x="36.864" y="70.686" fill="#FFFFFF" width="2.477" height="20.258"/>
						</g>
					</g>
					<g>
						<defs>
							<path id="SVGID_39_" d="M43.411,88.656c-7.848,0-15.229-3.057-20.783-8.605c-5.547-5.559-8.603-12.936-8.603-20.783
								c0-7.85,3.055-15.229,8.607-20.781c5.554-5.55,12.931-8.607,20.779-8.607c7.848,0,15.231,3.056,20.78,8.607
								c5.547,5.551,8.608,12.932,8.608,20.779s-3.062,15.227-8.608,20.783C58.643,85.6,51.262,88.656,43.411,88.656L43.411,88.656z
								"/>
						</defs>
						<clipPath id="SVGID_40_">
							<use xlink:href="#SVGID_39_"  overflow="visible"/>
						</clipPath>
						<g clip-path="url(#SVGID_40_)">
							<rect x="31.494" y="70.686" fill="#FFFFFF" width="2.476" height="20.258"/>
						</g>
					</g>
					<g>
						<defs>
							<path id="SVGID_41_" d="M43.411,88.656c-7.848,0-15.229-3.057-20.783-8.605c-5.547-5.559-8.603-12.936-8.603-20.783
								c0-7.85,3.055-15.229,8.607-20.781c5.554-5.55,12.931-8.607,20.779-8.607c7.848,0,15.231,3.056,20.78,8.607
								c5.547,5.551,8.608,12.932,8.608,20.779s-3.062,15.227-8.608,20.783C58.643,85.6,51.262,88.656,43.411,88.656L43.411,88.656z
								"/>
						</defs>
						<clipPath id="SVGID_42_">
							<use xlink:href="#SVGID_41_"  overflow="visible"/>
						</clipPath>
						<g clip-path="url(#SVGID_42_)">
							<rect x="26.126" y="70.686" fill="#FFFFFF" width="2.475" height="20.258"/>
						</g>
					</g>
					<g>
						<defs>
							<path id="SVGID_43_" d="M43.411,88.656c-7.848,0-15.229-3.057-20.783-8.605c-5.547-5.559-8.603-12.936-8.603-20.783
								c0-7.85,3.055-15.229,8.607-20.781c5.554-5.55,12.931-8.607,20.779-8.607c7.848,0,15.231,3.056,20.78,8.607
								c5.547,5.551,8.608,12.932,8.608,20.779s-3.062,15.227-8.608,20.783C58.643,85.6,51.262,88.656,43.411,88.656L43.411,88.656z
								"/>
						</defs>
						<clipPath id="SVGID_44_">
							<use xlink:href="#SVGID_43_"  overflow="visible"/>
						</clipPath>
						<g clip-path="url(#SVGID_44_)">
							<rect x="20.761" y="70.686" fill="#FFFFFF" width="2.476" height="20.258"/>
						</g>
					</g>
					<g>
						<defs>
							<path id="SVGID_45_" d="M43.411,88.656c-7.848,0-15.229-3.057-20.783-8.605c-5.547-5.559-8.603-12.936-8.603-20.783
								c0-7.85,3.055-15.229,8.607-20.781c5.554-5.55,12.931-8.607,20.779-8.607c7.848,0,15.231,3.056,20.78,8.607
								c5.547,5.551,8.608,12.932,8.608,20.779s-3.062,15.227-8.608,20.783C58.643,85.6,51.262,88.656,43.411,88.656L43.411,88.656z
								"/>
						</defs>
						<clipPath id="SVGID_46_">
							<use xlink:href="#SVGID_45_"  overflow="visible"/>
						</clipPath>
						<g clip-path="url(#SVGID_46_)">
							<rect x="15.392" y="70.686" fill="#FFFFFF" width="2.471" height="20.258"/>
						</g>
					</g>
					<g>
						<defs>
							<path id="SVGID_47_" d="M43.411,88.656c-7.848,0-15.229-3.057-20.783-8.605c-5.547-5.559-8.603-12.936-8.603-20.783
								c0-7.85,3.055-15.229,8.607-20.781c5.554-5.55,12.931-8.607,20.779-8.607c7.848,0,15.231,3.056,20.78,8.607
								c5.547,5.551,8.608,12.932,8.608,20.779s-3.062,15.227-8.608,20.783C58.643,85.6,51.262,88.656,43.411,88.656L43.411,88.656z
								"/>
						</defs>
						<clipPath id="SVGID_48_">
							<use xlink:href="#SVGID_47_"  overflow="visible"/>
						</clipPath>
						<g clip-path="url(#SVGID_48_)">
							<rect x="69.071" y="70.686" fill="#FFFFFF" width="2.475" height="20.258"/>
						</g>
					</g>
					<g>
						<defs>
							<path id="SVGID_49_" d="M43.411,88.656c-7.848,0-15.229-3.057-20.783-8.605c-5.547-5.559-8.603-12.936-8.603-20.783
								c0-7.85,3.055-15.229,8.607-20.781c5.554-5.55,12.931-8.607,20.779-8.607c7.848,0,15.231,3.056,20.78,8.607
								c5.547,5.551,8.608,12.932,8.608,20.779s-3.062,15.227-8.608,20.783C58.643,85.6,51.262,88.656,43.411,88.656L43.411,88.656z
								"/>
						</defs>
						<clipPath id="SVGID_50_">
							<use xlink:href="#SVGID_49_"  overflow="visible"/>
						</clipPath>
						<g clip-path="url(#SVGID_50_)">
							<rect x="63.702" y="70.686" fill="#FFFFFF" width="2.477" height="20.258"/>
						</g>
					</g>
					<g>
						<defs>
							<path id="SVGID_51_" d="M43.411,88.656c-7.848,0-15.229-3.057-20.783-8.605c-5.547-5.559-8.603-12.936-8.603-20.783
								c0-7.85,3.055-15.229,8.607-20.781c5.554-5.55,12.931-8.607,20.779-8.607c7.848,0,15.231,3.056,20.78,8.607
								c5.547,5.551,8.608,12.932,8.608,20.779s-3.062,15.227-8.608,20.783C58.643,85.6,51.262,88.656,43.411,88.656L43.411,88.656z
								"/>
						</defs>
						<clipPath id="SVGID_52_">
							<use xlink:href="#SVGID_51_"  overflow="visible"/>
						</clipPath>
						<g clip-path="url(#SVGID_52_)">
							<rect x="58.335" y="70.686" fill="#FFFFFF" width="2.473" height="20.258"/>
						</g>
					</g>
					<g>
						<defs>
							<path id="SVGID_53_" d="M43.411,88.656c-7.848,0-15.229-3.057-20.783-8.605c-5.547-5.559-8.603-12.936-8.603-20.783
								c0-7.85,3.055-15.229,8.607-20.781c5.554-5.55,12.931-8.607,20.779-8.607c7.848,0,15.231,3.056,20.78,8.607
								c5.547,5.551,8.608,12.932,8.608,20.779s-3.062,15.227-8.608,20.783C58.643,85.6,51.262,88.656,43.411,88.656L43.411,88.656z
								"/>
						</defs>
						<clipPath id="SVGID_54_">
							<use xlink:href="#SVGID_53_"  overflow="visible"/>
						</clipPath>
						<g clip-path="url(#SVGID_54_)">
							<rect x="52.966" y="70.686" fill="#FFFFFF" width="2.476" height="20.258"/>
						</g>
					</g>
					<g>
						<defs>
							<path id="SVGID_55_" d="M43.411,88.656c-7.848,0-15.229-3.057-20.783-8.605c-5.547-5.559-8.603-12.936-8.603-20.783
								c0-7.85,3.055-15.229,8.607-20.781c5.554-5.55,12.931-8.607,20.779-8.607c7.848,0,15.231,3.056,20.78,8.607
								c5.547,5.551,8.608,12.932,8.608,20.779s-3.062,15.227-8.608,20.783C58.643,85.6,51.262,88.656,43.411,88.656L43.411,88.656z
								"/>
						</defs>
						<clipPath id="SVGID_56_">
							<use xlink:href="#SVGID_55_"  overflow="visible"/>
						</clipPath>
						<g clip-path="url(#SVGID_56_)">
							<rect x="47.597" y="70.686" fill="#FFFFFF" width="2.476" height="20.258"/>
						</g>
					</g>
				</g>
			</g>
			<polygon fill="#FFFFFF" points="113.996,73.963 -27.169,73.963 -19.759,60.23 -19.239,59.268 -19.759,58.303 -27.169,44.572 
				113.996,44.572 106.583,58.303 106.064,59.268 106.583,60.23 			"/>
			<polygon fill="#A93439" points="109.849,47.043 -23.023,47.043 -16.425,59.268 -23.023,71.486 109.849,71.486 103.248,59.268 			
				"/>
		</g>
		<g>
			<path fill="#FFFFFF" d="M-7.979,65.377V52.574h4.76c2.273,0,3.8,0.881,3.8,3.326c0,1.156-0.371,2.09-1.406,2.613v0.037
				c1.831,0.24,2.615,1.477,2.615,3.264c0,2.684-2.299,3.562-4.639,3.562H-7.979z M-4.649,57.6h0.375
				c0.882,0,1.801-0.152,1.801-1.238c0-1.172-1.037-1.24-1.935-1.24h-0.241V57.6z M-4.649,62.832h0.424
				c0.986,0,2.651,0.051,2.651-1.357c0-1.545-1.644-1.395-2.732-1.395h-0.343V62.832z"/>
			<path fill="#FFFFFF" d="M15.535,65.377h-4.146l-3.144-4.922H8.208v4.922H4.879V52.574h4.979c2.534,0,4.451,1.201,4.451,3.936
				c0,1.768-0.987,3.299-2.805,3.619L15.535,65.377z M8.207,58.311h0.327c1.083,0,2.308-0.201,2.308-1.594
				c0-1.395-1.224-1.598-2.308-1.598H8.207V58.311z"/>
			<path fill="#FFFFFF" d="M21.394,63.152l-0.885,2.227h-3.534L21.9,52.574h3.635l4.828,12.805h-3.553l-0.835-2.227H21.394z
				 M23.723,56.529h-0.034l-1.379,4.076h2.77L23.723,56.529z"/>
			<path fill="#FFFFFF" d="M32.758,52.574h3.325l6.102,7.828h0.035v-7.828h3.331v12.803H42.22l-6.099-7.844h-0.038v7.844h-3.325
				V52.574z"/>
			<path fill="#FFFFFF" d="M49.419,52.574h4.726c3.566,0,6.505,2.799,6.505,6.402c0,3.6-2.956,6.4-6.505,6.4h-4.726V52.574z
				 M52.751,62.559h0.748c1.984,0,3.688-1.084,3.688-3.58c0-2.297-1.516-3.584-3.654-3.584h-0.779v7.164H52.751z"/>
			<path fill="#FFFFFF" d="M66.887,55.393v2.141h3.75v2.818h-3.75v2.207h3.954v2.82h-7.286V52.574h7.286v2.82h-3.954V55.393z"/>
			<path fill="#FFFFFF" d="M85.249,65.377h-4.143l-3.144-4.922h-0.03v4.922H74.6V52.574h4.976c2.53,0,4.451,1.201,4.451,3.936
				c0,1.768-0.984,3.299-2.804,3.619L85.249,65.377z M77.93,58.311h0.316c1.091,0,2.312-0.201,2.312-1.594
				c0-1.395-1.222-1.598-2.312-1.598H77.93V58.311z"/>
			<path fill="#FFFFFF" d="M85.417,52.574h3.99l2.399,3.48l2.395-3.48h3.992l-4.729,6.654v6.148h-3.325v-6.148L85.417,52.574z"/>
		</g>
	</g>
	<g>
		<path fill="#FFFFFF" d="M37.637,41.151h-1.61v-4.816h-1.328v-1.356h4.26v1.356h-1.323L37.637,41.151L37.637,41.151z"/>
		<path fill="#FFFFFF" d="M44.445,37.36v-2.381h1.606v6.173h-1.606v-2.53H42.13v2.53h-1.605v-6.173h1.605v2.381H44.445z"/>
		<path fill="#FFFFFF" d="M49.688,36.335v1.036h1.805v1.357h-1.805v1.065h1.907v1.359h-3.518v-6.173h3.518v1.358h-1.907V36.335z"/>
	</g>
</g>
</svg>
