<?xml version="1.0" encoding="utf-8"?>
<!-- Generator: Adobe Illustrator 16.1.0, SVG Export Plug-In . SVG Version: 6.00 Build 0)  -->
<!DOCTYPE svg PUBLIC "-//W3C//DTD SVG 1.1//EN" "http://www.w3.org/Graphics/SVG/1.1/DTD/svg11.dtd">
<svg version="1.1" id="Layer_1" xmlns="http://www.w3.org/2000/svg" xmlns:xlink="http://www.w3.org/1999/xlink" x="0px" y="0px"
	 width="300px" height="200px" viewBox="0 0 300 200" enable-background="new 0 0 300 200" xml:space="preserve">
<g>
	<path fill="#878888" d="M120.864,105.152v27.853h-15.144v-27.853c0-7.301-5.938-13.241-13.236-13.241
		c-7.301,0-13.238,5.94-13.238,13.241v27.853H64.105v-27.853c0-15.647,12.729-28.376,28.379-28.376
		C108.127,76.775,120.864,89.505,120.864,105.152z M58.755,105.152v27.853h-15.13v-10.466H17.137v10.466H2v-27.853
		c0-15.647,12.731-28.376,28.379-28.376C46.029,76.775,58.755,89.505,58.755,105.152z M43.625,109.388v-4.236
		c0-7.301-5.944-13.241-13.246-13.241c-7.305,0-13.242,5.94-13.242,13.241v4.236H43.625z M207.47,63.143h-15.133v13.866h-5.047
		v14.948h5.047v41.049h15.133V91.956h5.046V77.008h-5.046V63.143z M166.92,63.143h15.133v42.011
		c0,15.648-12.729,28.378-28.378,28.378c-15.646,0-28.374-12.73-28.374-28.378c0-15.647,12.728-28.378,28.374-28.378
		c4.783,0,9.286,1.201,13.245,3.298V63.143z M166.92,105.154c0-7.303-5.939-13.243-13.245-13.243c-7.299,0-13.24,5.94-13.24,13.243
		c0,7.302,5.941,13.241,13.24,13.241C160.981,118.395,166.92,112.456,166.92,105.154z M218.546,63.143v12.776h16.817V63.143H218.546
		z M218.546,80.606v52.399h16.817l-0.084-52.399H218.546z"/>
	<polygon fill="#8DC63F" points="300,122.609 288.172,134.432 270.489,116.752 252.807,134.432 240.991,122.609 258.669,104.925 
		240.991,87.245 252.807,75.422 270.489,93.101 288.172,75.422 300,87.245 282.317,104.925 	"/>
</g>
</svg>
