<?xml version="1.0" encoding="utf-8"?>
<!-- Generator: Adobe Illustrator 16.1.0, SVG Export Plug-In . SVG Version: 6.00 Build 0)  -->
<!DOCTYPE svg PUBLIC "-//W3C//DTD SVG 1.1//EN" "http://www.w3.org/Graphics/SVG/1.1/DTD/svg11.dtd">
<svg version="1.1" id="Layer_1" xmlns="http://www.w3.org/2000/svg" xmlns:xlink="http://www.w3.org/1999/xlink" x="0px" y="0px"
	 width="400px" height="200px" viewBox="0 0 400 200" enable-background="new 0 0 400 200" xml:space="preserve">
<path fill="#6D6E71" d="M26.325,95.879c-3.375,0-6.407-0.651-9.093-1.956c-2.685-1.304-4.964-3.122-6.83-5.449
	c-1.869-2.329-3.312-5.114-4.335-8.365c-1.023-3.248-1.534-6.815-1.534-10.704c0-3.887,0.511-7.455,1.534-10.705
	c1.023-3.248,2.467-6.038,4.335-8.365c1.866-2.327,4.145-4.145,6.83-5.448c2.686-1.305,5.718-1.957,9.093-1.957
	c2.456,0,4.605,0.358,6.446,1.074c1.842,0.717,3.44,1.663,4.797,2.839c1.354,1.177,2.505,2.494,3.453,3.953
	c0.945,1.457,1.75,2.929,2.417,4.411l-8.518,3.76c-0.769-2.045-1.88-3.709-3.338-4.988c-1.458-1.278-3.21-1.918-5.257-1.918
	c-1.791,0-3.375,0.436-4.757,1.305c-1.381,0.871-2.559,2.072-3.531,3.606c-0.972,1.536-1.714,3.365-2.224,5.488
	c-0.513,2.123-0.768,4.438-0.768,6.944c0,2.507,0.255,4.822,0.768,6.943c0.51,2.125,1.252,3.952,2.224,5.487
	c0.972,1.535,2.15,2.738,3.531,3.607c1.382,0.871,2.966,1.305,4.757,1.305c2.148,0,3.953-0.702,5.41-2.111
	c1.458-1.405,2.544-3.184,3.262-5.332l8.517,3.683c-0.614,1.536-1.395,3.07-2.34,4.606c-0.948,1.534-2.11,2.915-3.492,4.142
	c-1.38,1.229-3.006,2.228-4.874,2.993C30.941,95.495,28.781,95.879,26.325,95.879z"/>
<path fill="#6D6E71" d="M46.047,94.959V57.894h9.208v5.065c0.51-0.818,1.151-1.598,1.917-2.341c0.768-0.74,1.586-1.381,2.457-1.917
	c0.869-0.536,1.805-0.959,2.801-1.267c0.998-0.306,1.982-0.46,2.954-0.46v9.055c-0.307-0.102-0.639-0.179-0.998-0.23
	c-0.358-0.051-0.741-0.078-1.151-0.078c-1.484,0-2.993,0.436-4.526,1.305c-1.536,0.871-2.686,1.945-3.454,3.223v24.71H46.047z"/>
<path fill="#6D6E71" d="M83.09,95.879c-2.762,0-5.192-0.525-7.29-1.573c-2.098-1.048-3.851-2.47-5.256-4.261
	c-1.408-1.789-2.482-3.86-3.224-6.214c-0.743-2.354-1.112-4.836-1.112-7.445c0-2.608,0.37-5.089,1.112-7.443
	c0.741-2.351,1.816-4.411,3.224-6.176c1.406-1.766,3.159-3.171,5.256-4.222c2.097-1.047,4.527-1.572,7.29-1.572
	c2.763,0,5.191,0.525,7.29,1.572c2.098,1.051,3.862,2.456,5.295,4.222s2.506,3.825,3.224,6.176c0.714,2.354,1.074,4.835,1.074,7.443
	c0,2.609-0.359,5.091-1.074,7.445c-0.718,2.354-1.792,4.425-3.224,6.214c-1.433,1.791-3.197,3.212-5.295,4.261
	C88.281,95.354,85.853,95.879,83.09,95.879z M83.09,87.745c1.279,0,2.378-0.307,3.299-0.92c0.922-0.614,1.675-1.433,2.264-2.458
	c0.588-1.021,1.022-2.224,1.305-3.605c0.279-1.382,0.422-2.84,0.422-4.375c0-1.534-0.143-2.979-0.422-4.334
	c-0.282-1.354-0.717-2.545-1.305-3.568c-0.589-1.022-1.342-1.842-2.264-2.456c-0.921-0.614-2.021-0.921-3.299-0.921
	c-1.227,0-2.302,0.307-3.222,0.921c-0.921,0.613-1.688,1.433-2.302,2.456c-0.615,1.023-1.062,2.214-1.343,3.568
	c-0.283,1.355-0.423,2.801-0.423,4.334c0,1.536,0.14,2.993,0.423,4.375c0.28,1.381,0.728,2.584,1.343,3.605
	c0.613,1.025,1.38,1.844,2.302,2.458C80.788,87.438,81.863,87.745,83.09,87.745z"/>
<path fill="#6D6E71" d="M131.337,94.959l-6.6-25.17l-6.677,25.17h-9.668l-9.975-37.065h9.516l5.909,25.093l6.522-25.093h8.44
	l6.753,25.093l5.909-25.093h9.593l-9.977,37.065H131.337z"/>
<path fill="#6D6E71" d="M173.694,94.959v-4.681c-1.177,1.84-2.596,3.236-4.259,4.181c-1.663,0.946-3.389,1.42-5.18,1.42
	c-2.097,0-3.99-0.449-5.678-1.342c-1.688-0.896-3.134-2.173-4.336-3.838c-1.202-1.66-2.136-3.694-2.8-6.1
	c-0.666-2.404-0.997-5.141-0.997-8.212c0-2.966,0.332-5.639,0.997-8.018c0.665-2.379,1.598-4.413,2.8-6.101
	c1.202-1.688,2.648-2.993,4.336-3.914c1.688-0.92,3.581-1.381,5.678-1.381c1.791,0,3.53,0.46,5.218,1.381
	c1.688,0.921,3.095,2.354,4.221,4.298V43.775h9.209v51.184H173.694z M167.25,87.745c1.277,0,2.519-0.422,3.721-1.266
	c1.202-0.845,2.11-1.88,2.724-3.108V69.405c-0.614-1.176-1.522-2.187-2.724-3.032c-1.202-0.843-2.444-1.266-3.721-1.266
	c-2.406,0-4.222,1.075-5.449,3.222c-1.228,2.15-1.841,4.835-1.841,8.057c0,3.276,0.613,5.986,1.841,8.135
	C163.028,86.67,164.844,87.745,167.25,87.745z"/>
<path fill="#6D6E71" d="M215.706,94.959V73.166h-17.189v21.793h-10.282V43.775h10.282v20.258h17.189V43.775h10.283v51.184H215.706z"
	/>
<path fill="#6D6E71" d="M252.922,94.959v-4.681c-1.176,1.84-2.597,3.236-4.259,4.181c-1.663,0.946-3.39,1.42-5.179,1.42
	c-2.099,0-3.99-0.449-5.679-1.342c-1.688-0.896-3.134-2.173-4.335-3.838c-1.202-1.66-2.136-3.694-2.8-6.1
	c-0.667-2.404-0.998-5.141-0.998-8.212c0-2.966,0.332-5.639,0.998-8.018c0.664-2.379,1.598-4.413,2.8-6.101
	c1.201-1.688,2.648-2.993,4.335-3.914c1.688-0.92,3.58-1.381,5.679-1.381c1.79,0,3.53,0.46,5.219,1.381
	c1.688,0.921,3.095,2.354,4.219,4.298v-4.759h9.209v37.065H252.922z M246.477,87.745c1.278,0,2.519-0.422,3.721-1.266
	c1.202-0.845,2.111-1.88,2.724-3.108V69.482c-0.613-1.178-1.522-2.188-2.724-3.032c-1.202-0.845-2.443-1.265-3.721-1.265
	c-2.456,0-4.286,1.062-5.486,3.184c-1.203,2.124-1.804,4.796-1.804,8.018c0,3.276,0.614,5.986,1.842,8.135
	C242.255,86.67,244.072,87.745,246.477,87.745z"/>
<path fill="#6D6E71" d="M276.863,95.879c-3.223,0-5.602-0.819-7.136-2.456s-2.302-4.091-2.302-7.367V43.775h9.208v40.134
	c0,1.176,0.23,2.109,0.691,2.8c0.46,0.69,1.151,1.036,2.072,1.036c0.562,0,1.085-0.102,1.572-0.307
	c0.486-0.204,0.856-0.461,1.115-0.769L284,93.73c-0.717,0.613-1.662,1.126-2.838,1.536
	C279.983,95.673,278.553,95.879,276.863,95.879z"/>
<path fill="#6D6E71" d="M295.74,95.879c-3.224,0-5.602-0.819-7.136-2.456c-1.535-1.637-2.303-4.091-2.303-7.367V43.775h9.208v40.134
	c0,1.176,0.23,2.109,0.69,2.8c0.461,0.69,1.151,1.036,2.073,1.036c0.562,0,1.085-0.102,1.572-0.307
	c0.487-0.204,0.857-0.461,1.113-0.769l1.918,7.061c-0.717,0.613-1.663,1.126-2.839,1.536
	C298.86,95.673,297.428,95.879,295.74,95.879z"/>
<path fill="#27BDBE" d="M323.927,98.092c0.797,0,2.418-0.698,3.067-1.224l0.056-0.024c1.091-0.836,4.118-2.823,7.043-4.744
	l0.113-0.075c1.071-0.704,2.114-1.388,3.022-1.993c4.263-2.826,4.263-2.826,4.747-3.522c1.315-1.89,0.851-4.497-1.038-5.814
	c-0.704-0.49-1.53-0.748-2.384-0.748c-0.933,0-1.84,0.307-2.553,0.866c-0.278,0.197-1.061,0.716-2.131,1.428l-1.256,0.833
	c-1.468,0.971-2.377,1.543-3.161,2.039c-0.406,0.252-0.777,0.488-1.176,0.745c-0.002-1.864,0.001-5.079,0.004-6.734v-0.8
	c0.032-2.618,0.055-4.348-2.432-5.895c-6.412-3.997-10.089-10.014-10.089-16.511c0-13.358,16.664-24.227,37.147-24.227
	c20.485,0,37.15,10.868,37.15,24.227c0,12.146-14.478,22.711-32.976,24.077l-0.038-24.114l9.017,9.652
	c0.811,0.955,1.988,1.503,3.23,1.503c0.967,0,1.906-0.343,2.641-0.97c0.852-0.72,1.369-1.729,1.459-2.841
	c0.092-1.112-0.262-2.2-0.997-3.064l-16.396-17.783c-0.767-0.905-1.904-1.442-3.115-1.473c-1.209,0-2.315,0.47-3.114,1.321
	L333.42,59.941c-0.763,0.812-1.164,1.875-1.129,2.991c0.037,1.114,0.503,2.147,1.317,2.909c0.777,0.73,1.792,1.132,2.857,1.132
	c1.148,0,2.259-0.479,3.043-1.317l9.223-9.787v28.454c0,2.301,1.873,4.176,4.174,4.176c25.09,0,45.5-14.616,45.5-32.581
	c0-17.963-20.411-32.578-45.5-32.578c-25.088,0-45.5,14.614-45.5,32.578c0,8.584,4.609,16.985,12.333,22.471
	c0.168,3.556,0.293,11.717,0.226,14.319l-0.004,0.146c0.011,0.465,0.021,1.595,0.269,2.416
	C320.769,97.064,322.116,98.092,323.927,98.092z"/>
<g>
	<path fill="#FBB040" d="M117.639,115.533c0.977,0.603,2.408,1.104,3.914,1.104c2.233,0,3.538-1.179,3.538-2.886
		c0-1.58-0.904-2.484-3.188-3.363c-2.76-0.977-4.466-2.407-4.466-4.791c0-2.634,2.185-4.591,5.471-4.591
		c1.731,0,2.985,0.401,3.737,0.828l-0.601,1.781c-0.553-0.301-1.681-0.802-3.211-0.802c-2.309,0-3.187,1.38-3.187,2.532
		c0,1.583,1.028,2.361,3.361,3.264c2.86,1.104,4.316,2.484,4.316,4.967c0,2.609-1.932,4.893-5.921,4.893
		c-1.63,0-3.412-0.503-4.316-1.103L117.639,115.533z"/>
	<path fill="#FBB040" d="M132.813,103.139v2.91h3.16v1.682h-3.16v6.546c0,1.506,0.426,2.359,1.655,2.359
		c0.602,0,0.954-0.052,1.279-0.15l0.101,1.654c-0.426,0.177-1.105,0.328-1.957,0.328c-1.028,0-1.857-0.353-2.383-0.953
		c-0.628-0.653-0.854-1.732-0.854-3.163v-6.622h-1.882v-1.682h1.882v-2.233L132.813,103.139z"/>
	<path fill="#FBB040" d="M139.533,112.521c0.051,2.985,1.956,4.214,4.164,4.214c1.583,0,2.536-0.275,3.362-0.626l0.376,1.58
		c-0.777,0.352-2.107,0.779-4.04,0.779c-3.736,0-5.97-2.483-5.97-6.146c0-3.664,2.158-6.549,5.694-6.549
		c3.965,0,5.018,3.488,5.018,5.72c0,0.452-0.05,0.803-0.076,1.028H139.533z M146.007,110.942c0.023-1.406-0.577-3.588-3.06-3.588
		c-2.235,0-3.211,2.058-3.388,3.588H146.007z"/>
	<path fill="#FBB040" d="M150.87,110.012c0-1.553-0.05-2.809-0.099-3.962h1.981l0.1,2.082h0.05c0.904-1.481,2.333-2.358,4.315-2.358
		c2.936,0,5.145,2.482,5.145,6.172c0,4.365-2.661,6.523-5.521,6.523c-1.605,0-3.009-0.705-3.737-1.907h-0.051v6.597h-2.183V110.012z
		 M153.052,113.25c0,0.326,0.051,0.625,0.102,0.904c0.4,1.53,1.73,2.583,3.31,2.583c2.335,0,3.688-1.907,3.688-4.69
		c0-2.434-1.28-4.517-3.613-4.517c-1.504,0-2.91,1.08-3.336,2.736c-0.075,0.274-0.15,0.602-0.15,0.904V113.25z"/>
	<path fill="#FBB040" d="M172.715,101.282v16.909h-2.183v-16.909H172.715z"/>
	<path fill="#FBB040" d="M176.703,109.336c0-1.254-0.026-2.283-0.101-3.287h1.957l0.125,2.007h0.052
		c0.603-1.154,2.006-2.283,4.015-2.283c1.681,0,4.29,1.004,4.29,5.169v7.249h-2.209v-6.999c0-1.958-0.727-3.588-2.809-3.588
		c-1.455,0-2.585,1.029-2.961,2.259c-0.099,0.276-0.15,0.652-0.15,1.028v7.3h-2.207V109.336z"/>
	<path fill="#FBB040" d="M191.551,118.468c-0.853,0-1.455-0.678-1.455-1.582c0-0.928,0.627-1.579,1.504-1.579
		c0.878,0,1.481,0.651,1.481,1.579c0,0.904-0.577,1.582-1.504,1.582H191.551z"/>
	<path fill="#FBB040" d="M200.905,115.533c0.977,0.603,2.409,1.104,3.913,1.104c2.234,0,3.538-1.179,3.538-2.886
		c0-1.58-0.903-2.484-3.187-3.363c-2.76-0.977-4.466-2.407-4.466-4.791c0-2.634,2.184-4.591,5.471-4.591
		c1.731,0,2.985,0.401,3.738,0.828l-0.602,1.781c-0.554-0.301-1.681-0.802-3.211-0.802c-2.309,0-3.187,1.38-3.187,2.532
		c0,1.583,1.029,2.361,3.362,3.264c2.861,1.104,4.315,2.484,4.315,4.967c0,2.609-1.93,4.893-5.921,4.893
		c-1.628,0-3.411-0.503-4.315-1.103L200.905,115.533z"/>
	<path fill="#FBB040" d="M213.495,110.012c0-1.553-0.049-2.809-0.099-3.962h1.98l0.102,2.082h0.05
		c0.903-1.481,2.332-2.358,4.314-2.358c2.936,0,5.144,2.482,5.144,6.172c0,4.365-2.661,6.523-5.52,6.523
		c-1.606,0-3.01-0.705-3.738-1.907h-0.051v6.597h-2.182V110.012z M215.677,113.25c0,0.326,0.051,0.625,0.102,0.904
		c0.401,1.53,1.73,2.583,3.311,2.583c2.335,0,3.689-1.907,3.689-4.69c0-2.434-1.281-4.517-3.614-4.517
		c-1.504,0-2.91,1.08-3.336,2.736c-0.075,0.274-0.151,0.602-0.151,0.904V113.25z"/>
	<path fill="#FBB040" d="M228.994,112.521c0.052,2.985,1.958,4.214,4.166,4.214c1.582,0,2.535-0.275,3.363-0.626l0.376,1.58
		c-0.777,0.352-2.107,0.779-4.041,0.779c-3.735,0-5.969-2.483-5.969-6.146c0-3.664,2.158-6.549,5.694-6.549
		c3.965,0,5.017,3.488,5.017,5.72c0,0.452-0.049,0.803-0.075,1.028H228.994z M235.468,110.942c0.024-1.406-0.576-3.588-3.061-3.588
		c-2.233,0-3.21,2.058-3.387,3.588H235.468z"/>
	<path fill="#FBB040" d="M248.86,115.281c0,1.055,0.05,2.084,0.199,2.91h-2.004l-0.177-1.53h-0.075
		c-0.678,0.954-1.982,1.808-3.712,1.808c-2.458,0-3.712-1.732-3.712-3.488c0-2.935,2.609-4.54,7.301-4.516v-0.249
		c0-1.005-0.278-2.811-2.762-2.811c-1.128,0-2.307,0.35-3.159,0.903l-0.502-1.454c1.003-0.653,2.459-1.08,3.989-1.08
		c3.712,0,4.616,2.534,4.616,4.967V115.281z M246.729,111.994c-2.409-0.049-5.144,0.378-5.144,2.736c0,1.43,0.953,2.107,2.082,2.107
		c1.581,0,2.586-1.002,2.937-2.031c0.076-0.226,0.125-0.477,0.125-0.703V111.994z"/>
	<path fill="#FBB040" d="M254.603,111.618h0.051c0.299-0.426,0.727-0.953,1.079-1.38l3.562-4.188h2.66l-4.693,4.992l5.344,7.149
		h-2.685l-4.188-5.819l-1.129,1.254v4.565h-2.184v-17.812h2.184V111.618z"/>
	<path fill="#FBB040" d="M271.756,101.282v10.01c0,3.789,1.681,5.394,3.939,5.394c2.509,0,4.114-1.655,4.114-5.394v-10.01h2.208
		v9.861c0,5.192-2.734,7.325-6.399,7.325c-3.46,0-6.07-1.982-6.07-7.226v-9.96H271.756z"/>
	<path fill="#FBB040" d="M285.726,110.012c0-1.553-0.05-2.809-0.099-3.962h1.98l0.102,2.082h0.049
		c0.904-1.481,2.334-2.358,4.315-2.358c2.936,0,5.144,2.482,5.144,6.172c0,4.365-2.66,6.523-5.52,6.523
		c-1.605,0-3.009-0.705-3.737-1.907h-0.052v6.597h-2.182V110.012z M287.908,113.25c0,0.326,0.052,0.625,0.102,0.904
		c0.401,1.53,1.73,2.583,3.311,2.583c2.334,0,3.689-1.907,3.689-4.69c0-2.434-1.281-4.517-3.614-4.517
		c-1.505,0-2.911,1.08-3.337,2.736c-0.075,0.274-0.151,0.602-0.151,0.904V113.25z"/>
	<path fill="#FBB040" d="M300.324,118.468c-0.853,0-1.456-0.678-1.456-1.582c0-0.928,0.627-1.579,1.505-1.579
		c0.878,0,1.481,0.651,1.481,1.579c0,0.904-0.578,1.582-1.505,1.582H300.324z"/>
</g>
</svg>
