<?xml version="1.0" encoding="utf-8"?>
<!-- Generator: Adobe Illustrator 16.1.0, SVG Export Plug-In . SVG Version: 6.00 Build 0)  -->
<!DOCTYPE svg PUBLIC "-//W3C//DTD SVG 1.1//EN" "http://www.w3.org/Graphics/SVG/1.1/DTD/svg11.dtd">
<svg version="1.1" id="Layer_1" xmlns="http://www.w3.org/2000/svg" xmlns:xlink="http://www.w3.org/1999/xlink" x="0px" y="0px"
	 width="285px" height="285px" viewBox="0 0 285 285" enable-background="new 0 0 285 285" xml:space="preserve">
<g>
	<path fill="#231F20" d="M196.147,145.486c-14.014,0-25.401-11.391-25.401-25.401c0-14.006,11.385-25.4,25.401-25.4
		c14.005,0,25.398,11.395,25.398,25.4C221.543,134.096,210.154,145.486,196.147,145.486z M196.147,110.294
		c-5.396,0-9.79,4.39-9.79,9.791c0,5.406,4.397,9.793,9.79,9.793c5.408,0,9.798-4.387,9.798-9.793
		C205.943,114.685,201.557,110.294,196.147,110.294z"/>
	<g>
		<path fill="#231F20" d="M209.847,55.576c-0.446,0-0.896,0.029-1.344,0.036c-8.74-29.216-35.806-50.503-67.851-50.503h-0.079
			c-32.054,0-59.12,21.288-67.849,50.503c-0.451-0.007-0.903-0.036-1.359-0.036c-23.377,0-42.323,18.958-42.323,42.332
			c0,10.927,4.134,25.044,10.919,32.547h19.649c-1.231-3.218-1.911-6.719-1.911-10.37c0-4.626,1.089-9.006,3.021-12.897h-9.729
			c-1.313-2.956-1.999-5.97-1.999-9.279c0-12.931,10.513-23.443,23.404-23.443c0.118,0,0.245,0.015,0.353,0.015l0.504,0.014
			c0.186,0,10.217,0.008,10.388,0.008c8.326,0,7.595-5.464,9.994-13.473c3.138-10.486,7.934-19.91,16.714-26.559
			c9.052-6.855,19.868-10.486,31.285-10.486h0.088c11.393,0,22.207,3.631,31.271,10.486c8.778,6.649,13.579,16.073,16.717,26.559
			c2.393,8.009,1.674,13.473,9.989,13.473c0.18,0,10.22-0.008,10.393-0.008l0.493-0.014c0.115,0,0.235-0.015,0.355-0.015
			c12.905,0,23.419,10.512,23.419,23.443c0,3.31-0.699,6.323-2.008,9.279h-10.061c1.933,3.896,3.021,8.271,3.021,12.897
			c0,3.653-0.685,7.152-1.912,10.37h17.85c6.789-7.502,10.933-21.623,10.933-32.547C252.181,74.531,233.223,55.576,209.847,55.576z"
			/>
		<path fill="#231F20" d="M170.003,107.188h-56.997c1.928,3.896,3.024,8.271,3.024,12.897c0,3.653-0.683,7.152-1.914,10.37h54.774
			c-1.229-3.218-1.914-6.719-1.914-10.37C166.977,115.459,168.072,111.085,170.003,107.188z"/>
	</g>
	<path fill="#231F20" d="M86.864,145.486c-14.006,0-25.404-11.391-25.404-25.401c0-14.006,11.395-25.4,25.404-25.4
		c14.006,0,25.402,11.395,25.402,25.4C112.262,134.096,100.87,145.486,86.864,145.486z M86.864,109.315
		c-5.943,0-10.773,4.83-10.773,10.77c0,5.948,4.831,10.774,10.773,10.774c5.941,0,10.775-4.826,10.775-10.774
		C97.639,114.145,92.805,109.315,86.864,109.315z"/>
	<g>
		<path fill="#231F20" d="M9.908,107.503h3.45c2.536,0,4.605,2.063,4.605,4.61c0,2.542-2.069,4.601-4.605,4.601h-2.399H8.857H6.138
			c-2.538,0-4.595-2.06-4.595-4.601c0-2.546,2.052-4.61,4.595-4.61h4.473H9.908z"/>
		<path fill="#231F20" d="M4.507,121.251c-2.545,0-4.607,2.061-4.607,4.602c0,2.544,2.062,4.6,4.607,4.6h18.307
			c2.546,0,4.611-2.056,4.611-4.6c0-2.541-2.064-4.602-4.611-4.602H4.507z"/>
	</g>
	<g>
		<path fill="#231F20" d="M272.889,107.503h-3.444c-2.547,0-4.607,2.063-4.607,4.61c0,2.542,2.061,4.601,4.607,4.601h2.402h2.102
			h2.717c2.523,0,4.59-2.06,4.59-4.601c0-2.546-2.062-4.61-4.59-4.61h-4.48H272.889z"/>
		<path fill="#231F20" d="M278.295,121.251c2.546,0,4.597,2.061,4.597,4.602c0,2.544-2.051,4.6-4.597,4.6h-18.317
			c-2.541,0-4.601-2.056-4.601-4.6c0-2.541,2.06-4.602,4.601-4.602H278.295z"/>
	</g>
	<g>
		<path fill="#231F20" d="M1.588,142.786c-0.488,0-0.958,0.22-1.284,0.587c-0.309,0.368-0.456,0.863-0.386,1.347
			c4.797,33.739,21.645,64.738,47.433,87.3c26.028,22.768,59.43,35.299,94.057,35.299c34.606,0,68.015-12.524,94.033-35.287
			c25.78-22.537,42.628-53.526,47.439-87.25c0.075-0.486-0.069-0.973-0.396-1.35c-0.323-0.368-0.781-0.579-1.279-0.586
			L1.588,142.786L1.588,142.786z"/>
	</g>
	<g>
		<path fill="#FFFFFF" d="M250.208,164.557h-1.219v3.428h-1.294v-3.428h-1.212v-1.06h3.725V164.557z M256.267,167.984h-1.064v-3.428
			h-0.021l-1.222,3.428h-0.66l-1.223-3.428h-0.016v3.428h-1.068v-4.487h1.714l0.904,2.593h0.024l0.914-2.593h1.72v4.487H256.267z"/>
	</g>
	<g>
		<path fill="#FFFFFF" d="M41.972,169.727v4.757h8.119v6.277h-8.119v11.191H34.56v-28.504h16.369v6.282h-8.956V169.727z"/>
		<path fill="#FFFFFF" d="M62.32,185.672h8.884v6.278H54.917v-28.503h7.403V185.672z"/>
		<path fill="#FFFFFF" d="M81.294,191.95H73.89v-28.503h7.404V191.95z"/>
		<path fill="#FFFFFF" d="M115.173,176.037c-0.076,4.153-0.382,7.707-2.912,11.26c-2.798,3.895-6.997,5.594-11.754,5.594
			c-8.957,0-15.191-6.091-15.191-15.042c0-9.262,6.275-15.344,15.459-15.344c5.856,0,10.392,2.643,12.852,7.977l-7.028,2.946
			c-1.021-2.727-3.175-4.538-6.159-4.538c-4.875,0-7.404,4.649-7.404,8.989c0,4.422,2.644,8.921,7.519,8.921
			c3.216,0,5.675-1.659,5.977-4.943h-6.046v-5.821h14.688V176.037z"/>
		<path fill="#FFFFFF" d="M137.144,174.44v-10.993h7.412v28.503h-7.412v-11.689h-10.688v11.689h-7.406v-28.503h7.406v10.993H137.144
			z"/>
		<path fill="#FFFFFF" d="M160.916,191.95h-7.404v-22.224h-6.129v-6.279h19.656v6.279h-6.123V191.95z"/>
		<path fill="#FFFFFF" d="M189.923,173.015c-1.508-2.043-3.969-3.144-6.505-3.144c-4.538,0-7.599,3.476-7.599,7.903
			c0,4.495,3.099,7.738,7.723,7.738c2.412,0,4.828-1.166,6.381-3.021v8.881c-2.464,0.76-4.236,1.325-6.541,1.325
			c-3.962,0-7.75-1.514-10.691-4.194c-3.144-2.844-4.579-6.546-4.579-10.775c0-3.899,1.473-7.637,4.194-10.434
			c2.799-2.87,6.844-4.611,10.856-4.611c2.373,0,4.565,0.532,6.762,1.441L189.923,173.015L189.923,173.015z"/>
		<path fill="#FFFFFF" d="M202.277,186.998l-1.97,4.952h-7.863l10.966-28.503h8.086l10.734,28.503h-7.895l-1.852-4.952H202.277z
			 M207.454,172.256h-0.072l-3.062,9.068h6.159L207.454,172.256z"/>
		<path fill="#FFFFFF" d="M248.603,191.95h-9.221l-6.998-10.965h-0.068v10.965h-7.417v-28.503h11.078
			c5.63,0,9.895,2.686,9.895,8.766c0,3.934-2.186,7.331-6.233,8.046L248.603,191.95z M232.319,176.223h0.711
			c2.417,0,5.142-0.454,5.142-3.551c0-3.104-2.725-3.56-5.142-3.56h-0.711V176.223z"/>
	</g>
	<g>
		<g>
			<path fill="#FFFFFF" d="M89.391,218.043h-2.795l-2.113-3.312h-0.025v3.312h-2.236v-8.618h3.351c1.702,0,2.991,0.813,2.991,2.653
				c0,1.198-0.663,2.222-1.882,2.438L89.391,218.043z M84.461,213.294h0.22c0.728,0,1.553-0.139,1.553-1.072
				c0-0.947-0.825-1.084-1.553-1.084h-0.22V213.294z"/>
			<path fill="#FFFFFF" d="M97.532,209.419v4.846c0,1.117-0.044,2.212-0.903,3.042c-0.72,0.717-1.851,0.966-2.862,0.966
				c-1.003,0-2.137-0.254-2.856-0.966c-0.854-0.829-0.903-1.93-0.903-3.042v-4.846h2.24v4.541c0,1.123,0.08,2.345,1.517,2.345
				c1.436,0,1.521-1.228,1.521-2.345v-4.541H97.532z"/>
			<path fill="#FFFFFF" d="M99.232,209.419h2.24l4.101,5.283h0.021v-5.283h2.241v8.622h-2.241l-4.097-5.274h-0.024v5.276h-2.24
				L99.232,209.419L99.232,209.419z"/>
			<path fill="#FFFFFF" d="M114.234,211.643c-0.414-0.339-0.944-0.565-1.484-0.565c-0.414,0-0.961,0.23-0.961,0.712
				c0,0.505,0.609,0.702,0.997,0.819l0.569,0.181c1.203,0.351,2.127,0.958,2.127,2.346c0,0.862-0.204,1.741-0.891,2.331
				c-0.674,0.569-1.58,0.81-2.452,0.81c-1.08,0-2.143-0.372-3.025-0.981l0.957-1.815c0.56,0.496,1.223,0.899,1.991,0.899
				c0.53,0,1.09-0.259,1.09-0.873c0-0.624-0.881-0.843-1.362-0.982c-1.409-0.396-2.333-0.768-2.333-2.429
				c0-1.75,1.244-2.896,2.967-2.896c0.871,0,1.935,0.274,2.699,0.707L114.234,211.643z"/>
			<path fill="#FFFFFF" d="M130.131,213.567c0,2.795-2.002,4.768-4.769,4.768c-2.77,0-4.77-1.973-4.77-4.768
				c0-2.604,2.285-4.43,4.77-4.43C127.85,209.138,130.131,210.964,130.131,213.567z M122.927,213.582c0,1.487,1.103,2.57,2.438,2.57
				c1.334,0,2.431-1.08,2.431-2.57c0-1.184-1.097-2.274-2.431-2.274C124.029,211.308,122.927,212.398,122.927,213.582z"/>
			<path fill="#FFFFFF" d="M131.441,209.419h2.243l4.103,5.283h0.019v-5.283h2.244v8.622h-2.244l-4.101-5.28h-0.021v5.28h-2.243
				V209.419z"/>
			<path fill="#FFFFFF" d="M148.731,208.295c-0.938,1.51-1.319,3.43-1.319,5.184c0,1.636,0.412,3.794,1.319,5.174l-1.245,0.705
				c-1.199-1.56-1.66-4.08-1.66-6.008c0-1.887,0.543-4.219,1.66-5.766L148.731,208.295z"/>
			<path fill="#FFFFFF" d="M155.899,212.317c-0.457-0.612-1.201-0.952-1.963-0.952c-1.374,0-2.302,1.059-2.302,2.386
				c0,1.357,0.938,2.343,2.334,2.343c0.731,0,1.465-0.348,1.931-0.912v2.684c-0.744,0.229-1.281,0.406-1.979,0.406
				c-1.196,0-2.341-0.459-3.235-1.277c-0.943-0.852-1.383-1.975-1.383-3.252c0-1.175,0.45-2.309,1.274-3.154
				c0.847-0.87,2.067-1.398,3.279-1.398c0.718,0,1.387,0.165,2.044,0.441V212.317L155.899,212.317z"/>
			<path fill="#FFFFFF" d="M159.745,216.541l-0.599,1.499h-2.378l3.32-8.621h2.449l3.236,8.621h-2.382l-0.568-1.499H159.745z
				 M161.312,212.092h-0.03l-0.922,2.737h1.862L161.312,212.092z"/>
			<path fill="#FFFFFF" d="M173.859,218.043h-2.789l-2.118-3.312h-0.021v3.312h-2.238v-8.618h3.349c1.704,0,2.997,0.813,2.997,2.653
				c0,1.198-0.663,2.222-1.889,2.438L173.859,218.043z M168.937,213.294h0.212c0.732,0,1.555-0.139,1.555-1.072
				c0-0.947-0.823-1.084-1.555-1.084h-0.216v2.156H168.937L168.937,213.294z"/>
			<path fill="#FFFFFF" d="M175.824,207.586c1.121,1.545,1.656,3.878,1.656,5.765c0,1.929-0.457,4.448-1.656,6.008l-1.25-0.702
				c0.918-1.384,1.312-3.545,1.312-5.175c0-1.757-0.376-3.675-1.312-5.185L175.824,207.586z"/>
			<path fill="#FFFFFF" d="M180.491,209.419h2.204l1.75,4.609l1.856-4.609h2.221l1.299,8.621h-2.233l-0.626-4.957h-0.024
				l-2.071,4.957h-0.893l-1.972-4.957h-0.028l-0.718,4.957h-2.231L180.491,209.419z"/>
			<path fill="#FFFFFF" d="M193.462,216.541l-0.589,1.499h-2.385l3.321-8.621h2.446l3.242,8.621h-2.386l-0.566-1.499H193.462z
				 M195.029,212.092h-0.021l-0.929,2.737h1.864L195.029,212.092z"/>
		</g>
	</g>
</g>
</svg>
