<?xml version="1.0" encoding="utf-8"?>
<!-- Generator: Adobe Illustrator 16.1.0, SVG Export Plug-In . SVG Version: 6.00 Build 0)  -->
<!DOCTYPE svg PUBLIC "-//W3C//DTD SVG 1.1//EN" "http://www.w3.org/Graphics/SVG/1.1/DTD/svg11.dtd">
<svg version="1.1" id="Layer_1" xmlns="http://www.w3.org/2000/svg" xmlns:xlink="http://www.w3.org/1999/xlink" x="0px" y="0px"
	 width="490px" height="150px" viewBox="-143 90 490 150" enable-background="new -143 90 490 150" xml:space="preserve">
<g>
	<g>
		<polygon fill="#A5A8AB" points="-73.195,154.646 -94.453,168.005 -94.368,182.72 -73.211,169.479 		"/>
		<polygon fill="#231F20" points="-106.846,175.798 -106.846,132.82 -73.195,154.646 		"/>
		<g>
			<polygon fill="#59595C" points="-94.342,167.935 -106.846,175.798 -106.846,201.21 -94.368,201.21 -94.368,168.076 
				-94.342,168.058 			"/>
			<polygon fill="#414141" points="-73.241,154.679 -73.228,154.665 -73.241,154.679 			"/>
			<polygon fill="#414141" points="-73.228,154.665 -73.195,154.646 -73.195,154.646 			"/>
			<polygon fill="#231F20" points="-73.195,154.646 -73.211,169.479 -51.776,156.071 -51.399,201.21 -38.461,201.21 -38.461,132.82 
							"/>
		</g>
		<g>
			<defs>
				<polygon id="SVGID_1_" points="-106.846,176.021 -106.846,132.82 -73.195,154.646 				"/>
			</defs>
			<clipPath id="SVGID_2_">
				<use xlink:href="#SVGID_1_"  overflow="visible"/>
			</clipPath>
			<polygon clip-path="url(#SVGID_2_)" fill="#D0D1D2" points="-94.342,167.935 -111.348,159.334 -111.355,178.629 			"/>
		</g>
	</g>
	<path fill="#231F20" d="M-122.755,114.964v102.318H326V114.964H-122.755z M-118.412,119.309h92.683v93.628h-92.683V119.309z
		 M321.657,212.937H-21.386v-93.628h343.043V212.937z"/>
	<g>
		<path fill="#231F20" d="M25.882,186.933l-9.758-23.492l-2.534-6.665l0.158,15.441v14.716H8.687v-40.278h5.577l10.534,25.41
			l3.253,8.466l3.252-8.466l10.534-25.41h5.579v40.278h-5.061v-14.716l0.153-15.441l-2.528,6.665l-9.762,23.492H25.882z"/>
		<path fill="#231F20" d="M57.713,166.795c0-12.601,5.268-20.761,17.556-20.761c12.286,0,17.554,8.16,17.554,20.761
			c0,12.6-5.268,20.76-17.554,20.76C62.98,187.555,57.713,179.395,57.713,166.795z M63.08,166.795
			c0,8.572,2.43,16.057,12.189,16.057c9.759,0,12.184-7.484,12.184-16.057c0-8.574-2.425-16.064-12.184-16.064
			C65.509,150.73,63.08,158.221,63.08,166.795z"/>
		<path fill="#231F20" d="M103.122,186.933v-40.278h13.789c12.19,0,18.541,6.253,18.541,20.141c0,13.885-6.351,20.138-18.541,20.138
			H103.122z M116.911,182.18c9.714,0,13.218-5.986,13.218-15.385c0-9.399-3.504-15.39-13.218-15.39h-8.625v30.774H116.911z"/>
		<path fill="#231F20" d="M145.288,172.366v-25.712h5.267v25.77c0,5.782,1.863,10.428,10.954,10.428
			c9.08,0,10.94-4.646,10.94-10.428v-25.77h5.27v25.712c0,8.624-3.875,15.188-16.21,15.188
			C149.161,187.555,145.288,180.99,145.288,172.366z"/>
		<path fill="#231F20" d="M194.034,182.18h20.453v4.753h-25.609v-40.278h5.156V182.18z"/>
		<path fill="#231F20" d="M221.604,172.366v-25.712h5.266v25.77c0,5.782,1.857,10.428,10.946,10.428
			c9.084,0,10.95-4.646,10.95-10.428v-25.77h5.267v25.712c0,8.624-3.875,15.188-16.217,15.188S221.604,180.99,221.604,172.366z"/>
		<path fill="#231F20" d="M289.096,175.367c0-4.492-2.327-6.402-10.279-7.175c-7.23-0.677-14.145-2.277-14.192-10.434
			c-0.055-8.113,6.446-11.725,14.04-11.725c10.273,0,14.613,4.493,15.484,11l-5.264,0.569c-0.72-4.854-3.768-6.873-10.221-6.873
			c-3.259,0.053-8.882,1.191-8.832,6.974c0,3.514,1.706,5.063,9.14,5.89c9.654,0.924,15.177,2.684,15.236,11.719
			c0,8.572-7.59,12.242-15.392,12.242c-10.584,0-14.764-4.545-15.688-11.259l5.254-0.514c0.832,5.005,3.975,7.069,10.435,7.069
			C283.561,182.803,289.096,180.941,289.096,175.367z"/>
	</g>
	<polygon fill="#57C1A7" points="-110.444,179.152 -128.482,186.821 -130.31,198.269 -112.292,190.632 	"/>
	<polygon fill="#57C1A7" points="-10.768,129.754 -29.034,122.649 -36.994,126.588 -18.769,133.705 	"/>
	<polygon fill="#57C1A7" points="-29.369,138.788 -33.254,137.803 -32.369,141.78 	"/>
	<polygon fill="#57C1A7" points="-43.062,131.27 -47.541,128.177 -48.291,133.657 	"/>
	<polygon fill="#57C1A7" points="-126.086,203.082 -131.565,204.485 -134.535,213.761 -129.984,215.214 -126.114,203.135 
		-126.098,203.127 	"/>
	
		<rect x="-139.707" y="212.661" transform="matrix(0.9869 -0.1615 0.1615 0.9869 -37.2095 -19.4631)" fill="#57C1A7" width="2.692" height="13.115"/>
</g>
</svg>
