<?xml version="1.0" encoding="utf-8"?>
<!-- Generator: Adobe Illustrator 16.1.0, SVG Export Plug-In . SVG Version: 6.00 Build 0)  -->
<!DOCTYPE svg PUBLIC "-//W3C//DTD SVG 1.1//EN" "http://www.w3.org/Graphics/SVG/1.1/DTD/svg11.dtd">
<svg version="1.1" id="Layer_1" xmlns="http://www.w3.org/2000/svg" xmlns:xlink="http://www.w3.org/1999/xlink" x="0px" y="0px"
	 width="400px" height="170px" viewBox="0 0 400 170" enable-background="new 0 0 400 170" xml:space="preserve">
<g>
	<g>
		<path fill="#231F20" d="M252.707,47.585l-3.008,8.341l90.048,14.029c10.906-3.943,21.964-8.734,32.224-14.523L252.707,47.585z"/>
		<path fill="#231F20" d="M245.965,66.28l62.665,12.933l-0.026,0.133c8.342-2.076,17.508-4.675,26.881-7.889l-86.379-13.458
			l0.117-0.75L245.965,66.28z"/>
	</g>
	<g>
		<path fill="#231F20" d="M91.398,79.346l-0.028-0.133l62.666-12.933l-3.26-9.036l0.118,0.755L64.516,71.455
			C73.89,74.671,83.056,77.27,91.398,79.346z"/>
		<path fill="#231F20" d="M28.031,55.432c10.258,5.789,21.314,10.58,32.221,14.523l90.049-14.029l-3.008-8.341L28.031,55.432z"/>
	</g>
	<path fill="#231F20" d="M243.6,33.713c-6.937-17.282-23.838-29.492-43.598-29.492c-19.763,0-36.663,12.209-43.601,29.492L0,34.299
		c6.978,7.332,15.461,13.693,24.706,19.207l124.053-8.161l4.921,13.646c0.523,3.128,1.354,6.153,2.464,9.039L95.968,80.449
		c19.145,4.495,32.928,6.097,32.928,6.097c3.913-1.521,16.817-6.216,30.776-11.261c8.205,13.709,23.193,22.889,40.33,22.889
		c17.134,0,32.124-9.18,40.33-22.889c13.957,5.045,26.863,9.74,30.775,11.261c0,0,13.784-1.602,32.927-6.097L243.855,68.03
		c1.111-2.886,1.941-5.909,2.465-9.039l4.922-13.646l124.052,8.161c9.245-5.514,17.729-11.875,24.706-19.207L243.6,33.713z"/>
	<path fill="#FFFFFF" d="M227.662,54.546l-0.324,0.372c-2.695,3.162-5.904,5.766-8.832,6.789c0.79-1.258,1.395-2.606,1.998-3.627
		l5.347-9.158c4.508-7.671-2.79-10.228-7.719-5.812l0.978-1.673h-4.836l-7.56,13.117c-0.007-0.001-0.012-0.006-0.017-0.009
		l-0.327,0.372c-3.485,4.045-6.88,7.253-9.017,7.253c-1.07,0-1.674-0.742-0.559-2.651l10.368-18.082h3.95l1.396-2.324h-3.997
		l4.555-7.903h-4.833l-4.559,7.903h-4.368l-0.197,0.326c4.885-10.406-9.313-16.793-16.034-5.068
		c-1.487,2.557-1.952,4.927-1.673,7.066h-2.37l-7.719,13.387c-7.762,13.438,8.508,18.225,16.551,4.276l5.16-9.018
		c1.559-0.021,3.189-0.313,4.82-0.884l-5.233,9.065c-2.048,3.581-0.605,6.883,3.299,6.883c1.98,0,4.109-1.052,6.24-2.677
		l-7.169,12.438h4.881l14.459-25.15c5.393-7.345,8.785-4.648,7.529-2.463l-7.298,12.645c-0.789,1.393-2.603,1.812-3.485,0
		l-2.745,1.302c0,0,0.883,3.906,5.302,3.906h0.279c7.02-0.144,11.622-4.323,15.571-8.927
		C229.197,55.476,228.361,54.733,227.662,54.546z M182.845,59.476c-3.767,6.508-12.414,5.484-8.182-1.862l7.625-13.248
		c1.252,2.418,3.532,4.185,6.32,5.067L182.845,59.476z M190.189,46.736c-4.091-1.162-6.23-5.207-3.346-10.599
		c4.371-8.089,11.622-3.766,8.042,2.464L190.189,46.736z M194.884,46.876l3.131-5.438h4.311l-1.735,3.004
		C198.673,45.745,196.718,46.536,194.884,46.876z"/>
</g>
</svg>
