<?xml version="1.0" encoding="utf-8"?>
<!-- Generator: Adobe Illustrator 16.1.0, SVG Export Plug-In . SVG Version: 6.00 Build 0)  -->
<!DOCTYPE svg PUBLIC "-//W3C//DTD SVG 1.1//EN" "http://www.w3.org/Graphics/SVG/1.1/DTD/svg11.dtd">
<svg version="1.1" id="Layer_1" xmlns="http://www.w3.org/2000/svg" xmlns:xlink="http://www.w3.org/1999/xlink" x="0px" y="0px"
	 width="475px" height="83px" viewBox="0 0 475 83" enable-background="new 0 0 475 83" xml:space="preserve">
<g>
	<path fill="#00ADEE" d="M45.028,49.562c0-10.396,8.534-18.93,19.004-18.93c10.54,0,19.073,8.535,19.073,18.93
		c0,10.543-8.534,19.078-19.073,19.078C53.562,68.64,45.028,60.104,45.028,49.562z M49.546,49.562
		c0,8.032,6.597,14.488,14.486,14.488c8.033,0,14.557-6.456,14.557-14.488c0-7.885-6.524-14.341-14.557-14.341
		C56.144,35.221,49.546,41.677,49.546,49.562z"/>
</g>
<g>
	<path fill="#00ADEE" d="M86.975,49.707c0-10.541,8.604-19.076,19.147-19.076c4.159,0,8.248,1.293,11.546,3.875
		c2.868,2.221-0.146,5.877-2.867,3.725c-2.581-2.006-5.593-2.936-8.679-2.936c-7.961,0-14.627,6.307-14.627,14.412
		c0,7.815,6.666,14.269,14.627,14.269c3.085,0,6.098-0.93,8.679-3.012c2.579-2.078,5.664,1.509,2.867,3.73
		c-3.227,2.582-7.387,3.945-11.546,3.945C95.58,68.64,86.975,60.104,86.975,49.707z"/>
</g>
<g>
	<path fill="#00ADEE" d="M129.717,63.261V36.298c0-0.719-0.503-0.934-0.503-0.934c-0.86-0.358-1.363-1.217-1.363-2.082
		c0-1.358,1.148-2.292,2.438-2.292c2.655,0,4.019,2.292,4.019,5.018v26.962c0,0.719,0.499,0.933,0.499,0.933
		c0.862,0.36,1.363,1.219,1.363,2.079c0,1.362-1.148,2.297-2.436,2.297C131.078,68.28,129.717,65.983,129.717,63.261z
		 M127.995,21.476c0-1.863,1.505-3.296,3.298-3.296s3.372,1.434,3.372,3.226c0,1.863-1.505,3.372-3.372,3.372
		C129.5,24.777,127.995,23.269,127.995,21.476z"/>
</g>
<g>
	<path fill="#00ADEE" d="M167.914,64.908c-0.144-0.574-0.144-1.433-0.144-2.151c-2.009,3.661-7.242,5.883-11.473,5.883
		c-7.1,0-13.696-4.16-13.696-11.905c0-9.324,7.601-13.555,16.349-13.555c3.081,0,6.525,0.934,8.82,2.368c0-0.432,0-1.294,0-2.008
		c0-1.648-0.215-3.655-0.43-4.23c-1.148-3.157-5.235-4.089-9.394-4.089c-3.155,0-5.376,0.504-8.247,1.292
		c-0.287,0.07-0.717,0.14-1.006,0.14c-1.289,0-2.222-0.929-2.222-2.221c0-0.93,0.647-1.793,1.578-2.153
		c2.653-1.003,6.167-1.648,9.609-1.648c5.951,0,11.905,1.648,13.981,7.025c0.647,1.653,0.72,3.73,0.72,5.738v19.577
		c0,0.719,0.502,0.933,0.502,0.933c0.862,0.36,1.361,1.219,1.361,2.079c0,1.362-1.146,2.656-2.438,2.656
		C169.707,68.64,168.415,66.845,167.914,64.908z M167.77,49.991c-3.226-1.792-5.88-2.221-9.035-2.221
		c-5.81,0-11.546,2.581-11.546,8.894c0,5.089,4.66,7.455,9.25,7.455c5.309,0,11.331-3.439,11.331-9.324V49.991z"/>
</g>
<g>
	<path fill="#1B75BB" d="M210.786,10.719v55.195c0,1.287-1.078,2.366-2.297,2.366c-1.289,0-2.293-1.079-2.293-2.366V10.719h-16.923
		c-1.293,0-2.297-1.003-2.297-2.292c0-1.293,1.004-2.297,2.297-2.297h38.362c1.291,0,2.367,1.004,2.367,2.297
		c0,1.289-1.076,2.292-2.367,2.292H210.786z"/>
</g>
<g>
	<path fill="#00ADEE" d="M255.978,63.261V47.34c0-6.811-3.584-11.761-11.328-11.761c-5.523,0-10.902,3.8-10.902,10.253v17.429
		c0,2.581-1.004,4.874-3.656,5.02c-1.938,0-2.725-1.219-2.795-2.297c0-1.145,0.572-1.719,1.361-2.079c0,0,0.5-0.214,0.5-0.933
		V23.484c0-0.714-0.5-0.929-0.5-0.929c-0.863-0.359-1.361-1.219-1.361-2.083c0-1.363,1.145-2.292,2.438-2.292
		c2.65,0,4.014,2.292,4.014,5.019v13.669c0.43-0.858,3.73-5.876,10.902-5.876c10.971,0,15.918,6.236,15.918,16.924v15.057
		c0,0.719,0.502,0.933,0.502,0.933c0.861,0.36,1.363,1.219,1.363,2.079c0,1.362-1.15,2.297-2.438,2.297
		C257.341,68.28,255.978,65.983,255.978,63.261z"/>
</g>
<g>
	<path fill="#00ADEE" d="M275.173,33.573c0.07,0.215,0.217,0.859,0.217,1.503c1.793-2.797,5.162-4.445,8.674-4.445
		c2.15,0,4.375,0.36,6.527,1.148c0.934,0.359,1.578,1.074,1.578,2.292c0,1.722-1.65,2.655-3.156,2.152
		c-1.506-0.5-3.299-0.86-4.949-0.86c-4.086,0-8.391,2.153-8.391,6.668v21.229c0,2.723-1.363,5.02-4.014,5.02
		c-1.291,0-2.439-0.935-2.439-2.297c0-0.86,0.502-1.719,1.365-2.079c0,0,0.5-0.214,0.5-0.933V36.298c0-0.719-0.5-0.934-0.5-0.934
		c-0.863-0.358-1.365-1.217-1.365-2.082c0-1.358,1.148-2.292,2.439-2.292C273.382,30.991,274.601,32.065,275.173,33.573z"/>
</g>
<g>
	<path fill="#00ADEE" d="M298.187,51.93c0.932,6.312,6.096,12.12,12.838,12.12c5.02,0,8.605-1.508,10.971-3.876
		c0.504-0.499,1.148-0.714,1.793-0.714c1.15,0,2.293,0.929,2.293,2.148c0,0.648-0.215,1.224-0.645,1.652
		c-3.227,3.441-7.887,5.379-14.412,5.379c-10.328,0-17.498-8.896-17.498-19.078c0-9.752,7.17-18.93,17.498-18.93
		c10.396,0,17.637,9.108,17.637,18.93c0,1.363-1.217,2.368-2.436,2.368H298.187z M324.003,47.34
		c-0.859-6.382-6.236-12.119-12.979-12.119c-6.598,0-12.119,5.737-12.838,12.119H324.003z"/>
</g>
<g>
	<path fill="#00ADEE" d="M358.808,64.908c-0.145-0.574-0.145-1.433-0.145-2.151c-2.01,3.661-7.24,5.883-11.471,5.883
		c-7.102,0-13.699-4.16-13.699-11.905c0-9.324,7.602-13.555,16.35-13.555c3.084,0,6.527,0.934,8.82,2.368c0-0.432,0-1.294,0-2.008
		c0-1.648-0.215-3.655-0.43-4.23c-1.148-3.157-5.234-4.089-9.395-4.089c-3.156,0-5.379,0.504-8.246,1.292
		c-0.289,0.07-0.717,0.14-1.004,0.14c-1.293,0-2.223-0.929-2.223-2.221c0-0.93,0.646-1.793,1.578-2.153
		c2.652-1.003,6.164-1.648,9.607-1.648c5.951,0,11.902,1.648,13.984,7.025c0.646,1.653,0.715,3.73,0.715,5.738v19.577
		c0,0.719,0.506,0.933,0.506,0.933c0.857,0.36,1.361,1.219,1.361,2.079c0,1.362-1.146,2.656-2.441,2.656
		C360.601,68.64,359.31,66.845,358.808,64.908z M358.663,49.991c-3.229-1.792-5.879-2.221-9.035-2.221
		c-5.807,0-11.545,2.581-11.545,8.894c0,5.089,4.66,7.455,9.25,7.455c5.307,0,11.33-3.439,11.33-9.324V49.991z"/>
</g>
<g>
	<path fill="#00ADEE" d="M399.058,63.261v-1.867c-2.654,4.521-7.744,6.887-12.621,6.887h-0.646c-9.465,0-16.42-8.896-16.42-19.078
		c0-10.322,7.17-18.211,17.066-18.211c4.803,0,10.469,2.292,12.621,6.665V23.199c0-2.727,1.363-5.019,4.016-5.019
		c1.289,0,2.438,0.93,2.438,2.292c0,0.864-0.502,1.723-1.363,2.083c0,0-0.5,0.215-0.5,0.929v39.488c0,0.719,0.5,0.933,0.5,0.933
		c0.861,0.36,1.363,1.219,1.363,2.079c0,1.362-1.148,2.297-2.438,2.297C400.421,68.28,399.058,65.983,399.058,63.261z
		 M386.509,35.51c-7.674,0-12.551,6.452-12.551,13.692c0,7.103,4.805,14.488,12.551,14.488c7.814,0,12.549-7.316,12.549-14.558
		S393.964,35.51,386.509,35.51z"/>
</g>
<g>
	<path fill="#00ADEE" d="M414.065,51.93c0.934,6.312,6.098,12.12,12.84,12.12c5.02,0,8.605-1.508,10.971-3.876
		c0.5-0.499,1.146-0.714,1.793-0.714c1.145,0,2.293,0.929,2.293,2.148c0,0.648-0.215,1.224-0.643,1.652
		c-3.229,3.441-7.893,5.379-14.414,5.379c-10.328,0-17.498-8.896-17.498-19.078c0-9.752,7.17-18.93,17.498-18.93
		c10.396,0,17.639,9.108,17.639,18.93c0,1.363-1.219,2.368-2.436,2.368H414.065z M439.886,47.34
		c-0.863-6.382-6.24-12.119-12.98-12.119c-6.6,0-12.121,5.737-12.84,12.119H439.886z"/>
</g>
<g>
	<path fill="#00ADEE" d="M455.683,33.573c0.072,0.215,0.215,0.859,0.215,1.503c1.793-2.797,5.164-4.445,8.678-4.445
		c2.152,0,4.375,0.36,6.527,1.148c0.93,0.359,1.574,1.074,1.574,2.292c0,1.722-1.65,2.655-3.154,2.152
		c-1.506-0.5-3.299-0.86-4.947-0.86c-4.088,0-8.389,2.153-8.389,6.668v21.229c0,2.723-1.365,5.02-4.016,5.02
		c-1.293,0-2.439-0.935-2.439-2.297c0-0.86,0.5-1.719,1.363-2.079c0,0,0.5-0.214,0.5-0.933V36.298c0-0.719-0.5-0.934-0.5-0.934
		c-0.863-0.358-1.363-1.217-1.363-2.082c0-1.358,1.146-2.292,2.439-2.292C453.89,30.991,455.11,32.065,455.683,33.573z"/>
</g>
<g>
	<path fill="#231F20" stroke="#1B75BB" stroke-width="2.1714" stroke-miterlimit="10" d="M26.685,13.74"/>
</g>
<g>
	<path fill="#1B75BB" d="M20.88,68.892c-8.089,0-16.65-2.808-18.542-7.806c-0.468-1.234,0.154-2.614,1.389-3.081
		c1.236-0.471,2.615,0.153,3.083,1.389c1.034,2.73,10.245,5.877,18.785,4.314c4.573-0.837,10.024-3.245,10.024-9.967
		c0-8.549-6.013-10.476-15.824-12.91c-8.619-2.139-19.346-4.802-19.346-17.394c0-11.029,7.28-17.354,19.976-17.354h162.293
		c1.32,0,2.391,1.07,2.391,2.391s-1.07,2.39-2.391,2.39H20.424c-6.932,0-15.195,2.182-15.195,12.574
		c0,8.425,5.972,10.334,15.717,12.753c8.667,2.152,19.453,4.828,19.453,17.551c0,7.701-5.082,13.048-13.943,14.669
		C24.687,68.734,22.796,68.892,20.88,68.892z"/>
</g>
<g>
	<path fill="#00ADEE" d="M185.587,68.67c-0.65,0-1.449-7.146-1.449-8.463c0,0-1.296-33.303-1.296-38.434
		c0-5.131-5.567-23.956,2.745-23.956c8.314,0,2.671,18.88,2.671,23.792c0,4.912-1.151,38.178-1.151,38.178
		C187.107,61.107,186.239,68.67,185.587,68.67z M187.041,14.924c0.237-2.778,3.207-13.521-1.518-13.521
		c-4.725,0-2.006,10.733-1.559,13.614C184.132,16.091,186.923,16.292,187.041,14.924z"/>
</g>
<g>
	<path fill="#1B75BB" d="M182.178,6.13h16.605c1.289,0,2.367,1.004,2.367,2.297c0,1.289-1.078,2.292-2.367,2.292h-16.854"/>
</g>
<g>
	<path fill="#00ADEE" d="M45.028,49.562c0-10.396,8.534-18.93,19.004-18.93c10.54,0,19.073,8.535,19.073,18.93
		c0,10.543-8.534,19.078-19.073,19.078C53.562,68.64,45.028,60.104,45.028,49.562z M49.546,49.562
		c0,8.032,6.597,14.488,14.486,14.488c8.033,0,14.557-6.456,14.557-14.488c0-7.885-6.524-14.341-14.557-14.341
		C56.144,35.221,49.546,41.677,49.546,49.562z"/>
</g>
<g>
	<path fill="#00ADEE" d="M86.975,49.707c0-10.541,8.604-19.076,19.147-19.076c4.159,0,8.248,1.293,11.546,3.875
		c2.868,2.221-0.146,5.877-2.867,3.725c-2.581-2.006-5.593-2.936-8.679-2.936c-7.961,0-14.627,6.307-14.627,14.412
		c0,7.815,6.666,14.269,14.627,14.269c3.085,0,6.098-0.93,8.679-3.012c2.579-2.078,5.664,1.509,2.867,3.73
		c-3.227,2.582-7.387,3.945-11.546,3.945C95.58,68.64,86.975,60.104,86.975,49.707z"/>
</g>
<g>
	<path fill="#00ADEE" d="M129.717,63.261V36.298c0-0.719-0.503-0.934-0.503-0.934c-0.86-0.358-1.363-1.217-1.363-2.082
		c0-1.358,1.148-2.292,2.438-2.292c2.655,0,4.019,2.292,4.019,5.018v26.962c0,0.719,0.499,0.933,0.499,0.933
		c0.862,0.36,1.363,1.219,1.363,2.079c0,1.362-1.148,2.297-2.436,2.297C131.078,68.28,129.717,65.983,129.717,63.261z
		 M127.995,21.476c0-1.863,1.505-3.296,3.298-3.296s3.372,1.434,3.372,3.226c0,1.863-1.505,3.372-3.372,3.372
		C129.5,24.777,127.995,23.269,127.995,21.476z"/>
</g>
<g>
	<path fill="#00ADEE" d="M167.914,64.908c-0.144-0.574-0.144-1.433-0.144-2.151c-2.009,3.661-7.242,5.883-11.473,5.883
		c-7.1,0-13.696-4.16-13.696-11.905c0-9.324,7.601-13.555,16.349-13.555c3.081,0,6.525,0.934,8.82,2.368c0-0.432,0-1.294,0-2.008
		c0-1.648-0.215-3.655-0.43-4.23c-1.148-3.157-5.235-4.089-9.394-4.089c-3.155,0-5.376,0.504-8.247,1.292
		c-0.287,0.07-0.717,0.14-1.006,0.14c-1.289,0-2.222-0.929-2.222-2.221c0-0.93,0.647-1.793,1.578-2.153
		c2.653-1.003,6.167-1.648,9.609-1.648c5.951,0,11.905,1.648,13.981,7.025c0.647,1.653,0.72,3.73,0.72,5.738v19.577
		c0,0.719,0.502,0.933,0.502,0.933c0.862,0.36,1.361,1.219,1.361,2.079c0,1.362-1.146,2.656-2.438,2.656
		C169.707,68.64,168.415,66.845,167.914,64.908z M167.77,49.991c-3.226-1.792-5.88-2.221-9.035-2.221
		c-5.81,0-11.546,2.581-11.546,8.894c0,5.089,4.66,7.455,9.25,7.455c5.309,0,11.331-3.439,11.331-9.324V49.991z"/>
</g>
<g>
	<path fill="#00ADEE" d="M255.978,63.261V47.34c0-6.811-3.584-11.761-11.328-11.761c-5.523,0-10.902,3.8-10.902,10.253v17.429
		c0,2.581-1.004,4.874-3.656,5.02c-1.938,0-2.725-1.219-2.795-2.297c0-1.145,0.572-1.719,1.361-2.079c0,0,0.5-0.214,0.5-0.933
		V23.484c0-0.714-0.5-0.929-0.5-0.929c-0.863-0.359-1.361-1.219-1.361-2.083c0-1.363,1.145-2.292,2.438-2.292
		c2.65,0,4.014,2.292,4.014,5.019v13.669c0.43-0.858,3.73-5.876,10.902-5.876c10.971,0,15.918,6.236,15.918,16.924v15.057
		c0,0.719,0.502,0.933,0.502,0.933c0.861,0.36,1.363,1.219,1.363,2.079c0,1.362-1.15,2.297-2.438,2.297
		C257.341,68.28,255.978,65.983,255.978,63.261z"/>
</g>
<g>
	<path fill="#00ADEE" d="M275.173,33.573c0.07,0.215,0.217,0.859,0.217,1.503c1.793-2.797,5.162-4.445,8.674-4.445
		c2.15,0,4.375,0.36,6.527,1.148c0.934,0.359,1.578,1.074,1.578,2.292c0,1.722-1.65,2.655-3.156,2.152
		c-1.506-0.5-3.299-0.86-4.949-0.86c-4.086,0-8.391,2.153-8.391,6.668v21.229c0,2.723-1.363,5.02-4.014,5.02
		c-1.291,0-2.439-0.935-2.439-2.297c0-0.86,0.502-1.719,1.365-2.079c0,0,0.5-0.214,0.5-0.933V36.298c0-0.719-0.5-0.934-0.5-0.934
		c-0.863-0.358-1.365-1.217-1.365-2.082c0-1.358,1.148-2.292,2.439-2.292C273.382,30.991,274.601,32.065,275.173,33.573z"/>
</g>
<g>
	<path fill="#00ADEE" d="M298.187,51.93c0.932,6.312,6.096,12.12,12.838,12.12c5.02,0,8.605-1.508,10.971-3.876
		c0.504-0.499,1.148-0.714,1.793-0.714c1.15,0,2.293,0.929,2.293,2.148c0,0.648-0.215,1.224-0.645,1.652
		c-3.227,3.441-7.887,5.379-14.412,5.379c-10.328,0-17.498-8.896-17.498-19.078c0-9.752,7.17-18.93,17.498-18.93
		c10.396,0,17.637,9.108,17.637,18.93c0,1.363-1.217,2.368-2.436,2.368H298.187z M324.003,47.34
		c-0.859-6.382-6.236-12.119-12.979-12.119c-6.598,0-12.119,5.737-12.838,12.119H324.003z"/>
</g>
<g>
	<path fill="#00ADEE" d="M358.808,64.908c-0.145-0.574-0.145-1.433-0.145-2.151c-2.01,3.661-7.24,5.883-11.471,5.883
		c-7.102,0-13.699-4.16-13.699-11.905c0-9.324,7.602-13.555,16.35-13.555c3.084,0,6.527,0.934,8.82,2.368c0-0.432,0-1.294,0-2.008
		c0-1.648-0.215-3.655-0.43-4.23c-1.148-3.157-5.234-4.089-9.395-4.089c-3.156,0-5.379,0.504-8.246,1.292
		c-0.289,0.07-0.717,0.14-1.004,0.14c-1.293,0-2.223-0.929-2.223-2.221c0-0.93,0.646-1.793,1.578-2.153
		c2.652-1.003,6.164-1.648,9.607-1.648c5.951,0,11.902,1.648,13.984,7.025c0.646,1.653,0.715,3.73,0.715,5.738v19.577
		c0,0.719,0.506,0.933,0.506,0.933c0.857,0.36,1.361,1.219,1.361,2.079c0,1.362-1.146,2.656-2.441,2.656
		C360.601,68.64,359.31,66.845,358.808,64.908z M358.663,49.991c-3.229-1.792-5.879-2.221-9.035-2.221
		c-5.807,0-11.545,2.581-11.545,8.894c0,5.089,4.66,7.455,9.25,7.455c5.307,0,11.33-3.439,11.33-9.324V49.991z"/>
</g>
<g>
	<path fill="#00ADEE" d="M399.058,63.261v-1.867c-2.654,4.521-7.744,6.887-12.621,6.887h-0.646c-9.465,0-16.42-8.896-16.42-19.078
		c0-10.322,7.17-18.211,17.066-18.211c4.803,0,10.469,2.292,12.621,6.665V23.199c0-2.727,1.363-5.019,4.016-5.019
		c1.289,0,2.438,0.93,2.438,2.292c0,0.864-0.502,1.723-1.363,2.083c0,0-0.5,0.215-0.5,0.929v39.488c0,0.719,0.5,0.933,0.5,0.933
		c0.861,0.36,1.363,1.219,1.363,2.079c0,1.362-1.148,2.297-2.438,2.297C400.421,68.28,399.058,65.983,399.058,63.261z
		 M386.509,35.51c-7.674,0-12.551,6.452-12.551,13.692c0,7.103,4.805,14.488,12.551,14.488c7.814,0,12.549-7.316,12.549-14.558
		S393.964,35.51,386.509,35.51z"/>
</g>
<g>
	<path fill="#00ADEE" d="M414.065,51.93c0.934,6.312,6.098,12.12,12.84,12.12c5.02,0,8.605-1.508,10.971-3.876
		c0.5-0.499,1.146-0.714,1.793-0.714c1.145,0,2.293,0.929,2.293,2.148c0,0.648-0.215,1.224-0.643,1.652
		c-3.229,3.441-7.893,5.379-14.414,5.379c-10.328,0-17.498-8.896-17.498-19.078c0-9.752,7.17-18.93,17.498-18.93
		c10.396,0,17.639,9.108,17.639,18.93c0,1.363-1.219,2.368-2.436,2.368H414.065z M439.886,47.34
		c-0.863-6.382-6.24-12.119-12.98-12.119c-6.6,0-12.121,5.737-12.84,12.119H439.886z"/>
</g>
<g>
	<path fill="#00ADEE" d="M455.683,33.573c0.072,0.215,0.215,0.859,0.215,1.503c1.793-2.797,5.164-4.445,8.678-4.445
		c2.152,0,4.375,0.36,6.527,1.148c0.93,0.359,1.574,1.074,1.574,2.292c0,1.722-1.65,2.655-3.154,2.152
		c-1.506-0.5-3.299-0.86-4.947-0.86c-4.088,0-8.389,2.153-8.389,6.668v21.229c0,2.723-1.365,5.02-4.016,5.02
		c-1.293,0-2.439-0.935-2.439-2.297c0-0.86,0.5-1.719,1.363-2.079c0,0,0.5-0.214,0.5-0.933V36.298c0-0.719-0.5-0.934-0.5-0.934
		c-0.863-0.358-1.363-1.217-1.363-2.082c0-1.358,1.146-2.292,2.439-2.292C453.89,30.991,455.11,32.065,455.683,33.573z"/>
</g>
<g>
	<path fill="#231F20" stroke="#1B75BB" stroke-width="2.1714" stroke-miterlimit="10" d="M26.685,13.74"/>
</g>
<path fill="#1B75BB" d="M227.636,6.13h-28.853h-9.509h-7.096l-0.249,4.589h7.344h9.509h7.414v55.195
	c0,1.287,1.004,2.366,2.293,2.366c1.219,0,2.297-1.079,2.297-2.366V10.719h16.85c1.291,0,2.367-1.003,2.367-2.292
	C230.003,7.134,228.927,6.13,227.636,6.13z"/>
<g>
	<defs>
		<rect id="SVGID_1_" x="177.855" y="-6.679" width="8.165" height="28.439"/>
	</defs>
	<clipPath id="SVGID_2_">
		<use xlink:href="#SVGID_1_"  overflow="visible"/>
	</clipPath>
	<g clip-path="url(#SVGID_2_)">
		<path fill="#00ADEE" d="M185.587,68.67c-0.65,0-1.449-7.146-1.449-8.463c0,0-1.296-33.303-1.296-38.434
			c0-5.131-5.567-23.956,2.745-23.956c8.314,0,2.671,18.88,2.671,23.792c0,4.912-1.151,38.178-1.151,38.178
			C187.107,61.107,186.239,68.67,185.587,68.67z M187.273,14.924c0.189-2.778,2.554-13.521-1.208-13.521
			c-3.761,0-1.597,10.733-1.24,13.614C184.957,16.091,187.179,16.292,187.273,14.924z"/>
	</g>
</g>
</svg>
