<?xml version="1.0" encoding="utf-8"?>
<!-- Generator: Adobe Illustrator 16.1.0, SVG Export Plug-In . SVG Version: 6.00 Build 0)  -->
<!DOCTYPE svg PUBLIC "-//W3C//DTD SVG 1.1//EN" "http://www.w3.org/Graphics/SVG/1.1/DTD/svg11.dtd">
<svg version="1.1" id="Layer_1" xmlns="http://www.w3.org/2000/svg" xmlns:xlink="http://www.w3.org/1999/xlink" x="0px" y="0px"
	 width="356px" height="170px" viewBox="0 0 356 170" enable-background="new 0 0 356 170" xml:space="preserve">
<g>
	<g>
		<g>
			<path fill="#93C83E" d="M26.213,125.506v-13.651h6.989v1.317c0.243,1.872,1.253,3.406,3.014,4.609
				c1.771,1.202,3.853,1.812,6.268,1.812c2.526,0,4.538-0.442,6.047-1.321c1.505-0.877,2.255-2.094,2.255-3.649
				c0-1.513-0.621-2.619-1.862-3.336c-1.245-0.717-3.727-1.371-7.428-1.97c-5.477-0.922-9.393-2.422-11.727-4.493
				c-2.342-2.066-3.515-4.746-3.515-8.033c0-3.322,1.272-6.094,3.822-8.324c2.542-2.242,5.9-3.363,10.072-3.363
				c3.75,0,6.986,0.78,9.701,2.324V85.73h6.94v13.185h-6.94v-2.422c-2.116-3.259-5.178-4.889-9.207-4.889
				c-2.062,0-3.75,0.442-5.082,1.333c-1.324,0.895-1.989,2.083-1.989,3.556c0,1.509,0.611,2.541,1.827,3.099
				c1.221,0.563,3.838,1.159,7.868,1.783c3.868,0.604,6.786,1.313,8.756,2.121c1.974,0.813,3.618,2.15,4.916,4.021
				c1.297,1.886,1.949,4.074,1.949,6.562c0,3.704-1.418,6.646-4.252,8.824c-2.841,2.175-6.516,3.267-11.036,3.267
				c-4.245,0-7.715-0.966-10.397-2.901v2.239H26.213z"/>
			<path fill="#93C83E" d="M60.311,105.615c0-6.14,2.029-11.171,6.083-15.104c4.055-3.935,9.005-5.896,14.833-5.896
				c5.724,0,10.648,1.934,14.76,5.814c4.106,3.872,6.161,8.938,6.161,15.186c0,6.239-2.051,11.314-6.144,15.206
				c-4.089,3.887-9.025,5.845-14.777,5.845c-5.912,0-10.886-1.978-14.893-5.926C62.314,116.799,60.311,111.76,60.311,105.615z
				 M68.575,105.592c0,3.93,1.227,7.147,3.677,9.654c2.446,2.511,5.447,3.771,8.974,3.771c3.587,0,6.61-1.268,9.03-3.806
				c2.42-2.537,3.63-5.743,3.63-9.62c0-3.896-1.237-7.114-3.7-9.621c-2.459-2.538-5.455-3.796-8.96-3.796
				c-3.67,0-6.691,1.293-9.078,3.877C69.763,98.617,68.575,101.804,68.575,105.592z"/>
			<path fill="#93C83E" d="M141.836,85.73v15.037h-6.987c-0.354-2.887-1.527-5.075-3.509-6.619
				c-1.987-1.535-4.297-2.304-6.928-2.304c-3.515,0-6.357,1.241-8.55,3.727c-2.191,2.482-3.288,5.725-3.288,9.761
				c0,3.75,1.038,7.062,3.12,9.924c2.082,2.867,5.103,4.295,9.043,4.295c5.483,0,9.455-2.606,11.92-7.812l6.455,3.048
				c-3.562,7.914-9.79,11.879-18.7,11.879c-6.305,0-11.26-2.155-14.882-6.46c-3.61-4.297-5.423-9.271-5.423-14.874
				c0-6.003,1.971-10.958,5.923-14.856c3.944-3.914,8.48-5.86,13.643-5.86c4.411,0,8.139,1.299,11.177,3.895v-2.78H141.836z"/>
			<path fill="#125E83" d="M144.253,125.506v-13.651h6.982v1.317c0.252,1.872,1.252,3.406,3.016,4.609
				c1.77,1.202,3.863,1.812,6.273,1.812c2.519,0,4.531-0.442,6.042-1.321c1.509-0.877,2.259-2.094,2.259-3.649
				c0-1.513-0.618-2.619-1.864-3.336c-1.249-0.717-3.718-1.371-7.425-1.97c-5.48-0.922-9.39-2.422-11.732-4.493
				c-2.346-2.066-3.514-4.746-3.514-8.033c0-3.322,1.271-6.094,3.824-8.324c2.544-2.242,5.9-3.363,10.066-3.363
				c3.757,0,6.987,0.78,9.7,2.324V85.73h6.941v13.185h-6.941v-2.422c-2.108-3.259-5.172-4.889-9.204-4.889
				c-2.055,0-3.75,0.442-5.081,1.333c-1.325,0.895-1.988,2.083-1.988,3.556c0,1.509,0.602,2.541,1.832,3.099
				c1.218,0.563,3.839,1.159,7.867,1.783c3.861,0.604,6.781,1.313,8.757,2.121c1.968,0.813,3.603,2.15,4.909,4.021
				c1.301,1.886,1.951,4.074,1.951,6.562c0,3.704-1.422,6.646-4.256,8.824c-2.837,2.175-6.508,3.267-11.034,3.267
				c-4.25,0-7.712-0.966-10.398-2.901v2.239H144.253z"/>
			<path fill="#125E83" d="M177.689,92.671V85.73h5.176v-6.131l7.813-7.151V85.73h7.353v6.941h-7.353v19.319
				c0,3.098,0.168,5.007,0.51,5.724c0.337,0.731,1.196,1.101,2.574,1.101c1.444,0,2.868-0.281,4.269-0.819v7.103
				c-2.002,0.712-3.997,1.07-6,1.07c-2.387,0-4.315-0.522-5.795-1.585c-1.48-1.046-2.412-2.376-2.796-3.969
				c-0.384-1.588-0.575-4.324-0.575-8.216V92.671H177.689z"/>
			<path fill="#125E83" d="M199.541,105.615c0-6.14,2.022-11.171,6.078-15.104c4.062-3.935,9.007-5.896,14.836-5.896
				c5.737,0,10.646,1.934,14.757,5.814c4.112,3.872,6.161,8.938,6.161,15.186c0,6.239-2.04,11.314-6.137,15.206
				c-4.101,3.887-9.026,5.845-14.781,5.845c-5.919,0-10.882-1.978-14.895-5.926C201.546,116.799,199.541,111.76,199.541,105.615z
				 M207.8,105.592c0,3.93,1.228,7.147,3.681,9.654c2.449,2.511,5.439,3.771,8.974,3.771c3.594,0,6.604-1.268,9.025-3.806
				c2.422-2.537,3.638-5.743,3.638-9.62c0-3.896-1.236-7.114-3.699-9.621c-2.465-2.538-5.451-3.796-8.964-3.796
				c-3.67,0-6.703,1.293-9.089,3.877C208.988,98.617,207.8,101.804,207.8,105.592z"/>
			<path fill="#125E83" d="M281.065,85.73v15.037h-6.984c-0.359-2.887-1.529-5.075-3.511-6.619
				c-1.995-1.535-4.303-2.304-6.933-2.304c-3.509,0-6.351,1.241-8.551,3.727c-2.186,2.482-3.288,5.725-3.288,9.761
				c0,3.75,1.044,7.062,3.119,9.924c2.089,2.867,5.1,4.295,9.046,4.295c5.483,0,9.457-2.606,11.92-7.812l6.451,3.048
				c-3.548,7.914-9.8,11.879-18.698,11.879c-6.298,0-11.26-2.155-14.871-6.46c-3.625-4.297-5.438-9.271-5.438-14.874
				c0-6.003,1.979-10.958,5.924-14.856c3.946-3.914,8.489-5.86,13.646-5.86c4.409,0,8.142,1.299,11.182,3.895v-2.78H281.065z"/>
			<path fill="#125E83" d="M289.233,118.562V75.284h-7.154v-6.946h14.958v35.719l14.879-11.882h-6.608V85.73h21.983v6.445h-6.085
				l-14.922,12.411l14.019,13.976h6.988v6.943h-10.242l-20.012-20.011v13.067h6.865v6.943h-21.823v-6.943H289.233z"/>
			<g>
				<path fill="#93C83E" d="M229.961,42.836c-10.232-9.498-27.375-7.788-37.151-11.632c5.281,3.697,12.873,8.195,18.599,13.176
					c1.062-1.943,3.216-4.051,3.295-4.182c-0.029,0.035-1.92,2.763-2.545,4.833c1.794,1.585,3.565,3.206,5.261,4.841
					c1.507-2.899,4.759-6.132,4.894-6.325c-0.041,0.053-2.98,4.32-3.783,7.408c1.838,1.818,3.59,3.66,5.203,5.498
					c1.684-3.646,6.031-7.956,6.202-8.194c-0.049,0.064-4.23,6.101-4.787,9.841c2.587,3.11,6.545,7.507,8.049,10.465
					c0.24-0.187,0.638,0.203,0.79-0.048C236.238,64.473,242.975,54.937,229.961,42.836z"/>
				<path fill="#93C83E" d="M223.667,58.96c-4.249,0.981-10.479,5.167-10.549,5.214c0.269-0.178,5.137-4.897,9.265-6.725
					c-1.692-1.943-3.499-3.882-5.359-5.792v0.056c-3.349,0.036-9.92,4.423-9.981,4.476c0.243-0.166,5.063-4.832,8.63-5.907
					c-1.939-1.938-3.926-3.843-5.943-5.684v0.316c-2.274,0.019-6.73,3.035-6.77,3.074c0.162-0.12,3.568-3.457,6-4.093
					c-5.344-4.852-10.787-9.27-15.541-12.767c0.152,3.738,2.716,26.505,13.192,37.857c11.339,12.288,19.285,6.932,25.197,1.521
					C229.807,66.813,226.987,62.896,223.667,58.96z"/>
			</g>
			<path fill="#464547" d="M332.847,125.144v-1.451h1.145v-5.697h-1.145v1.999h-1.299v-3.462h6.882v3.462h-1.3v-1.999h-1.163v5.697
				h1.145v1.451H332.847z"/>
			<path fill="#464547" d="M338.512,125.144v-1.451h0.982v-5.697h-0.982v-1.463h3.81l1.658,5.047l1.672-5.047h3.885v1.463h-0.99
				v5.697h0.99v1.451h-3.83v-1.451h0.92v-5.697h-0.184l-2.337,7.148h-0.835l-2.366-7.148h-0.176v5.697h0.993v1.451H338.512z"/>
		</g>
	</g>
</g>
</svg>
