<?xml version="1.0" encoding="utf-8"?>
<!-- Generator: Adobe Illustrator 16.1.0, SVG Export Plug-In . SVG Version: 6.00 Build 0)  -->
<!DOCTYPE svg PUBLIC "-//W3C//DTD SVG 1.1//EN" "http://www.w3.org/Graphics/SVG/1.1/DTD/svg11.dtd">
<svg version="1.1" id="Layer_1" xmlns="http://www.w3.org/2000/svg" xmlns:xlink="http://www.w3.org/1999/xlink" x="0px" y="0px"
	 width="400px" height="150px" viewBox="-53 90 400 150" enable-background="new -53 90 400 150" xml:space="preserve">
<g>
	<g>
		<path fill="#23A192" d="M30.626,172.162c0-4.176,0.9-8.023,2.617-11.533v-6.923c-0.203-1.788-1.375-5.147-7.312-5.147h-9.955
			c0,0.399,0,1.811,0,4.216c0,2.409,0,4.983,0,7.729c0,3.081,0,7.127,0,12.147c0,1.604-0.721,2.83-2.157,3.658
			c-1.437,0.842-3.029,1.36-4.767,1.561c-0.274,0.066-0.541,0.099-0.805,0.099c-0.27,0-0.539,0-0.803,0c-0.667,0-1.3-0.05-1.9-0.15
			c-0.102-0.015-0.182-0.056-0.278-0.068c-0.498-0.099-0.982-0.216-1.438-0.383v-23.568c-0.177-1.762-1.283-5.239-7.321-5.239
			h-9.941h-0.043c0,0.399,0,1.811,0,4.216c0,2.409,0,4.983,0,7.729c0,3.081,0,7.127,0,12.147c0,1.604-0.721,2.83-2.156,3.658
			c-1.443,0.842-3.03,1.36-4.769,1.561c-0.266,0.066-0.534,0.099-0.798,0.099c-0.273,0-0.545,0-0.804,0
			c-0.669,0-1.306-0.05-1.904-0.15c-0.607-0.103-1.178-0.249-1.706-0.451v-23.4c-0.122-1.688-1.092-5.407-7.339-5.407h-9.928
			c0,2.607,0,5.137,0,7.579c0,2.44,0,4.87,0,7.279c0,2.407,0,4.831,0,7.275c0,2.44,0,4.967,0,7.582c0,3.076,0.651,5.663,1.957,7.772
			c1.302,2.112,2.991,3.867,5.066,5.271c1.936,1.268,4.081,2.21,6.423,2.81c2.342,0.602,4.751,0.908,7.226,0.908
			c2.746,0,5.455-0.34,8.131-1.007c2.677-0.666,5.086-1.642,7.227-2.909c0.969,0.644,2.016,1.168,3.091,1.632
			c1.199,0.555,2.45,1.036,3.773,1.376c2.343,0.602,4.756,0.908,7.229,0.908c2.747,0,5.451-0.34,8.132-1.007
			c2.663-0.666,5.059-1.633,7.192-2.897l0.009-0.012c6.004-2.916,8.618-6.673,9.756-9.523
			C31.22,178.668,30.626,175.526,30.626,172.162z"/>
	</g>
	<g>
		<path fill="#23A192" d="M78.048,172.162c0-3.46,0.611-6.688,1.792-9.696c-1.201-2.779-2.953-5.342-5.284-7.671
			c-4.818-4.813-10.606-7.228-17.364-7.228c-6.757,0-12.549,2.414-17.361,7.228c-4.818,4.824-7.232,10.606-7.232,17.367
			c0,6.755,2.414,12.528,7.232,17.316c4.812,4.78,10.604,7.175,17.361,7.175c6.758,0,12.545-2.395,17.364-7.175
			c2.331-2.312,4.083-4.861,5.284-7.636C78.659,178.849,78.048,175.62,78.048,172.162z M63.771,178.736
			c-1.85,1.843-4.037,2.762-6.578,2.762c-2.545,0-4.721-0.919-6.521-2.762c-1.811-1.844-2.714-4.028-2.714-6.574
			s0.903-4.735,2.714-6.575c1.8-1.839,3.976-2.759,6.521-2.759c2.542,0,4.728,0.92,6.578,2.759c1.833,1.84,2.754,4.029,2.754,6.575
			S65.604,176.893,63.771,178.736z"/>
	</g>
	<path fill="#23A192" d="M127.521,178.274v-7.582v-7.275v-0.312c-1.198-3.029-3.037-5.801-5.548-8.31
		c-4.816-4.813-10.605-7.228-17.355-7.228c-6.765,0-12.549,2.414-17.37,7.228c-4.824,4.824-7.221,10.606-7.221,17.367
		c0,6.755,2.397,12.528,7.221,17.316c4.821,4.78,10.605,7.175,17.37,7.175c6.75,0,12.54-2.395,17.355-7.175
		c2.622-2.602,4.504-5.505,5.694-8.687C127.573,179.978,127.521,179.142,127.521,178.274z M111.189,178.736
		c-1.842,1.843-4.036,2.762-6.572,2.762c-2.545,0-4.721-0.919-6.526-2.762c-1.811-1.844-2.715-4.028-2.715-6.574
		s0.904-4.735,2.715-6.575c1.806-1.839,3.981-2.759,6.526-2.759c2.536,0,4.73,0.92,6.572,2.759c1.835,1.84,2.761,4.029,2.761,6.575
		S113.025,176.893,111.189,178.736z"/>
	<path fill="#F26F28" d="M198.31,148.559h-9.95c0,0.399,0,1.811,0,4.216c0,2.409,0,4.983,0,7.729c0,3.081,0,7.127,0,12.147
		c0,1.604-0.721,2.83-2.158,3.658c-1.439,0.842-3.029,1.36-4.765,1.561c-0.271,0.066-0.544,0.099-0.805,0.099
		c-0.268,0-0.541,0-0.808,0c-0.667,0-1.294-0.05-1.898-0.15c-0.104-0.015-0.178-0.056-0.276-0.068
		c-0.495-0.099-0.993-0.216-1.428-0.383v-23.568c-0.188-1.762-1.295-5.239-7.328-5.239h-9.945h-0.042c0,0.399,0,1.811,0,4.216
		c0,2.409,0,4.983,0,7.729c0,3.081,0,7.127,0,12.147c0,1.604-0.72,2.83-2.158,3.658c-1.44,0.842-3.032,1.36-4.765,1.561
		c-0.264,0.066-0.541,0.099-0.808,0.099c-0.268,0-0.538,0-0.799,0c-0.672,0-1.307-0.05-1.909-0.15
		c-0.602-0.103-1.169-0.249-1.702-0.451v-23.4c-0.123-1.688-1.086-5.407-7.338-5.407H129.5c0,2.607,0,5.137,0,7.579
		c0,2.44,0,4.87,0,7.279c0,2.407,0,4.831,0,7.275c0,2.44,0,4.967,0,7.582c0,3.076,0.648,5.663,1.954,7.772
		c1.305,2.112,2.995,3.867,5.066,5.271c1.941,1.268,4.088,2.21,6.422,2.81c2.345,0.602,4.756,0.908,7.235,0.908
		c2.739,0,5.45-0.34,8.132-1.007c2.669-0.666,5.076-1.642,7.219-2.909c0.975,0.644,2.019,1.168,3.091,1.632
		c1.203,0.555,2.45,1.036,3.785,1.376c2.337,0.602,4.75,0.908,7.224,0.908c2.739,0,5.453-0.34,8.136-1.007
		c2.655-0.666,5.06-1.633,7.188-2.897l0.006-0.012c11.146-5.417,10.636-13.754,10.636-13.754l0.029-0.012v-23.648
		C205.426,151.918,204.254,148.559,198.31,148.559z"/>
	<g>
		<path fill="#F26F28" d="M257.873,172.162c0-3.125,0.513-6.059,1.475-8.82c-0.006-0.404,0.011-0.807-0.006-1.216
			c0-2.547-0.599-4.819-1.806-6.827c-1.206-2.013-2.981-3.578-5.321-4.721c-1.472-0.732-3.025-1.271-4.662-1.604
			c-1.646-0.331-3.332-0.5-5.073-0.5c-0.202,0-0.389,0-0.551,0c-0.169,0-0.325,0-0.453,0c-2.744,0.133-5.438,0.618-8.082,1.455
			c-2.642,0.838-4.974,2.024-6.977,3.562c0-2.006,0-4.381,0-7.128c0-2.744,0-5.551,0-8.43c0-2.879,0-5.673,0-8.382
			c0-0.679,0-1.267,0-1.896c-0.191-1.767-1.327-5.138-7.212-5.176h-11.558c0,4.282,0,8.931,0,13.949c0,5.018,0,10.105,0,15.256
			c0,5.22,0,10.356,0,15.407c0,5.054,0,9.755,0,14.104c0,4.145,1.393,7.428,4.173,9.837c2.767,2.405,5.8,3.609,9.081,3.609
			c2.076,0,4.061-0.515,5.97-1.552c1.902-1.038,3.496-2.663,4.771-4.869c0.062-0.068,0.11-0.153,0.145-0.251
			c0.042-0.104,0.058-0.183,0.058-0.254c0.063-0.065,0.098-0.15,0.098-0.249c0-0.1,0-0.183,0-0.246c0-0.741-0.255-1.363-0.76-1.863
			c-0.499-0.498-1.077-0.752-1.746-0.752c-0.076,0-0.157,0-0.255,0c-0.099,0-0.186,0.033-0.256,0.102
			c-0.127,0-0.226,0.018-0.296,0.048c-0.063,0.039-0.167,0.091-0.301,0.155c-0.073,0.063-0.15,0.101-0.255,0.101
			c-0.099,0-0.182,0.029-0.243,0.095c-0.408,0-0.744-0.081-1.005-0.246c-0.279-0.17-0.408-0.455-0.408-0.856
			c0-1.809,0-3.611,0-5.418s0-3.613,0-5.423c0-1.741,0-3.513,0-5.319c0-1.81,0-3.615,0-5.42c0.739-0.602,1.673-1.137,2.81-1.604
			c1.141-0.471,2.316-0.772,3.517-0.9c0.266,0,0.533-0.016,0.805-0.052c0.264-0.039,0.537-0.049,0.802-0.049
			c1.667,0,3.128,0.379,4.364,1.149c1.242,0.771,1.854,2.128,1.854,4.062c0,2.683,0,5.374,0,8.081c0,2.72,0,5.408,0,8.085
			c0,3.677,1.242,6.847,3.718,9.489c2.47,2.638,5.551,3.957,9.236,3.957c3.939,0,7.09-1.387,9.436-4.165
			c0.387-0.462,0.695-0.958,1.026-1.446C259.929,184.255,257.873,178.589,257.873,172.162z"/>
	</g>
	<g>
		<path fill="#23A192" d="M327.004,194.608c-2.102,2.099-4.659,3.147-7.678,3.147c-2.936,0-5.476-1.049-7.611-3.147
			c-2.13-2.095-3.196-4.615-3.196-7.559c0-3.016,1.066-5.575,3.196-7.662c2.136-2.104,4.676-3.152,7.611-3.152
			c3.019,0,5.576,1.048,7.678,3.152c2.087,2.087,3.139,4.646,3.139,7.662C330.143,189.993,329.091,192.514,327.004,194.608z
			 M338.534,138.388c-1.77,2.944-3.644,6.289-5.629,10.042c-1.695,3.164-3.296,6.603-4.805,10.319
			c-1.504,3.711-2.665,7.85-3.469,12.412c-0.153,0.954-0.575,1.673-1.272,2.152c-0.7,0.481-1.455,0.712-2.264,0.712
			c-0.88,0-1.693-0.309-2.424-0.933c-0.737-0.628-1.107-1.451-1.107-2.485c0-0.071,0-0.124,0-0.164c0-0.039,0.041-0.097,0.114-0.164
			c0-0.074,0-0.131,0-0.168c0-0.036,0-0.09,0-0.163c0.367-1.913,0.6-3.752,0.714-5.52c0.109-1.764,0.168-3.493,0.168-5.187
			c0-3.312-0.209-6.437-0.606-9.379c-0.408-2.94-0.825-5.699-1.274-8.276c-0.515-2.646-0.974-5.074-1.373-7.282
			c-0.408-2.206-0.611-4.191-0.611-5.959c0-0.441,0.018-0.881,0.053-1.327c0.041-0.439,0.098-0.843,0.171-1.215
			c0.585-3.305,2.15-6.028,4.691-8.159c2.532-2.134,5.421-3.202,8.663-3.202c0.366,0,0.754,0.017,1.155,0.055
			c0.401,0.035,0.79,0.093,1.159,0.168c3.385,0.512,6.135,2.072,8.27,4.686c2.139,2.613,3.21,5.574,3.21,8.884
			c0,0.292-0.022,0.624-0.058,0.993c-0.035,0.367-0.099,0.733-0.163,1.1C341.398,132.763,340.298,135.446,338.534,138.388z"/>
	</g>
	<path fill="#F26F28" d="M301.611,189.479c-4.822,4.78-10.61,7.175-17.367,7.175c-6.752,0-12.545-2.395-17.361-7.175
		c-4.821-4.788-7.229-10.562-7.229-17.316c0-6.761,2.407-12.543,7.229-17.367c4.816-4.813,10.609-7.228,17.361-7.228
		c6.757,0,12.545,2.414,17.367,7.228c4.816,4.824,7.225,10.606,7.225,17.367C308.836,178.917,306.428,184.69,301.611,189.479z
		 M290.82,165.587c-1.838-1.839-4.033-2.759-6.576-2.759c-2.54,0-4.716,0.92-6.52,2.759c-1.812,1.84-2.717,4.029-2.717,6.575
		s0.904,4.73,2.717,6.574c1.804,1.843,3.979,2.762,6.52,2.762c2.543,0,4.738-0.919,6.576-2.762c1.844-1.844,2.762-4.028,2.762-6.574
		S292.664,167.427,290.82,165.587z"/>
</g>
</svg>
